<?xml version="1.0" encoding="utf-8" standalone="no"?>
<!DOCTYPE svg PUBLIC "-//W3C//DTD SVG 1.1//EN"
  "http://www.w3.org/Graphics/SVG/1.1/DTD/svg11.dtd">
<!-- Created with matplotlib (http://matplotlib.org/) -->
<svg height="485pt" version="1.1" viewBox="0 0 936 485" width="936pt" xmlns="http://www.w3.org/2000/svg" xmlns:xlink="http://www.w3.org/1999/xlink">
 <defs>
  <style type="text/css">
*{stroke-linecap:butt;stroke-linejoin:round;}
  </style>
 </defs>
 <g id="figure_1">
  <g id="patch_1">
   <path d="M 0 485.28 
L 936.72 485.28 
L 936.72 0 
L 0 0 
z
" style="fill:#ffffff;"/>
  </g>
  <g id="axes_1">
   <g id="patch_2">
    <path d="M 117.09 431.8992 
L 843.048 431.8992 
L 843.048 58.2336 
L 117.09 58.2336 
z
" style="fill:#ffffff;"/>
   </g>
   <g id="matplotlib.axis_1">
    <g id="xtick_1">
     <g id="line2d_1">
      <path clip-path="url(#p3b67c14e79)" d="M 150.088091 431.8992 
L 150.088091 58.2336 
" style="fill:none;stroke:#b0b0b0;stroke-linecap:square;stroke-width:0.8;"/>
     </g>
     <g id="line2d_2">
      <defs>
       <path d="M 0 0 
L 0 3.5 
" id="m4eb9630e1f" style="stroke:#000000;stroke-width:0.8;"/>
      </defs>
      <g>
       <use style="stroke:#000000;stroke-width:0.8;" x="150.088091" xlink:href="#m4eb9630e1f" y="431.8992"/>
      </g>
     </g>
     <g id="text_1">
      <!-- 1 -->
      <defs>
       <path d="M 12.40625 8.296875 
L 28.515625 8.296875 
L 28.515625 63.921875 
L 10.984375 60.40625 
L 10.984375 69.390625 
L 28.421875 72.90625 
L 38.28125 72.90625 
L 38.28125 8.296875 
L 54.390625 8.296875 
L 54.390625 0 
L 12.40625 0 
z
" id="DejaVuSans-31"/>
      </defs>
      <g transform="translate(146.906841 446.497638)scale(0.1 -0.1)">
       <use xlink:href="#DejaVuSans-31"/>
      </g>
     </g>
    </g>
    <g id="xtick_2">
     <g id="line2d_3">
      <path clip-path="url(#p3b67c14e79)" d="M 219.557756 431.8992 
L 219.557756 58.2336 
" style="fill:none;stroke:#b0b0b0;stroke-linecap:square;stroke-width:0.8;"/>
     </g>
     <g id="line2d_4">
      <g>
       <use style="stroke:#000000;stroke-width:0.8;" x="219.557756" xlink:href="#m4eb9630e1f" y="431.8992"/>
      </g>
     </g>
     <g id="text_2">
      <!-- 3 -->
      <defs>
       <path d="M 40.578125 39.3125 
Q 47.65625 37.796875 51.625 33 
Q 55.609375 28.21875 55.609375 21.1875 
Q 55.609375 10.40625 48.1875 4.484375 
Q 40.765625 -1.421875 27.09375 -1.421875 
Q 22.515625 -1.421875 17.65625 -0.515625 
Q 12.796875 0.390625 7.625 2.203125 
L 7.625 11.71875 
Q 11.71875 9.328125 16.59375 8.109375 
Q 21.484375 6.890625 26.8125 6.890625 
Q 36.078125 6.890625 40.9375 10.546875 
Q 45.796875 14.203125 45.796875 21.1875 
Q 45.796875 27.640625 41.28125 31.265625 
Q 36.765625 34.90625 28.71875 34.90625 
L 20.21875 34.90625 
L 20.21875 43.015625 
L 29.109375 43.015625 
Q 36.375 43.015625 40.234375 45.921875 
Q 44.09375 48.828125 44.09375 54.296875 
Q 44.09375 59.90625 40.109375 62.90625 
Q 36.140625 65.921875 28.71875 65.921875 
Q 24.65625 65.921875 20.015625 65.03125 
Q 15.375 64.15625 9.8125 62.3125 
L 9.8125 71.09375 
Q 15.4375 72.65625 20.34375 73.4375 
Q 25.25 74.21875 29.59375 74.21875 
Q 40.828125 74.21875 47.359375 69.109375 
Q 53.90625 64.015625 53.90625 55.328125 
Q 53.90625 49.265625 50.4375 45.09375 
Q 46.96875 40.921875 40.578125 39.3125 
" id="DejaVuSans-33"/>
      </defs>
      <g transform="translate(216.376506 446.497638)scale(0.1 -0.1)">
       <use xlink:href="#DejaVuSans-33"/>
      </g>
     </g>
    </g>
    <g id="xtick_3">
     <g id="line2d_5">
      <path clip-path="url(#p3b67c14e79)" d="M 289.027421 431.8992 
L 289.027421 58.2336 
" style="fill:none;stroke:#b0b0b0;stroke-linecap:square;stroke-width:0.8;"/>
     </g>
     <g id="line2d_6">
      <g>
       <use style="stroke:#000000;stroke-width:0.8;" x="289.027421" xlink:href="#m4eb9630e1f" y="431.8992"/>
      </g>
     </g>
     <g id="text_3">
      <!-- 5 -->
      <defs>
       <path d="M 10.796875 72.90625 
L 49.515625 72.90625 
L 49.515625 64.59375 
L 19.828125 64.59375 
L 19.828125 46.734375 
Q 21.96875 47.46875 24.109375 47.828125 
Q 26.265625 48.1875 28.421875 48.1875 
Q 40.625 48.1875 47.75 41.5 
Q 54.890625 34.8125 54.890625 23.390625 
Q 54.890625 11.625 47.5625 5.09375 
Q 40.234375 -1.421875 26.90625 -1.421875 
Q 22.3125 -1.421875 17.546875 -0.640625 
Q 12.796875 0.140625 7.71875 1.703125 
L 7.71875 11.625 
Q 12.109375 9.234375 16.796875 8.0625 
Q 21.484375 6.890625 26.703125 6.890625 
Q 35.15625 6.890625 40.078125 11.328125 
Q 45.015625 15.765625 45.015625 23.390625 
Q 45.015625 31 40.078125 35.4375 
Q 35.15625 39.890625 26.703125 39.890625 
Q 22.75 39.890625 18.8125 39.015625 
Q 14.890625 38.140625 10.796875 36.28125 
z
" id="DejaVuSans-35"/>
      </defs>
      <g transform="translate(285.846171 446.497638)scale(0.1 -0.1)">
       <use xlink:href="#DejaVuSans-35"/>
      </g>
     </g>
    </g>
    <g id="xtick_4">
     <g id="line2d_7">
      <path clip-path="url(#p3b67c14e79)" d="M 358.497086 431.8992 
L 358.497086 58.2336 
" style="fill:none;stroke:#b0b0b0;stroke-linecap:square;stroke-width:0.8;"/>
     </g>
     <g id="line2d_8">
      <g>
       <use style="stroke:#000000;stroke-width:0.8;" x="358.497086" xlink:href="#m4eb9630e1f" y="431.8992"/>
      </g>
     </g>
     <g id="text_4">
      <!-- 7 -->
      <defs>
       <path d="M 8.203125 72.90625 
L 55.078125 72.90625 
L 55.078125 68.703125 
L 28.609375 0 
L 18.3125 0 
L 43.21875 64.59375 
L 8.203125 64.59375 
z
" id="DejaVuSans-37"/>
      </defs>
      <g transform="translate(355.315836 446.497638)scale(0.1 -0.1)">
       <use xlink:href="#DejaVuSans-37"/>
      </g>
     </g>
    </g>
    <g id="xtick_5">
     <g id="line2d_9">
      <path clip-path="url(#p3b67c14e79)" d="M 427.966751 431.8992 
L 427.966751 58.2336 
" style="fill:none;stroke:#b0b0b0;stroke-linecap:square;stroke-width:0.8;"/>
     </g>
     <g id="line2d_10">
      <g>
       <use style="stroke:#000000;stroke-width:0.8;" x="427.966751" xlink:href="#m4eb9630e1f" y="431.8992"/>
      </g>
     </g>
     <g id="text_5">
      <!-- 9 -->
      <defs>
       <path d="M 10.984375 1.515625 
L 10.984375 10.5 
Q 14.703125 8.734375 18.5 7.8125 
Q 22.3125 6.890625 25.984375 6.890625 
Q 35.75 6.890625 40.890625 13.453125 
Q 46.046875 20.015625 46.78125 33.40625 
Q 43.953125 29.203125 39.59375 26.953125 
Q 35.25 24.703125 29.984375 24.703125 
Q 19.046875 24.703125 12.671875 31.3125 
Q 6.296875 37.9375 6.296875 49.421875 
Q 6.296875 60.640625 12.9375 67.421875 
Q 19.578125 74.21875 30.609375 74.21875 
Q 43.265625 74.21875 49.921875 64.515625 
Q 56.59375 54.828125 56.59375 36.375 
Q 56.59375 19.140625 48.40625 8.859375 
Q 40.234375 -1.421875 26.421875 -1.421875 
Q 22.703125 -1.421875 18.890625 -0.6875 
Q 15.09375 0.046875 10.984375 1.515625 
M 30.609375 32.421875 
Q 37.25 32.421875 41.125 36.953125 
Q 45.015625 41.5 45.015625 49.421875 
Q 45.015625 57.28125 41.125 61.84375 
Q 37.25 66.40625 30.609375 66.40625 
Q 23.96875 66.40625 20.09375 61.84375 
Q 16.21875 57.28125 16.21875 49.421875 
Q 16.21875 41.5 20.09375 36.953125 
Q 23.96875 32.421875 30.609375 32.421875 
" id="DejaVuSans-39"/>
      </defs>
      <g transform="translate(424.785501 446.497638)scale(0.1 -0.1)">
       <use xlink:href="#DejaVuSans-39"/>
      </g>
     </g>
    </g>
    <g id="xtick_6">
     <g id="line2d_11">
      <path clip-path="url(#p3b67c14e79)" d="M 497.436416 431.8992 
L 497.436416 58.2336 
" style="fill:none;stroke:#b0b0b0;stroke-linecap:square;stroke-width:0.8;"/>
     </g>
     <g id="line2d_12">
      <g>
       <use style="stroke:#000000;stroke-width:0.8;" x="497.436416" xlink:href="#m4eb9630e1f" y="431.8992"/>
      </g>
     </g>
     <g id="text_6">
      <!-- 11 -->
      <g transform="translate(491.073916 446.497638)scale(0.1 -0.1)">
       <use xlink:href="#DejaVuSans-31"/>
       <use x="63.623047" xlink:href="#DejaVuSans-31"/>
      </g>
     </g>
    </g>
    <g id="xtick_7">
     <g id="line2d_13">
      <path clip-path="url(#p3b67c14e79)" d="M 566.906081 431.8992 
L 566.906081 58.2336 
" style="fill:none;stroke:#b0b0b0;stroke-linecap:square;stroke-width:0.8;"/>
     </g>
     <g id="line2d_14">
      <g>
       <use style="stroke:#000000;stroke-width:0.8;" x="566.906081" xlink:href="#m4eb9630e1f" y="431.8992"/>
      </g>
     </g>
     <g id="text_7">
      <!-- 13 -->
      <g transform="translate(560.543581 446.497638)scale(0.1 -0.1)">
       <use xlink:href="#DejaVuSans-31"/>
       <use x="63.623047" xlink:href="#DejaVuSans-33"/>
      </g>
     </g>
    </g>
    <g id="xtick_8">
     <g id="line2d_15">
      <path clip-path="url(#p3b67c14e79)" d="M 636.375746 431.8992 
L 636.375746 58.2336 
" style="fill:none;stroke:#b0b0b0;stroke-linecap:square;stroke-width:0.8;"/>
     </g>
     <g id="line2d_16">
      <g>
       <use style="stroke:#000000;stroke-width:0.8;" x="636.375746" xlink:href="#m4eb9630e1f" y="431.8992"/>
      </g>
     </g>
     <g id="text_8">
      <!-- 15 -->
      <g transform="translate(630.013246 446.497638)scale(0.1 -0.1)">
       <use xlink:href="#DejaVuSans-31"/>
       <use x="63.623047" xlink:href="#DejaVuSans-35"/>
      </g>
     </g>
    </g>
    <g id="xtick_9">
     <g id="line2d_17">
      <path clip-path="url(#p3b67c14e79)" d="M 705.845411 431.8992 
L 705.845411 58.2336 
" style="fill:none;stroke:#b0b0b0;stroke-linecap:square;stroke-width:0.8;"/>
     </g>
     <g id="line2d_18">
      <g>
       <use style="stroke:#000000;stroke-width:0.8;" x="705.845411" xlink:href="#m4eb9630e1f" y="431.8992"/>
      </g>
     </g>
     <g id="text_9">
      <!-- 17 -->
      <g transform="translate(699.482911 446.497638)scale(0.1 -0.1)">
       <use xlink:href="#DejaVuSans-31"/>
       <use x="63.623047" xlink:href="#DejaVuSans-37"/>
      </g>
     </g>
    </g>
    <g id="xtick_10">
     <g id="line2d_19">
      <path clip-path="url(#p3b67c14e79)" d="M 775.315077 431.8992 
L 775.315077 58.2336 
" style="fill:none;stroke:#b0b0b0;stroke-linecap:square;stroke-width:0.8;"/>
     </g>
     <g id="line2d_20">
      <g>
       <use style="stroke:#000000;stroke-width:0.8;" x="775.315077" xlink:href="#m4eb9630e1f" y="431.8992"/>
      </g>
     </g>
     <g id="text_10">
      <!-- 19 -->
      <g transform="translate(768.952577 446.497638)scale(0.1 -0.1)">
       <use xlink:href="#DejaVuSans-31"/>
       <use x="63.623047" xlink:href="#DejaVuSans-39"/>
      </g>
     </g>
    </g>
    <g id="text_11">
     <!-- Arrival rate $(\lambda)$ -->
     <defs>
      <path d="M 34.1875 63.1875 
L 20.796875 26.90625 
L 47.609375 26.90625 
z
M 28.609375 72.90625 
L 39.796875 72.90625 
L 67.578125 0 
L 57.328125 0 
L 50.6875 18.703125 
L 17.828125 18.703125 
L 11.1875 0 
L 0.78125 0 
z
" id="DejaVuSans-41"/>
      <path d="M 41.109375 46.296875 
Q 39.59375 47.171875 37.8125 47.578125 
Q 36.03125 48 33.890625 48 
Q 26.265625 48 22.1875 43.046875 
Q 18.109375 38.09375 18.109375 28.8125 
L 18.109375 0 
L 9.078125 0 
L 9.078125 54.6875 
L 18.109375 54.6875 
L 18.109375 46.1875 
Q 20.953125 51.171875 25.484375 53.578125 
Q 30.03125 56 36.53125 56 
Q 37.453125 56 38.578125 55.875 
Q 39.703125 55.765625 41.0625 55.515625 
z
" id="DejaVuSans-72"/>
      <path d="M 9.421875 54.6875 
L 18.40625 54.6875 
L 18.40625 0 
L 9.421875 0 
z
M 9.421875 75.984375 
L 18.40625 75.984375 
L 18.40625 64.59375 
L 9.421875 64.59375 
z
" id="DejaVuSans-69"/>
      <path d="M 2.984375 54.6875 
L 12.5 54.6875 
L 29.59375 8.796875 
L 46.6875 54.6875 
L 56.203125 54.6875 
L 35.6875 0 
L 23.484375 0 
z
" id="DejaVuSans-76"/>
      <path d="M 34.28125 27.484375 
Q 23.390625 27.484375 19.1875 25 
Q 14.984375 22.515625 14.984375 16.5 
Q 14.984375 11.71875 18.140625 8.90625 
Q 21.296875 6.109375 26.703125 6.109375 
Q 34.1875 6.109375 38.703125 11.40625 
Q 43.21875 16.703125 43.21875 25.484375 
L 43.21875 27.484375 
z
M 52.203125 31.203125 
L 52.203125 0 
L 43.21875 0 
L 43.21875 8.296875 
Q 40.140625 3.328125 35.546875 0.953125 
Q 30.953125 -1.421875 24.3125 -1.421875 
Q 15.921875 -1.421875 10.953125 3.296875 
Q 6 8.015625 6 15.921875 
Q 6 25.140625 12.171875 29.828125 
Q 18.359375 34.515625 30.609375 34.515625 
L 43.21875 34.515625 
L 43.21875 35.40625 
Q 43.21875 41.609375 39.140625 45 
Q 35.0625 48.390625 27.6875 48.390625 
Q 23 48.390625 18.546875 47.265625 
Q 14.109375 46.140625 10.015625 43.890625 
L 10.015625 52.203125 
Q 14.9375 54.109375 19.578125 55.046875 
Q 24.21875 56 28.609375 56 
Q 40.484375 56 46.34375 49.84375 
Q 52.203125 43.703125 52.203125 31.203125 
" id="DejaVuSans-61"/>
      <path d="M 9.421875 75.984375 
L 18.40625 75.984375 
L 18.40625 0 
L 9.421875 0 
z
" id="DejaVuSans-6c"/>
      <path id="DejaVuSans-20"/>
      <path d="M 18.3125 70.21875 
L 18.3125 54.6875 
L 36.8125 54.6875 
L 36.8125 47.703125 
L 18.3125 47.703125 
L 18.3125 18.015625 
Q 18.3125 11.328125 20.140625 9.421875 
Q 21.96875 7.515625 27.59375 7.515625 
L 36.8125 7.515625 
L 36.8125 0 
L 27.59375 0 
Q 17.1875 0 13.234375 3.875 
Q 9.28125 7.765625 9.28125 18.015625 
L 9.28125 47.703125 
L 2.6875 47.703125 
L 2.6875 54.6875 
L 9.28125 54.6875 
L 9.28125 70.21875 
z
" id="DejaVuSans-74"/>
      <path d="M 56.203125 29.59375 
L 56.203125 25.203125 
L 14.890625 25.203125 
Q 15.484375 15.921875 20.484375 11.0625 
Q 25.484375 6.203125 34.421875 6.203125 
Q 39.59375 6.203125 44.453125 7.46875 
Q 49.3125 8.734375 54.109375 11.28125 
L 54.109375 2.78125 
Q 49.265625 0.734375 44.1875 -0.34375 
Q 39.109375 -1.421875 33.890625 -1.421875 
Q 20.796875 -1.421875 13.15625 6.1875 
Q 5.515625 13.8125 5.515625 26.8125 
Q 5.515625 40.234375 12.765625 48.109375 
Q 20.015625 56 32.328125 56 
Q 43.359375 56 49.78125 48.890625 
Q 56.203125 41.796875 56.203125 29.59375 
M 47.21875 32.234375 
Q 47.125 39.59375 43.09375 43.984375 
Q 39.0625 48.390625 32.421875 48.390625 
Q 24.90625 48.390625 20.390625 44.140625 
Q 15.875 39.890625 15.1875 32.171875 
z
" id="DejaVuSans-65"/>
      <path d="M 31 75.875 
Q 24.46875 64.65625 21.28125 53.65625 
Q 18.109375 42.671875 18.109375 31.390625 
Q 18.109375 20.125 21.3125 9.0625 
Q 24.515625 -2 31 -13.1875 
L 23.1875 -13.1875 
Q 15.875 -1.703125 12.234375 9.375 
Q 8.59375 20.453125 8.59375 31.390625 
Q 8.59375 42.28125 12.203125 53.3125 
Q 15.828125 64.359375 23.1875 75.875 
z
" id="DejaVuSans-28"/>
      <path d="M 36.71875 67.4375 
L 48.828125 0 
L 39.3125 0 
L 31.84375 40.4375 
L 5.125 0 
L -4.390625 0 
L 29.734375 52.4375 
L 28.03125 62.109375 
Q 26.953125 68.265625 21.734375 68.265625 
L 17.046875 68.265625 
L 18.5 75.984375 
L 24.21875 75.875 
Q 35.203125 75.734375 36.71875 67.4375 
" id="DejaVuSans-Oblique-3bb"/>
      <path d="M 8.015625 75.875 
L 15.828125 75.875 
Q 23.140625 64.359375 26.78125 53.3125 
Q 30.421875 42.28125 30.421875 31.390625 
Q 30.421875 20.453125 26.78125 9.375 
Q 23.140625 -1.703125 15.828125 -13.1875 
L 8.015625 -13.1875 
Q 14.5 -2 17.703125 9.0625 
Q 20.90625 20.125 20.90625 31.390625 
Q 20.90625 42.671875 17.703125 53.65625 
Q 14.5 64.65625 8.015625 75.875 
" id="DejaVuSans-29"/>
     </defs>
     <g transform="translate(443.519 460.175763)scale(0.1 -0.1)">
      <use transform="translate(0 0.015625)" xlink:href="#DejaVuSans-41"/>
      <use transform="translate(68.408203 0.015625)" xlink:href="#DejaVuSans-72"/>
      <use transform="translate(109.521484 0.015625)" xlink:href="#DejaVuSans-72"/>
      <use transform="translate(150.634766 0.015625)" xlink:href="#DejaVuSans-69"/>
      <use transform="translate(178.417969 0.015625)" xlink:href="#DejaVuSans-76"/>
      <use transform="translate(237.597656 0.015625)" xlink:href="#DejaVuSans-61"/>
      <use transform="translate(298.876953 0.015625)" xlink:href="#DejaVuSans-6c"/>
      <use transform="translate(326.660156 0.015625)" xlink:href="#DejaVuSans-20"/>
      <use transform="translate(358.447266 0.015625)" xlink:href="#DejaVuSans-72"/>
      <use transform="translate(399.560547 0.015625)" xlink:href="#DejaVuSans-61"/>
      <use transform="translate(460.839844 0.015625)" xlink:href="#DejaVuSans-74"/>
      <use transform="translate(500.048828 0.015625)" xlink:href="#DejaVuSans-65"/>
      <use transform="translate(561.572266 0.015625)" xlink:href="#DejaVuSans-20"/>
      <use transform="translate(593.359375 0.015625)" xlink:href="#DejaVuSans-28"/>
      <use transform="translate(632.373047 0.015625)" xlink:href="#DejaVuSans-Oblique-3bb"/>
      <use transform="translate(691.552734 0.015625)" xlink:href="#DejaVuSans-29"/>
     </g>
    </g>
   </g>
   <g id="matplotlib.axis_2">
    <g id="ytick_1">
     <g id="line2d_21">
      <path clip-path="url(#p3b67c14e79)" d="M 117.09 425.354765 
L 843.048 425.354765 
" style="fill:none;stroke:#b0b0b0;stroke-linecap:square;stroke-width:0.8;"/>
     </g>
     <g id="line2d_22">
      <defs>
       <path d="M 0 0 
L -3.5 0 
" id="m154a3fef64" style="stroke:#000000;stroke-width:0.8;"/>
      </defs>
      <g>
       <use style="stroke:#000000;stroke-width:0.8;" x="117.09" xlink:href="#m154a3fef64" y="425.354765"/>
      </g>
     </g>
     <g id="text_12">
      <!-- 0 -->
      <defs>
       <path d="M 31.78125 66.40625 
Q 24.171875 66.40625 20.328125 58.90625 
Q 16.5 51.421875 16.5 36.375 
Q 16.5 21.390625 20.328125 13.890625 
Q 24.171875 6.390625 31.78125 6.390625 
Q 39.453125 6.390625 43.28125 13.890625 
Q 47.125 21.390625 47.125 36.375 
Q 47.125 51.421875 43.28125 58.90625 
Q 39.453125 66.40625 31.78125 66.40625 
M 31.78125 74.21875 
Q 44.046875 74.21875 50.515625 64.515625 
Q 56.984375 54.828125 56.984375 36.375 
Q 56.984375 17.96875 50.515625 8.265625 
Q 44.046875 -1.421875 31.78125 -1.421875 
Q 19.53125 -1.421875 13.0625 8.265625 
Q 6.59375 17.96875 6.59375 36.375 
Q 6.59375 54.828125 13.0625 64.515625 
Q 19.53125 74.21875 31.78125 74.21875 
" id="DejaVuSans-30"/>
      </defs>
      <g transform="translate(103.7275 429.153983)scale(0.1 -0.1)">
       <use xlink:href="#DejaVuSans-30"/>
      </g>
     </g>
    </g>
    <g id="ytick_2">
     <g id="line2d_23">
      <path clip-path="url(#p3b67c14e79)" d="M 117.09 346.452888 
L 843.048 346.452888 
" style="fill:none;stroke:#b0b0b0;stroke-linecap:square;stroke-width:0.8;"/>
     </g>
     <g id="line2d_24">
      <g>
       <use style="stroke:#000000;stroke-width:0.8;" x="117.09" xlink:href="#m154a3fef64" y="346.452888"/>
      </g>
     </g>
     <g id="text_13">
      <!-- 20 -->
      <defs>
       <path d="M 19.1875 8.296875 
L 53.609375 8.296875 
L 53.609375 0 
L 7.328125 0 
L 7.328125 8.296875 
Q 12.9375 14.109375 22.625 23.890625 
Q 32.328125 33.6875 34.8125 36.53125 
Q 39.546875 41.84375 41.421875 45.53125 
Q 43.3125 49.21875 43.3125 52.78125 
Q 43.3125 58.59375 39.234375 62.25 
Q 35.15625 65.921875 28.609375 65.921875 
Q 23.96875 65.921875 18.8125 64.3125 
Q 13.671875 62.703125 7.8125 59.421875 
L 7.8125 69.390625 
Q 13.765625 71.78125 18.9375 73 
Q 24.125 74.21875 28.421875 74.21875 
Q 39.75 74.21875 46.484375 68.546875 
Q 53.21875 62.890625 53.21875 53.421875 
Q 53.21875 48.921875 51.53125 44.890625 
Q 49.859375 40.875 45.40625 35.40625 
Q 44.1875 33.984375 37.640625 27.21875 
Q 31.109375 20.453125 19.1875 8.296875 
" id="DejaVuSans-32"/>
      </defs>
      <g transform="translate(97.365 350.252106)scale(0.1 -0.1)">
       <use xlink:href="#DejaVuSans-32"/>
       <use x="63.623047" xlink:href="#DejaVuSans-30"/>
      </g>
     </g>
    </g>
    <g id="ytick_3">
     <g id="line2d_25">
      <path clip-path="url(#p3b67c14e79)" d="M 117.09 267.551011 
L 843.048 267.551011 
" style="fill:none;stroke:#b0b0b0;stroke-linecap:square;stroke-width:0.8;"/>
     </g>
     <g id="line2d_26">
      <g>
       <use style="stroke:#000000;stroke-width:0.8;" x="117.09" xlink:href="#m154a3fef64" y="267.551011"/>
      </g>
     </g>
     <g id="text_14">
      <!-- 40 -->
      <defs>
       <path d="M 37.796875 64.3125 
L 12.890625 25.390625 
L 37.796875 25.390625 
z
M 35.203125 72.90625 
L 47.609375 72.90625 
L 47.609375 25.390625 
L 58.015625 25.390625 
L 58.015625 17.1875 
L 47.609375 17.1875 
L 47.609375 0 
L 37.796875 0 
L 37.796875 17.1875 
L 4.890625 17.1875 
L 4.890625 26.703125 
z
" id="DejaVuSans-34"/>
      </defs>
      <g transform="translate(97.365 271.35023)scale(0.1 -0.1)">
       <use xlink:href="#DejaVuSans-34"/>
       <use x="63.623047" xlink:href="#DejaVuSans-30"/>
      </g>
     </g>
    </g>
    <g id="ytick_4">
     <g id="line2d_27">
      <path clip-path="url(#p3b67c14e79)" d="M 117.09 188.649134 
L 843.048 188.649134 
" style="fill:none;stroke:#b0b0b0;stroke-linecap:square;stroke-width:0.8;"/>
     </g>
     <g id="line2d_28">
      <g>
       <use style="stroke:#000000;stroke-width:0.8;" x="117.09" xlink:href="#m154a3fef64" y="188.649134"/>
      </g>
     </g>
     <g id="text_15">
      <!-- 60 -->
      <defs>
       <path d="M 33.015625 40.375 
Q 26.375 40.375 22.484375 35.828125 
Q 18.609375 31.296875 18.609375 23.390625 
Q 18.609375 15.53125 22.484375 10.953125 
Q 26.375 6.390625 33.015625 6.390625 
Q 39.65625 6.390625 43.53125 10.953125 
Q 47.40625 15.53125 47.40625 23.390625 
Q 47.40625 31.296875 43.53125 35.828125 
Q 39.65625 40.375 33.015625 40.375 
M 52.59375 71.296875 
L 52.59375 62.3125 
Q 48.875 64.0625 45.09375 64.984375 
Q 41.3125 65.921875 37.59375 65.921875 
Q 27.828125 65.921875 22.671875 59.328125 
Q 17.53125 52.734375 16.796875 39.40625 
Q 19.671875 43.65625 24.015625 45.921875 
Q 28.375 48.1875 33.59375 48.1875 
Q 44.578125 48.1875 50.953125 41.515625 
Q 57.328125 34.859375 57.328125 23.390625 
Q 57.328125 12.15625 50.6875 5.359375 
Q 44.046875 -1.421875 33.015625 -1.421875 
Q 20.359375 -1.421875 13.671875 8.265625 
Q 6.984375 17.96875 6.984375 36.375 
Q 6.984375 53.65625 15.1875 63.9375 
Q 23.390625 74.21875 37.203125 74.21875 
Q 40.921875 74.21875 44.703125 73.484375 
Q 48.484375 72.75 52.59375 71.296875 
" id="DejaVuSans-36"/>
      </defs>
      <g transform="translate(97.365 192.448353)scale(0.1 -0.1)">
       <use xlink:href="#DejaVuSans-36"/>
       <use x="63.623047" xlink:href="#DejaVuSans-30"/>
      </g>
     </g>
    </g>
    <g id="ytick_5">
     <g id="line2d_29">
      <path clip-path="url(#p3b67c14e79)" d="M 117.09 109.747257 
L 843.048 109.747257 
" style="fill:none;stroke:#b0b0b0;stroke-linecap:square;stroke-width:0.8;"/>
     </g>
     <g id="line2d_30">
      <g>
       <use style="stroke:#000000;stroke-width:0.8;" x="117.09" xlink:href="#m154a3fef64" y="109.747257"/>
      </g>
     </g>
     <g id="text_16">
      <!-- 80 -->
      <defs>
       <path d="M 31.78125 34.625 
Q 24.75 34.625 20.71875 30.859375 
Q 16.703125 27.09375 16.703125 20.515625 
Q 16.703125 13.921875 20.71875 10.15625 
Q 24.75 6.390625 31.78125 6.390625 
Q 38.8125 6.390625 42.859375 10.171875 
Q 46.921875 13.96875 46.921875 20.515625 
Q 46.921875 27.09375 42.890625 30.859375 
Q 38.875 34.625 31.78125 34.625 
M 21.921875 38.8125 
Q 15.578125 40.375 12.03125 44.71875 
Q 8.5 49.078125 8.5 55.328125 
Q 8.5 64.0625 14.71875 69.140625 
Q 20.953125 74.21875 31.78125 74.21875 
Q 42.671875 74.21875 48.875 69.140625 
Q 55.078125 64.0625 55.078125 55.328125 
Q 55.078125 49.078125 51.53125 44.71875 
Q 48 40.375 41.703125 38.8125 
Q 48.828125 37.15625 52.796875 32.3125 
Q 56.78125 27.484375 56.78125 20.515625 
Q 56.78125 9.90625 50.3125 4.234375 
Q 43.84375 -1.421875 31.78125 -1.421875 
Q 19.734375 -1.421875 13.25 4.234375 
Q 6.78125 9.90625 6.78125 20.515625 
Q 6.78125 27.484375 10.78125 32.3125 
Q 14.796875 37.15625 21.921875 38.8125 
M 18.3125 54.390625 
Q 18.3125 48.734375 21.84375 45.5625 
Q 25.390625 42.390625 31.78125 42.390625 
Q 38.140625 42.390625 41.71875 45.5625 
Q 45.3125 48.734375 45.3125 54.390625 
Q 45.3125 60.0625 41.71875 63.234375 
Q 38.140625 66.40625 31.78125 66.40625 
Q 25.390625 66.40625 21.84375 63.234375 
Q 18.3125 60.0625 18.3125 54.390625 
" id="DejaVuSans-38"/>
      </defs>
      <g transform="translate(97.365 113.546476)scale(0.1 -0.1)">
       <use xlink:href="#DejaVuSans-38"/>
       <use x="63.623047" xlink:href="#DejaVuSans-30"/>
      </g>
     </g>
    </g>
    <g id="text_17">
     <!-- Mean number of on server -->
     <defs>
      <path d="M 9.8125 72.90625 
L 24.515625 72.90625 
L 43.109375 23.296875 
L 61.8125 72.90625 
L 76.515625 72.90625 
L 76.515625 0 
L 66.890625 0 
L 66.890625 64.015625 
L 48.09375 14.015625 
L 38.1875 14.015625 
L 19.390625 64.015625 
L 19.390625 0 
L 9.8125 0 
z
" id="DejaVuSans-4d"/>
      <path d="M 54.890625 33.015625 
L 54.890625 0 
L 45.90625 0 
L 45.90625 32.71875 
Q 45.90625 40.484375 42.875 44.328125 
Q 39.84375 48.1875 33.796875 48.1875 
Q 26.515625 48.1875 22.3125 43.546875 
Q 18.109375 38.921875 18.109375 30.90625 
L 18.109375 0 
L 9.078125 0 
L 9.078125 54.6875 
L 18.109375 54.6875 
L 18.109375 46.1875 
Q 21.34375 51.125 25.703125 53.5625 
Q 30.078125 56 35.796875 56 
Q 45.21875 56 50.046875 50.171875 
Q 54.890625 44.34375 54.890625 33.015625 
" id="DejaVuSans-6e"/>
      <path d="M 8.5 21.578125 
L 8.5 54.6875 
L 17.484375 54.6875 
L 17.484375 21.921875 
Q 17.484375 14.15625 20.5 10.265625 
Q 23.53125 6.390625 29.59375 6.390625 
Q 36.859375 6.390625 41.078125 11.03125 
Q 45.3125 15.671875 45.3125 23.6875 
L 45.3125 54.6875 
L 54.296875 54.6875 
L 54.296875 0 
L 45.3125 0 
L 45.3125 8.40625 
Q 42.046875 3.421875 37.71875 1 
Q 33.40625 -1.421875 27.6875 -1.421875 
Q 18.265625 -1.421875 13.375 4.4375 
Q 8.5 10.296875 8.5 21.578125 
M 31.109375 56 
z
" id="DejaVuSans-75"/>
      <path d="M 52 44.1875 
Q 55.375 50.25 60.0625 53.125 
Q 64.75 56 71.09375 56 
Q 79.640625 56 84.28125 50.015625 
Q 88.921875 44.046875 88.921875 33.015625 
L 88.921875 0 
L 79.890625 0 
L 79.890625 32.71875 
Q 79.890625 40.578125 77.09375 44.375 
Q 74.3125 48.1875 68.609375 48.1875 
Q 61.625 48.1875 57.5625 43.546875 
Q 53.515625 38.921875 53.515625 30.90625 
L 53.515625 0 
L 44.484375 0 
L 44.484375 32.71875 
Q 44.484375 40.625 41.703125 44.40625 
Q 38.921875 48.1875 33.109375 48.1875 
Q 26.21875 48.1875 22.15625 43.53125 
Q 18.109375 38.875 18.109375 30.90625 
L 18.109375 0 
L 9.078125 0 
L 9.078125 54.6875 
L 18.109375 54.6875 
L 18.109375 46.1875 
Q 21.1875 51.21875 25.484375 53.609375 
Q 29.78125 56 35.6875 56 
Q 41.65625 56 45.828125 52.96875 
Q 50 49.953125 52 44.1875 
" id="DejaVuSans-6d"/>
      <path d="M 48.6875 27.296875 
Q 48.6875 37.203125 44.609375 42.84375 
Q 40.53125 48.484375 33.40625 48.484375 
Q 26.265625 48.484375 22.1875 42.84375 
Q 18.109375 37.203125 18.109375 27.296875 
Q 18.109375 17.390625 22.1875 11.75 
Q 26.265625 6.109375 33.40625 6.109375 
Q 40.53125 6.109375 44.609375 11.75 
Q 48.6875 17.390625 48.6875 27.296875 
M 18.109375 46.390625 
Q 20.953125 51.265625 25.265625 53.625 
Q 29.59375 56 35.59375 56 
Q 45.5625 56 51.78125 48.09375 
Q 58.015625 40.1875 58.015625 27.296875 
Q 58.015625 14.40625 51.78125 6.484375 
Q 45.5625 -1.421875 35.59375 -1.421875 
Q 29.59375 -1.421875 25.265625 0.953125 
Q 20.953125 3.328125 18.109375 8.203125 
L 18.109375 0 
L 9.078125 0 
L 9.078125 75.984375 
L 18.109375 75.984375 
z
" id="DejaVuSans-62"/>
      <path d="M 30.609375 48.390625 
Q 23.390625 48.390625 19.1875 42.75 
Q 14.984375 37.109375 14.984375 27.296875 
Q 14.984375 17.484375 19.15625 11.84375 
Q 23.34375 6.203125 30.609375 6.203125 
Q 37.796875 6.203125 41.984375 11.859375 
Q 46.1875 17.53125 46.1875 27.296875 
Q 46.1875 37.015625 41.984375 42.703125 
Q 37.796875 48.390625 30.609375 48.390625 
M 30.609375 56 
Q 42.328125 56 49.015625 48.375 
Q 55.71875 40.765625 55.71875 27.296875 
Q 55.71875 13.875 49.015625 6.21875 
Q 42.328125 -1.421875 30.609375 -1.421875 
Q 18.84375 -1.421875 12.171875 6.21875 
Q 5.515625 13.875 5.515625 27.296875 
Q 5.515625 40.765625 12.171875 48.375 
Q 18.84375 56 30.609375 56 
" id="DejaVuSans-6f"/>
      <path d="M 37.109375 75.984375 
L 37.109375 68.5 
L 28.515625 68.5 
Q 23.6875 68.5 21.796875 66.546875 
Q 19.921875 64.59375 19.921875 59.515625 
L 19.921875 54.6875 
L 34.71875 54.6875 
L 34.71875 47.703125 
L 19.921875 47.703125 
L 19.921875 0 
L 10.890625 0 
L 10.890625 47.703125 
L 2.296875 47.703125 
L 2.296875 54.6875 
L 10.890625 54.6875 
L 10.890625 58.5 
Q 10.890625 67.625 15.140625 71.796875 
Q 19.390625 75.984375 28.609375 75.984375 
z
" id="DejaVuSans-66"/>
      <path d="M 44.28125 53.078125 
L 44.28125 44.578125 
Q 40.484375 46.53125 36.375 47.5 
Q 32.28125 48.484375 27.875 48.484375 
Q 21.1875 48.484375 17.84375 46.4375 
Q 14.5 44.390625 14.5 40.28125 
Q 14.5 37.15625 16.890625 35.375 
Q 19.28125 33.59375 26.515625 31.984375 
L 29.59375 31.296875 
Q 39.15625 29.25 43.1875 25.515625 
Q 47.21875 21.78125 47.21875 15.09375 
Q 47.21875 7.46875 41.1875 3.015625 
Q 35.15625 -1.421875 24.609375 -1.421875 
Q 20.21875 -1.421875 15.453125 -0.5625 
Q 10.6875 0.296875 5.421875 2 
L 5.421875 11.28125 
Q 10.40625 8.6875 15.234375 7.390625 
Q 20.0625 6.109375 24.8125 6.109375 
Q 31.15625 6.109375 34.5625 8.28125 
Q 37.984375 10.453125 37.984375 14.40625 
Q 37.984375 18.0625 35.515625 20.015625 
Q 33.0625 21.96875 24.703125 23.78125 
L 21.578125 24.515625 
Q 13.234375 26.265625 9.515625 29.90625 
Q 5.8125 33.546875 5.8125 39.890625 
Q 5.8125 47.609375 11.28125 51.796875 
Q 16.75 56 26.8125 56 
Q 31.78125 56 36.171875 55.265625 
Q 40.578125 54.546875 44.28125 53.078125 
" id="DejaVuSans-73"/>
     </defs>
     <g transform="translate(91.285313 311.435931)rotate(-90)scale(0.1 -0.1)">
      <use xlink:href="#DejaVuSans-4d"/>
      <use x="86.279297" xlink:href="#DejaVuSans-65"/>
      <use x="147.802734" xlink:href="#DejaVuSans-61"/>
      <use x="209.082031" xlink:href="#DejaVuSans-6e"/>
      <use x="272.460938" xlink:href="#DejaVuSans-20"/>
      <use x="304.248047" xlink:href="#DejaVuSans-6e"/>
      <use x="367.626953" xlink:href="#DejaVuSans-75"/>
      <use x="431.005859" xlink:href="#DejaVuSans-6d"/>
      <use x="528.417969" xlink:href="#DejaVuSans-62"/>
      <use x="591.894531" xlink:href="#DejaVuSans-65"/>
      <use x="653.417969" xlink:href="#DejaVuSans-72"/>
      <use x="694.53125" xlink:href="#DejaVuSans-20"/>
      <use x="726.318359" xlink:href="#DejaVuSans-6f"/>
      <use x="787.5" xlink:href="#DejaVuSans-66"/>
      <use x="822.705078" xlink:href="#DejaVuSans-20"/>
      <use x="854.492188" xlink:href="#DejaVuSans-6f"/>
      <use x="915.673828" xlink:href="#DejaVuSans-6e"/>
      <use x="979.052734" xlink:href="#DejaVuSans-20"/>
      <use x="1010.839844" xlink:href="#DejaVuSans-73"/>
      <use x="1062.939453" xlink:href="#DejaVuSans-65"/>
      <use x="1124.462891" xlink:href="#DejaVuSans-72"/>
      <use x="1165.576172" xlink:href="#DejaVuSans-76"/>
      <use x="1224.755859" xlink:href="#DejaVuSans-65"/>
      <use x="1286.279297" xlink:href="#DejaVuSans-72"/>
     </g>
    </g>
   </g>
   <g id="line2d_31">
    <path clip-path="url(#p3b67c14e79)" d="M 150.088091 409.47166 
L 184.822923 391.620523 
L 219.557756 373.318458 
L 254.292589 355.389475 
L 289.027421 337.787574 
L 323.762254 320.33455 
L 358.497086 303.24683 
L 393.231919 286.07657 
L 427.966751 268.94343 
L 462.701584 252.418518 
L 497.436416 235.553775 
L 532.171249 219.264802 
L 566.906081 203.555816 
L 601.640914 188.689009 
L 636.375746 174.253729 
L 671.110579 161.344953 
L 705.845411 149.3884 
L 740.580244 138.775229 
L 775.315077 130.195937 
L 810.049909 122.126759 
" style="fill:none;stroke:#ff0000;stroke-linecap:square;stroke-width:1.5;"/>
    <defs>
     <path d="M 0 2.5 
C 0.663008 2.5 1.29895 2.236584 1.767767 1.767767 
C 2.236584 1.29895 2.5 0.663008 2.5 0 
C 2.5 -0.663008 2.236584 -1.29895 1.767767 -1.767767 
C 1.29895 -2.236584 0.663008 -2.5 0 -2.5 
C -0.663008 -2.5 -1.29895 -2.236584 -1.767767 -1.767767 
C -2.236584 -1.29895 -2.5 -0.663008 -2.5 0 
C -2.5 0.663008 -2.236584 1.29895 -1.767767 1.767767 
C -1.29895 2.236584 -0.663008 2.5 0 2.5 
z
" id="mbc35004dd7" style="stroke:#ff0000;"/>
    </defs>
    <g clip-path="url(#p3b67c14e79)">
     <use style="fill:#ff0000;stroke:#ff0000;" x="150.088091" xlink:href="#mbc35004dd7" y="409.47166"/>
     <use style="fill:#ff0000;stroke:#ff0000;" x="184.822923" xlink:href="#mbc35004dd7" y="391.620523"/>
     <use style="fill:#ff0000;stroke:#ff0000;" x="219.557756" xlink:href="#mbc35004dd7" y="373.318458"/>
     <use style="fill:#ff0000;stroke:#ff0000;" x="254.292589" xlink:href="#mbc35004dd7" y="355.389475"/>
     <use style="fill:#ff0000;stroke:#ff0000;" x="289.027421" xlink:href="#mbc35004dd7" y="337.787574"/>
     <use style="fill:#ff0000;stroke:#ff0000;" x="323.762254" xlink:href="#mbc35004dd7" y="320.33455"/>
     <use style="fill:#ff0000;stroke:#ff0000;" x="358.497086" xlink:href="#mbc35004dd7" y="303.24683"/>
     <use style="fill:#ff0000;stroke:#ff0000;" x="393.231919" xlink:href="#mbc35004dd7" y="286.07657"/>
     <use style="fill:#ff0000;stroke:#ff0000;" x="427.966751" xlink:href="#mbc35004dd7" y="268.94343"/>
     <use style="fill:#ff0000;stroke:#ff0000;" x="462.701584" xlink:href="#mbc35004dd7" y="252.418518"/>
     <use style="fill:#ff0000;stroke:#ff0000;" x="497.436416" xlink:href="#mbc35004dd7" y="235.553775"/>
     <use style="fill:#ff0000;stroke:#ff0000;" x="532.171249" xlink:href="#mbc35004dd7" y="219.264802"/>
     <use style="fill:#ff0000;stroke:#ff0000;" x="566.906081" xlink:href="#mbc35004dd7" y="203.555816"/>
     <use style="fill:#ff0000;stroke:#ff0000;" x="601.640914" xlink:href="#mbc35004dd7" y="188.689009"/>
     <use style="fill:#ff0000;stroke:#ff0000;" x="636.375746" xlink:href="#mbc35004dd7" y="174.253729"/>
     <use style="fill:#ff0000;stroke:#ff0000;" x="671.110579" xlink:href="#mbc35004dd7" y="161.344953"/>
     <use style="fill:#ff0000;stroke:#ff0000;" x="705.845411" xlink:href="#mbc35004dd7" y="149.3884"/>
     <use style="fill:#ff0000;stroke:#ff0000;" x="740.580244" xlink:href="#mbc35004dd7" y="138.775229"/>
     <use style="fill:#ff0000;stroke:#ff0000;" x="775.315077" xlink:href="#mbc35004dd7" y="130.195937"/>
     <use style="fill:#ff0000;stroke:#ff0000;" x="810.049909" xlink:href="#mbc35004dd7" y="122.126759"/>
    </g>
   </g>
   <g id="line2d_32">
    <path clip-path="url(#p3b67c14e79)" d="M 150.088091 409.457125 
L 184.822923 391.613012 
L 219.557756 373.313217 
L 254.292589 355.399537 
L 289.027421 337.791334 
L 323.762254 320.400963 
L 358.497086 302.819529 
L 393.231919 285.578469 
L 427.966751 268.462701 
L 462.701584 251.053969 
L 497.436416 233.375469 
L 532.171249 215.800716 
L 566.906081 198.508292 
L 601.640914 181.939245 
L 636.375746 165.198007 
L 671.110579 147.83212 
L 705.845411 130.815683 
L 740.580244 112.955674 
L 775.315077 94.819031 
L 810.049909 76.352878 
" style="fill:none;stroke:#ff0000;stroke-linecap:square;stroke-width:1.5;"/>
    <defs>
     <path d="M -0 2.5 
L 2.5 -2.5 
L -2.5 -2.5 
z
" id="m82a8d4d270" style="stroke:#ff0000;stroke-linejoin:miter;"/>
    </defs>
    <g clip-path="url(#p3b67c14e79)">
     <use style="fill:#ff0000;stroke:#ff0000;stroke-linejoin:miter;" x="150.088091" xlink:href="#m82a8d4d270" y="409.457125"/>
     <use style="fill:#ff0000;stroke:#ff0000;stroke-linejoin:miter;" x="184.822923" xlink:href="#m82a8d4d270" y="391.613012"/>
     <use style="fill:#ff0000;stroke:#ff0000;stroke-linejoin:miter;" x="219.557756" xlink:href="#m82a8d4d270" y="373.313217"/>
     <use style="fill:#ff0000;stroke:#ff0000;stroke-linejoin:miter;" x="254.292589" xlink:href="#m82a8d4d270" y="355.399537"/>
     <use style="fill:#ff0000;stroke:#ff0000;stroke-linejoin:miter;" x="289.027421" xlink:href="#m82a8d4d270" y="337.791334"/>
     <use style="fill:#ff0000;stroke:#ff0000;stroke-linejoin:miter;" x="323.762254" xlink:href="#m82a8d4d270" y="320.400963"/>
     <use style="fill:#ff0000;stroke:#ff0000;stroke-linejoin:miter;" x="358.497086" xlink:href="#m82a8d4d270" y="302.819529"/>
     <use style="fill:#ff0000;stroke:#ff0000;stroke-linejoin:miter;" x="393.231919" xlink:href="#m82a8d4d270" y="285.578469"/>
     <use style="fill:#ff0000;stroke:#ff0000;stroke-linejoin:miter;" x="427.966751" xlink:href="#m82a8d4d270" y="268.462701"/>
     <use style="fill:#ff0000;stroke:#ff0000;stroke-linejoin:miter;" x="462.701584" xlink:href="#m82a8d4d270" y="251.053969"/>
     <use style="fill:#ff0000;stroke:#ff0000;stroke-linejoin:miter;" x="497.436416" xlink:href="#m82a8d4d270" y="233.375469"/>
     <use style="fill:#ff0000;stroke:#ff0000;stroke-linejoin:miter;" x="532.171249" xlink:href="#m82a8d4d270" y="215.800716"/>
     <use style="fill:#ff0000;stroke:#ff0000;stroke-linejoin:miter;" x="566.906081" xlink:href="#m82a8d4d270" y="198.508292"/>
     <use style="fill:#ff0000;stroke:#ff0000;stroke-linejoin:miter;" x="601.640914" xlink:href="#m82a8d4d270" y="181.939245"/>
     <use style="fill:#ff0000;stroke:#ff0000;stroke-linejoin:miter;" x="636.375746" xlink:href="#m82a8d4d270" y="165.198007"/>
     <use style="fill:#ff0000;stroke:#ff0000;stroke-linejoin:miter;" x="671.110579" xlink:href="#m82a8d4d270" y="147.83212"/>
     <use style="fill:#ff0000;stroke:#ff0000;stroke-linejoin:miter;" x="705.845411" xlink:href="#m82a8d4d270" y="130.815683"/>
     <use style="fill:#ff0000;stroke:#ff0000;stroke-linejoin:miter;" x="740.580244" xlink:href="#m82a8d4d270" y="112.955674"/>
     <use style="fill:#ff0000;stroke:#ff0000;stroke-linejoin:miter;" x="775.315077" xlink:href="#m82a8d4d270" y="94.819031"/>
     <use style="fill:#ff0000;stroke:#ff0000;stroke-linejoin:miter;" x="810.049909" xlink:href="#m82a8d4d270" y="76.352878"/>
    </g>
   </g>
   <g id="line2d_33">
    <path clip-path="url(#p3b67c14e79)" d="M 150.088091 409.478288 
L 184.822923 391.613033 
L 219.557756 373.332285 
L 254.292589 355.327045 
L 289.027421 337.785498 
L 323.762254 320.181555 
L 358.497086 302.901198 
L 393.231919 285.695591 
L 427.966751 268.235687 
L 462.701584 250.963136 
L 497.436416 233.239165 
L 532.171249 215.512945 
L 566.906081 198.491295 
L 601.640914 182.140262 
L 636.375746 165.006767 
L 671.110579 147.889121 
L 705.845411 130.51858 
L 740.580244 112.377012 
L 775.315077 94.27279 
L 810.049909 75.996908 
" style="fill:none;stroke:#ff0000;stroke-linecap:square;stroke-width:1.5;"/>
    <defs>
     <path d="M -2.5 2.5 
L 2.5 -2.5 
M -2.5 -2.5 
L 2.5 2.5 
" id="mf1d9d94b99" style="stroke:#ff0000;"/>
    </defs>
    <g clip-path="url(#p3b67c14e79)">
     <use style="fill:#ff0000;stroke:#ff0000;" x="150.088091" xlink:href="#mf1d9d94b99" y="409.478288"/>
     <use style="fill:#ff0000;stroke:#ff0000;" x="184.822923" xlink:href="#mf1d9d94b99" y="391.613033"/>
     <use style="fill:#ff0000;stroke:#ff0000;" x="219.557756" xlink:href="#mf1d9d94b99" y="373.332285"/>
     <use style="fill:#ff0000;stroke:#ff0000;" x="254.292589" xlink:href="#mf1d9d94b99" y="355.327045"/>
     <use style="fill:#ff0000;stroke:#ff0000;" x="289.027421" xlink:href="#mf1d9d94b99" y="337.785498"/>
     <use style="fill:#ff0000;stroke:#ff0000;" x="323.762254" xlink:href="#mf1d9d94b99" y="320.181555"/>
     <use style="fill:#ff0000;stroke:#ff0000;" x="358.497086" xlink:href="#mf1d9d94b99" y="302.901198"/>
     <use style="fill:#ff0000;stroke:#ff0000;" x="393.231919" xlink:href="#mf1d9d94b99" y="285.695591"/>
     <use style="fill:#ff0000;stroke:#ff0000;" x="427.966751" xlink:href="#mf1d9d94b99" y="268.235687"/>
     <use style="fill:#ff0000;stroke:#ff0000;" x="462.701584" xlink:href="#mf1d9d94b99" y="250.963136"/>
     <use style="fill:#ff0000;stroke:#ff0000;" x="497.436416" xlink:href="#mf1d9d94b99" y="233.239165"/>
     <use style="fill:#ff0000;stroke:#ff0000;" x="532.171249" xlink:href="#mf1d9d94b99" y="215.512945"/>
     <use style="fill:#ff0000;stroke:#ff0000;" x="566.906081" xlink:href="#mf1d9d94b99" y="198.491295"/>
     <use style="fill:#ff0000;stroke:#ff0000;" x="601.640914" xlink:href="#mf1d9d94b99" y="182.140262"/>
     <use style="fill:#ff0000;stroke:#ff0000;" x="636.375746" xlink:href="#mf1d9d94b99" y="165.006767"/>
     <use style="fill:#ff0000;stroke:#ff0000;" x="671.110579" xlink:href="#mf1d9d94b99" y="147.889121"/>
     <use style="fill:#ff0000;stroke:#ff0000;" x="705.845411" xlink:href="#mf1d9d94b99" y="130.51858"/>
     <use style="fill:#ff0000;stroke:#ff0000;" x="740.580244" xlink:href="#mf1d9d94b99" y="112.377012"/>
     <use style="fill:#ff0000;stroke:#ff0000;" x="775.315077" xlink:href="#mf1d9d94b99" y="94.27279"/>
     <use style="fill:#ff0000;stroke:#ff0000;" x="810.049909" xlink:href="#mf1d9d94b99" y="75.996908"/>
    </g>
   </g>
   <g id="line2d_34">
    <path clip-path="url(#p3b67c14e79)" d="M 150.088091 414.831048 
L 184.822923 399.453047 
L 219.557756 383.220039 
L 254.292589 366.287712 
L 289.027421 349.448372 
L 323.762254 332.022323 
L 358.497086 314.677417 
L 393.231919 297.228986 
L 427.966751 279.888924 
L 462.701584 262.447227 
L 497.436416 245.704341 
L 532.171249 228.621615 
L 566.906081 212.413613 
L 601.640914 197.221828 
L 636.375746 183.325598 
L 671.110579 170.228568 
L 705.845411 158.414563 
L 740.580244 148.246883 
L 775.315077 138.949569 
L 810.049909 130.903379 
" style="fill:none;stroke:#0000ff;stroke-linecap:square;stroke-width:1.5;"/>
    <defs>
     <path d="M 0 2.5 
C 0.663008 2.5 1.29895 2.236584 1.767767 1.767767 
C 2.236584 1.29895 2.5 0.663008 2.5 0 
C 2.5 -0.663008 2.236584 -1.29895 1.767767 -1.767767 
C 1.29895 -2.236584 0.663008 -2.5 0 -2.5 
C -0.663008 -2.5 -1.29895 -2.236584 -1.767767 -1.767767 
C -2.236584 -1.29895 -2.5 -0.663008 -2.5 0 
C -2.5 0.663008 -2.236584 1.29895 -1.767767 1.767767 
C -1.29895 2.236584 -0.663008 2.5 0 2.5 
z
" id="mb80a158680" style="stroke:#0000ff;"/>
    </defs>
    <g clip-path="url(#p3b67c14e79)">
     <use style="fill:#0000ff;stroke:#0000ff;" x="150.088091" xlink:href="#mb80a158680" y="414.831048"/>
     <use style="fill:#0000ff;stroke:#0000ff;" x="184.822923" xlink:href="#mb80a158680" y="399.453047"/>
     <use style="fill:#0000ff;stroke:#0000ff;" x="219.557756" xlink:href="#mb80a158680" y="383.220039"/>
     <use style="fill:#0000ff;stroke:#0000ff;" x="254.292589" xlink:href="#mb80a158680" y="366.287712"/>
     <use style="fill:#0000ff;stroke:#0000ff;" x="289.027421" xlink:href="#mb80a158680" y="349.448372"/>
     <use style="fill:#0000ff;stroke:#0000ff;" x="323.762254" xlink:href="#mb80a158680" y="332.022323"/>
     <use style="fill:#0000ff;stroke:#0000ff;" x="358.497086" xlink:href="#mb80a158680" y="314.677417"/>
     <use style="fill:#0000ff;stroke:#0000ff;" x="393.231919" xlink:href="#mb80a158680" y="297.228986"/>
     <use style="fill:#0000ff;stroke:#0000ff;" x="427.966751" xlink:href="#mb80a158680" y="279.888924"/>
     <use style="fill:#0000ff;stroke:#0000ff;" x="462.701584" xlink:href="#mb80a158680" y="262.447227"/>
     <use style="fill:#0000ff;stroke:#0000ff;" x="497.436416" xlink:href="#mb80a158680" y="245.704341"/>
     <use style="fill:#0000ff;stroke:#0000ff;" x="532.171249" xlink:href="#mb80a158680" y="228.621615"/>
     <use style="fill:#0000ff;stroke:#0000ff;" x="566.906081" xlink:href="#mb80a158680" y="212.413613"/>
     <use style="fill:#0000ff;stroke:#0000ff;" x="601.640914" xlink:href="#mb80a158680" y="197.221828"/>
     <use style="fill:#0000ff;stroke:#0000ff;" x="636.375746" xlink:href="#mb80a158680" y="183.325598"/>
     <use style="fill:#0000ff;stroke:#0000ff;" x="671.110579" xlink:href="#mb80a158680" y="170.228568"/>
     <use style="fill:#0000ff;stroke:#0000ff;" x="705.845411" xlink:href="#mb80a158680" y="158.414563"/>
     <use style="fill:#0000ff;stroke:#0000ff;" x="740.580244" xlink:href="#mb80a158680" y="148.246883"/>
     <use style="fill:#0000ff;stroke:#0000ff;" x="775.315077" xlink:href="#mb80a158680" y="138.949569"/>
     <use style="fill:#0000ff;stroke:#0000ff;" x="810.049909" xlink:href="#mb80a158680" y="130.903379"/>
    </g>
   </g>
   <g id="line2d_35">
    <path clip-path="url(#p3b67c14e79)" d="M 150.088091 414.831113 
L 184.822923 399.437722 
L 219.557756 383.210894 
L 254.292589 366.21558 
L 289.027421 349.169575 
L 323.762254 331.583315 
L 358.497086 313.875275 
L 393.231919 295.948812 
L 427.966751 278.222232 
L 462.701584 260.469179 
L 497.436416 242.282759 
L 532.171249 224.201465 
L 566.906081 206.095753 
L 601.640914 187.959626 
L 636.375746 169.520555 
L 671.110579 151.039782 
L 705.845411 133.239951 
L 740.580244 114.090708 
L 775.315077 95.860338 
L 810.049909 76.520115 
" style="fill:none;stroke:#0000ff;stroke-linecap:square;stroke-width:1.5;"/>
    <defs>
     <path d="M -0 2.5 
L 2.5 -2.5 
L -2.5 -2.5 
z
" id="m9b24f58cdb" style="stroke:#0000ff;stroke-linejoin:miter;"/>
    </defs>
    <g clip-path="url(#p3b67c14e79)">
     <use style="fill:#0000ff;stroke:#0000ff;stroke-linejoin:miter;" x="150.088091" xlink:href="#m9b24f58cdb" y="414.831113"/>
     <use style="fill:#0000ff;stroke:#0000ff;stroke-linejoin:miter;" x="184.822923" xlink:href="#m9b24f58cdb" y="399.437722"/>
     <use style="fill:#0000ff;stroke:#0000ff;stroke-linejoin:miter;" x="219.557756" xlink:href="#m9b24f58cdb" y="383.210894"/>
     <use style="fill:#0000ff;stroke:#0000ff;stroke-linejoin:miter;" x="254.292589" xlink:href="#m9b24f58cdb" y="366.21558"/>
     <use style="fill:#0000ff;stroke:#0000ff;stroke-linejoin:miter;" x="289.027421" xlink:href="#m9b24f58cdb" y="349.169575"/>
     <use style="fill:#0000ff;stroke:#0000ff;stroke-linejoin:miter;" x="323.762254" xlink:href="#m9b24f58cdb" y="331.583315"/>
     <use style="fill:#0000ff;stroke:#0000ff;stroke-linejoin:miter;" x="358.497086" xlink:href="#m9b24f58cdb" y="313.875275"/>
     <use style="fill:#0000ff;stroke:#0000ff;stroke-linejoin:miter;" x="393.231919" xlink:href="#m9b24f58cdb" y="295.948812"/>
     <use style="fill:#0000ff;stroke:#0000ff;stroke-linejoin:miter;" x="427.966751" xlink:href="#m9b24f58cdb" y="278.222232"/>
     <use style="fill:#0000ff;stroke:#0000ff;stroke-linejoin:miter;" x="462.701584" xlink:href="#m9b24f58cdb" y="260.469179"/>
     <use style="fill:#0000ff;stroke:#0000ff;stroke-linejoin:miter;" x="497.436416" xlink:href="#m9b24f58cdb" y="242.282759"/>
     <use style="fill:#0000ff;stroke:#0000ff;stroke-linejoin:miter;" x="532.171249" xlink:href="#m9b24f58cdb" y="224.201465"/>
     <use style="fill:#0000ff;stroke:#0000ff;stroke-linejoin:miter;" x="566.906081" xlink:href="#m9b24f58cdb" y="206.095753"/>
     <use style="fill:#0000ff;stroke:#0000ff;stroke-linejoin:miter;" x="601.640914" xlink:href="#m9b24f58cdb" y="187.959626"/>
     <use style="fill:#0000ff;stroke:#0000ff;stroke-linejoin:miter;" x="636.375746" xlink:href="#m9b24f58cdb" y="169.520555"/>
     <use style="fill:#0000ff;stroke:#0000ff;stroke-linejoin:miter;" x="671.110579" xlink:href="#m9b24f58cdb" y="151.039782"/>
     <use style="fill:#0000ff;stroke:#0000ff;stroke-linejoin:miter;" x="705.845411" xlink:href="#m9b24f58cdb" y="133.239951"/>
     <use style="fill:#0000ff;stroke:#0000ff;stroke-linejoin:miter;" x="740.580244" xlink:href="#m9b24f58cdb" y="114.090708"/>
     <use style="fill:#0000ff;stroke:#0000ff;stroke-linejoin:miter;" x="775.315077" xlink:href="#m9b24f58cdb" y="95.860338"/>
     <use style="fill:#0000ff;stroke:#0000ff;stroke-linejoin:miter;" x="810.049909" xlink:href="#m9b24f58cdb" y="76.520115"/>
    </g>
   </g>
   <g id="line2d_36">
    <path clip-path="url(#p3b67c14e79)" d="M 150.088091 414.9144 
L 184.822923 399.585043 
L 219.557756 383.025617 
L 254.292589 366.303964 
L 289.027421 348.972563 
L 323.762254 331.445527 
L 358.497086 313.77452 
L 393.231919 296.047737 
L 427.966751 278.248814 
L 462.701584 260.050927 
L 497.436416 242.261587 
L 532.171249 224.047687 
L 566.906081 205.781542 
L 601.640914 187.492761 
L 636.375746 168.873263 
L 671.110579 150.504506 
L 705.845411 132.388199 
L 740.580244 113.634211 
L 775.315077 94.32525 
L 810.049909 75.2184 
" style="fill:none;stroke:#0000ff;stroke-linecap:square;stroke-width:1.5;"/>
    <defs>
     <path d="M -2.5 2.5 
L 2.5 -2.5 
M -2.5 -2.5 
L 2.5 2.5 
" id="mc4d713ec72" style="stroke:#0000ff;"/>
    </defs>
    <g clip-path="url(#p3b67c14e79)">
     <use style="fill:#0000ff;stroke:#0000ff;" x="150.088091" xlink:href="#mc4d713ec72" y="414.9144"/>
     <use style="fill:#0000ff;stroke:#0000ff;" x="184.822923" xlink:href="#mc4d713ec72" y="399.585043"/>
     <use style="fill:#0000ff;stroke:#0000ff;" x="219.557756" xlink:href="#mc4d713ec72" y="383.025617"/>
     <use style="fill:#0000ff;stroke:#0000ff;" x="254.292589" xlink:href="#mc4d713ec72" y="366.303964"/>
     <use style="fill:#0000ff;stroke:#0000ff;" x="289.027421" xlink:href="#mc4d713ec72" y="348.972563"/>
     <use style="fill:#0000ff;stroke:#0000ff;" x="323.762254" xlink:href="#mc4d713ec72" y="331.445527"/>
     <use style="fill:#0000ff;stroke:#0000ff;" x="358.497086" xlink:href="#mc4d713ec72" y="313.77452"/>
     <use style="fill:#0000ff;stroke:#0000ff;" x="393.231919" xlink:href="#mc4d713ec72" y="296.047737"/>
     <use style="fill:#0000ff;stroke:#0000ff;" x="427.966751" xlink:href="#mc4d713ec72" y="278.248814"/>
     <use style="fill:#0000ff;stroke:#0000ff;" x="462.701584" xlink:href="#mc4d713ec72" y="260.050927"/>
     <use style="fill:#0000ff;stroke:#0000ff;" x="497.436416" xlink:href="#mc4d713ec72" y="242.261587"/>
     <use style="fill:#0000ff;stroke:#0000ff;" x="532.171249" xlink:href="#mc4d713ec72" y="224.047687"/>
     <use style="fill:#0000ff;stroke:#0000ff;" x="566.906081" xlink:href="#mc4d713ec72" y="205.781542"/>
     <use style="fill:#0000ff;stroke:#0000ff;" x="601.640914" xlink:href="#mc4d713ec72" y="187.492761"/>
     <use style="fill:#0000ff;stroke:#0000ff;" x="636.375746" xlink:href="#mc4d713ec72" y="168.873263"/>
     <use style="fill:#0000ff;stroke:#0000ff;" x="671.110579" xlink:href="#mc4d713ec72" y="150.504506"/>
     <use style="fill:#0000ff;stroke:#0000ff;" x="705.845411" xlink:href="#mc4d713ec72" y="132.388199"/>
     <use style="fill:#0000ff;stroke:#0000ff;" x="740.580244" xlink:href="#mc4d713ec72" y="113.634211"/>
     <use style="fill:#0000ff;stroke:#0000ff;" x="775.315077" xlink:href="#mc4d713ec72" y="94.32525"/>
     <use style="fill:#0000ff;stroke:#0000ff;" x="810.049909" xlink:href="#mc4d713ec72" y="75.2184"/>
    </g>
   </g>
   <g id="patch_3">
    <path d="M 117.09 431.8992 
L 117.09 58.2336 
" style="fill:none;stroke:#000000;stroke-linecap:square;stroke-linejoin:miter;stroke-width:0.8;"/>
   </g>
   <g id="patch_4">
    <path d="M 843.048 431.8992 
L 843.048 58.2336 
" style="fill:none;stroke:#000000;stroke-linecap:square;stroke-linejoin:miter;stroke-width:0.8;"/>
   </g>
   <g id="patch_5">
    <path d="M 117.09 431.8992 
L 843.048 431.8992 
" style="fill:none;stroke:#000000;stroke-linecap:square;stroke-linejoin:miter;stroke-width:0.8;"/>
   </g>
   <g id="patch_6">
    <path d="M 117.09 58.2336 
L 843.048 58.2336 
" style="fill:none;stroke:#000000;stroke-linecap:square;stroke-linejoin:miter;stroke-width:0.8;"/>
   </g>
   <g id="legend_1">
    <g id="patch_7">
     <path d="M 128.29 211.9436 
L 345.5775 211.9436 
Q 348.7775 211.9436 348.7775 208.7436 
L 348.7775 69.4336 
Q 348.7775 66.2336 345.5775 66.2336 
L 128.29 66.2336 
Q 125.09 66.2336 125.09 69.4336 
L 125.09 208.7436 
Q 125.09 211.9436 128.29 211.9436 
z
" style="fill:#ffffff;opacity:0.8;stroke:#cccccc;stroke-linejoin:miter;"/>
    </g>
    <g id="line2d_37">
     <path d="M 131.49 79.1911 
L 163.49 79.1911 
" style="fill:none;stroke:#ff0000;stroke-linecap:square;stroke-width:1.5;"/>
    </g>
    <g id="line2d_38">
     <defs>
      <path d="M 0 5 
C 1.326016 5 2.597899 4.473168 3.535534 3.535534 
C 4.473168 2.597899 5 1.326016 5 0 
C 5 -1.326016 4.473168 -2.597899 3.535534 -3.535534 
C 2.597899 -4.473168 1.326016 -5 0 -5 
C -1.326016 -5 -2.597899 -4.473168 -3.535534 -3.535534 
C -4.473168 -2.597899 -5 -1.326016 -5 0 
C -5 1.326016 -4.473168 2.597899 -3.535534 3.535534 
C -2.597899 4.473168 -1.326016 5 0 5 
z
" id="mff16bff849" style="stroke:#ff0000;"/>
     </defs>
     <g>
      <use style="fill:#ff0000;stroke:#ff0000;" x="147.49" xlink:href="#mff16bff849" y="79.1911"/>
     </g>
    </g>
    <g id="text_18">
     <!-- With middle, K =100 -->
     <defs>
      <path d="M 3.328125 72.90625 
L 13.28125 72.90625 
L 28.609375 11.28125 
L 43.890625 72.90625 
L 54.984375 72.90625 
L 70.3125 11.28125 
L 85.59375 72.90625 
L 95.609375 72.90625 
L 77.296875 0 
L 64.890625 0 
L 49.515625 63.28125 
L 33.984375 0 
L 21.578125 0 
z
" id="DejaVuSans-57"/>
      <path d="M 54.890625 33.015625 
L 54.890625 0 
L 45.90625 0 
L 45.90625 32.71875 
Q 45.90625 40.484375 42.875 44.328125 
Q 39.84375 48.1875 33.796875 48.1875 
Q 26.515625 48.1875 22.3125 43.546875 
Q 18.109375 38.921875 18.109375 30.90625 
L 18.109375 0 
L 9.078125 0 
L 9.078125 75.984375 
L 18.109375 75.984375 
L 18.109375 46.1875 
Q 21.34375 51.125 25.703125 53.5625 
Q 30.078125 56 35.796875 56 
Q 45.21875 56 50.046875 50.171875 
Q 54.890625 44.34375 54.890625 33.015625 
" id="DejaVuSans-68"/>
      <path d="M 45.40625 46.390625 
L 45.40625 75.984375 
L 54.390625 75.984375 
L 54.390625 0 
L 45.40625 0 
L 45.40625 8.203125 
Q 42.578125 3.328125 38.25 0.953125 
Q 33.9375 -1.421875 27.875 -1.421875 
Q 17.96875 -1.421875 11.734375 6.484375 
Q 5.515625 14.40625 5.515625 27.296875 
Q 5.515625 40.1875 11.734375 48.09375 
Q 17.96875 56 27.875 56 
Q 33.9375 56 38.25 53.625 
Q 42.578125 51.265625 45.40625 46.390625 
M 14.796875 27.296875 
Q 14.796875 17.390625 18.875 11.75 
Q 22.953125 6.109375 30.078125 6.109375 
Q 37.203125 6.109375 41.296875 11.75 
Q 45.40625 17.390625 45.40625 27.296875 
Q 45.40625 37.203125 41.296875 42.84375 
Q 37.203125 48.484375 30.078125 48.484375 
Q 22.953125 48.484375 18.875 42.84375 
Q 14.796875 37.203125 14.796875 27.296875 
" id="DejaVuSans-64"/>
      <path d="M 11.71875 12.40625 
L 22.015625 12.40625 
L 22.015625 4 
L 14.015625 -11.625 
L 7.71875 -11.625 
L 11.71875 4 
z
" id="DejaVuSans-2c"/>
      <path d="M 9.8125 72.90625 
L 19.671875 72.90625 
L 19.671875 42.09375 
L 52.390625 72.90625 
L 65.09375 72.90625 
L 28.90625 38.921875 
L 67.671875 0 
L 54.6875 0 
L 19.671875 35.109375 
L 19.671875 0 
L 9.8125 0 
z
" id="DejaVuSans-4b"/>
      <path d="M 10.59375 45.40625 
L 73.1875 45.40625 
L 73.1875 37.203125 
L 10.59375 37.203125 
z
M 10.59375 25.484375 
L 73.1875 25.484375 
L 73.1875 17.1875 
L 10.59375 17.1875 
z
" id="DejaVuSans-3d"/>
     </defs>
     <g transform="translate(176.29 84.7911)scale(0.16 -0.16)">
      <use xlink:href="#DejaVuSans-57"/>
      <use x="98.845703" xlink:href="#DejaVuSans-69"/>
      <use x="126.628906" xlink:href="#DejaVuSans-74"/>
      <use x="165.837891" xlink:href="#DejaVuSans-68"/>
      <use x="229.216797" xlink:href="#DejaVuSans-20"/>
      <use x="261.003906" xlink:href="#DejaVuSans-6d"/>
      <use x="358.416016" xlink:href="#DejaVuSans-69"/>
      <use x="386.199219" xlink:href="#DejaVuSans-64"/>
      <use x="449.675781" xlink:href="#DejaVuSans-64"/>
      <use x="513.152344" xlink:href="#DejaVuSans-6c"/>
      <use x="540.935547" xlink:href="#DejaVuSans-65"/>
      <use x="602.458984" xlink:href="#DejaVuSans-2c"/>
      <use x="634.246094" xlink:href="#DejaVuSans-20"/>
      <use x="666.033203" xlink:href="#DejaVuSans-4b"/>
      <use x="731.609375" xlink:href="#DejaVuSans-20"/>
      <use x="763.396484" xlink:href="#DejaVuSans-3d"/>
      <use x="847.185547" xlink:href="#DejaVuSans-31"/>
      <use x="910.808594" xlink:href="#DejaVuSans-30"/>
      <use x="974.431641" xlink:href="#DejaVuSans-30"/>
     </g>
    </g>
    <g id="line2d_39">
     <path d="M 131.49 102.6761 
L 163.49 102.6761 
" style="fill:none;stroke:#ff0000;stroke-linecap:square;stroke-width:1.5;"/>
    </g>
    <g id="line2d_40">
     <defs>
      <path d="M -0 5 
L 5 -5 
L -5 -5 
z
" id="m2c419516c8" style="stroke:#ff0000;stroke-linejoin:miter;"/>
     </defs>
     <g>
      <use style="fill:#ff0000;stroke:#ff0000;stroke-linejoin:miter;" x="147.49" xlink:href="#m2c419516c8" y="102.6761"/>
     </g>
    </g>
    <g id="text_19">
     <!-- With middle, K =200 -->
     <g transform="translate(176.29 108.2761)scale(0.16 -0.16)">
      <use xlink:href="#DejaVuSans-57"/>
      <use x="98.845703" xlink:href="#DejaVuSans-69"/>
      <use x="126.628906" xlink:href="#DejaVuSans-74"/>
      <use x="165.837891" xlink:href="#DejaVuSans-68"/>
      <use x="229.216797" xlink:href="#DejaVuSans-20"/>
      <use x="261.003906" xlink:href="#DejaVuSans-6d"/>
      <use x="358.416016" xlink:href="#DejaVuSans-69"/>
      <use x="386.199219" xlink:href="#DejaVuSans-64"/>
      <use x="449.675781" xlink:href="#DejaVuSans-64"/>
      <use x="513.152344" xlink:href="#DejaVuSans-6c"/>
      <use x="540.935547" xlink:href="#DejaVuSans-65"/>
      <use x="602.458984" xlink:href="#DejaVuSans-2c"/>
      <use x="634.246094" xlink:href="#DejaVuSans-20"/>
      <use x="666.033203" xlink:href="#DejaVuSans-4b"/>
      <use x="731.609375" xlink:href="#DejaVuSans-20"/>
      <use x="763.396484" xlink:href="#DejaVuSans-3d"/>
      <use x="847.185547" xlink:href="#DejaVuSans-32"/>
      <use x="910.808594" xlink:href="#DejaVuSans-30"/>
      <use x="974.431641" xlink:href="#DejaVuSans-30"/>
     </g>
    </g>
    <g id="line2d_41">
     <path d="M 131.49 126.1611 
L 163.49 126.1611 
" style="fill:none;stroke:#ff0000;stroke-linecap:square;stroke-width:1.5;"/>
    </g>
    <g id="line2d_42">
     <defs>
      <path d="M -5 5 
L 5 -5 
M -5 -5 
L 5 5 
" id="m4162e01e42" style="stroke:#ff0000;"/>
     </defs>
     <g>
      <use style="fill:#ff0000;stroke:#ff0000;" x="147.49" xlink:href="#m4162e01e42" y="126.1611"/>
     </g>
    </g>
    <g id="text_20">
     <!-- With middle, K =500 -->
     <g transform="translate(176.29 131.7611)scale(0.16 -0.16)">
      <use xlink:href="#DejaVuSans-57"/>
      <use x="98.845703" xlink:href="#DejaVuSans-69"/>
      <use x="126.628906" xlink:href="#DejaVuSans-74"/>
      <use x="165.837891" xlink:href="#DejaVuSans-68"/>
      <use x="229.216797" xlink:href="#DejaVuSans-20"/>
      <use x="261.003906" xlink:href="#DejaVuSans-6d"/>
      <use x="358.416016" xlink:href="#DejaVuSans-69"/>
      <use x="386.199219" xlink:href="#DejaVuSans-64"/>
      <use x="449.675781" xlink:href="#DejaVuSans-64"/>
      <use x="513.152344" xlink:href="#DejaVuSans-6c"/>
      <use x="540.935547" xlink:href="#DejaVuSans-65"/>
      <use x="602.458984" xlink:href="#DejaVuSans-2c"/>
      <use x="634.246094" xlink:href="#DejaVuSans-20"/>
      <use x="666.033203" xlink:href="#DejaVuSans-4b"/>
      <use x="731.609375" xlink:href="#DejaVuSans-20"/>
      <use x="763.396484" xlink:href="#DejaVuSans-3d"/>
      <use x="847.185547" xlink:href="#DejaVuSans-35"/>
      <use x="910.808594" xlink:href="#DejaVuSans-30"/>
      <use x="974.431641" xlink:href="#DejaVuSans-30"/>
     </g>
    </g>
    <g id="line2d_43">
     <path d="M 131.49 149.6461 
L 163.49 149.6461 
" style="fill:none;stroke:#0000ff;stroke-linecap:square;stroke-width:1.5;"/>
    </g>
    <g id="line2d_44">
     <defs>
      <path d="M 0 5 
C 1.326016 5 2.597899 4.473168 3.535534 3.535534 
C 4.473168 2.597899 5 1.326016 5 0 
C 5 -1.326016 4.473168 -2.597899 3.535534 -3.535534 
C 2.597899 -4.473168 1.326016 -5 0 -5 
C -1.326016 -5 -2.597899 -4.473168 -3.535534 -3.535534 
C -4.473168 -2.597899 -5 -1.326016 -5 0 
C -5 1.326016 -4.473168 2.597899 -3.535534 3.535534 
C -2.597899 4.473168 -1.326016 5 0 5 
z
" id="m79852d5c5f" style="stroke:#0000ff;"/>
     </defs>
     <g>
      <use style="fill:#0000ff;stroke:#0000ff;" x="147.49" xlink:href="#m79852d5c5f" y="149.6461"/>
     </g>
    </g>
    <g id="text_21">
     <!-- No middle, K =100 -->
     <defs>
      <path d="M 9.8125 72.90625 
L 23.09375 72.90625 
L 55.421875 11.921875 
L 55.421875 72.90625 
L 64.984375 72.90625 
L 64.984375 0 
L 51.703125 0 
L 19.390625 60.984375 
L 19.390625 0 
L 9.8125 0 
z
" id="DejaVuSans-4e"/>
     </defs>
     <g transform="translate(176.29 155.2461)scale(0.16 -0.16)">
      <use xlink:href="#DejaVuSans-4e"/>
      <use x="74.804688" xlink:href="#DejaVuSans-6f"/>
      <use x="135.986328" xlink:href="#DejaVuSans-20"/>
      <use x="167.773438" xlink:href="#DejaVuSans-6d"/>
      <use x="265.185547" xlink:href="#DejaVuSans-69"/>
      <use x="292.96875" xlink:href="#DejaVuSans-64"/>
      <use x="356.445312" xlink:href="#DejaVuSans-64"/>
      <use x="419.921875" xlink:href="#DejaVuSans-6c"/>
      <use x="447.705078" xlink:href="#DejaVuSans-65"/>
      <use x="509.228516" xlink:href="#DejaVuSans-2c"/>
      <use x="541.015625" xlink:href="#DejaVuSans-20"/>
      <use x="572.802734" xlink:href="#DejaVuSans-4b"/>
      <use x="638.378906" xlink:href="#DejaVuSans-20"/>
      <use x="670.166016" xlink:href="#DejaVuSans-3d"/>
      <use x="753.955078" xlink:href="#DejaVuSans-31"/>
      <use x="817.578125" xlink:href="#DejaVuSans-30"/>
      <use x="881.201172" xlink:href="#DejaVuSans-30"/>
     </g>
    </g>
    <g id="line2d_45">
     <path d="M 131.49 173.1311 
L 163.49 173.1311 
" style="fill:none;stroke:#0000ff;stroke-linecap:square;stroke-width:1.5;"/>
    </g>
    <g id="line2d_46">
     <defs>
      <path d="M -0 5 
L 5 -5 
L -5 -5 
z
" id="m8aaf67fb84" style="stroke:#0000ff;stroke-linejoin:miter;"/>
     </defs>
     <g>
      <use style="fill:#0000ff;stroke:#0000ff;stroke-linejoin:miter;" x="147.49" xlink:href="#m8aaf67fb84" y="173.1311"/>
     </g>
    </g>
    <g id="text_22">
     <!-- No middle, K =200 -->
     <g transform="translate(176.29 178.7311)scale(0.16 -0.16)">
      <use xlink:href="#DejaVuSans-4e"/>
      <use x="74.804688" xlink:href="#DejaVuSans-6f"/>
      <use x="135.986328" xlink:href="#DejaVuSans-20"/>
      <use x="167.773438" xlink:href="#DejaVuSans-6d"/>
      <use x="265.185547" xlink:href="#DejaVuSans-69"/>
      <use x="292.96875" xlink:href="#DejaVuSans-64"/>
      <use x="356.445312" xlink:href="#DejaVuSans-64"/>
      <use x="419.921875" xlink:href="#DejaVuSans-6c"/>
      <use x="447.705078" xlink:href="#DejaVuSans-65"/>
      <use x="509.228516" xlink:href="#DejaVuSans-2c"/>
      <use x="541.015625" xlink:href="#DejaVuSans-20"/>
      <use x="572.802734" xlink:href="#DejaVuSans-4b"/>
      <use x="638.378906" xlink:href="#DejaVuSans-20"/>
      <use x="670.166016" xlink:href="#DejaVuSans-3d"/>
      <use x="753.955078" xlink:href="#DejaVuSans-32"/>
      <use x="817.578125" xlink:href="#DejaVuSans-30"/>
      <use x="881.201172" xlink:href="#DejaVuSans-30"/>
     </g>
    </g>
    <g id="line2d_47">
     <path d="M 131.49 196.6161 
L 163.49 196.6161 
" style="fill:none;stroke:#0000ff;stroke-linecap:square;stroke-width:1.5;"/>
    </g>
    <g id="line2d_48">
     <defs>
      <path d="M -5 5 
L 5 -5 
M -5 -5 
L 5 5 
" id="m807eb23a55" style="stroke:#0000ff;"/>
     </defs>
     <g>
      <use style="fill:#0000ff;stroke:#0000ff;" x="147.49" xlink:href="#m807eb23a55" y="196.6161"/>
     </g>
    </g>
    <g id="text_23">
     <!-- No middle, K =500 -->
     <g transform="translate(176.29 202.2161)scale(0.16 -0.16)">
      <use xlink:href="#DejaVuSans-4e"/>
      <use x="74.804688" xlink:href="#DejaVuSans-6f"/>
      <use x="135.986328" xlink:href="#DejaVuSans-20"/>
      <use x="167.773438" xlink:href="#DejaVuSans-6d"/>
      <use x="265.185547" xlink:href="#DejaVuSans-69"/>
      <use x="292.96875" xlink:href="#DejaVuSans-64"/>
      <use x="356.445312" xlink:href="#DejaVuSans-64"/>
      <use x="419.921875" xlink:href="#DejaVuSans-6c"/>
      <use x="447.705078" xlink:href="#DejaVuSans-65"/>
      <use x="509.228516" xlink:href="#DejaVuSans-2c"/>
      <use x="541.015625" xlink:href="#DejaVuSans-20"/>
      <use x="572.802734" xlink:href="#DejaVuSans-4b"/>
      <use x="638.378906" xlink:href="#DejaVuSans-20"/>
      <use x="670.166016" xlink:href="#DejaVuSans-3d"/>
      <use x="753.955078" xlink:href="#DejaVuSans-35"/>
      <use x="817.578125" xlink:href="#DejaVuSans-30"/>
      <use x="881.201172" xlink:href="#DejaVuSans-30"/>
     </g>
    </g>
   </g>
  </g>
 </g>
 <defs>
  <clipPath id="p3b67c14e79">
   <rect height="373.6656" width="725.958" x="117.09" y="58.2336"/>
  </clipPath>
 </defs>
</svg>
