<?xml version="1.0" encoding="utf-8" standalone="no"?>
<!DOCTYPE svg PUBLIC "-//W3C//DTD SVG 1.1//EN"
  "http://www.w3.org/Graphics/SVG/1.1/DTD/svg11.dtd">
<!-- Created with matplotlib (http://matplotlib.org/) -->
<svg height="485pt" version="1.1" viewBox="0 0 936 485" width="936pt" xmlns="http://www.w3.org/2000/svg" xmlns:xlink="http://www.w3.org/1999/xlink">
 <defs>
  <style type="text/css">
*{stroke-linecap:butt;stroke-linejoin:round;}
  </style>
 </defs>
 <g id="figure_1">
  <g id="patch_1">
   <path d="M 0 485.28 
L 936.72 485.28 
L 936.72 0 
L 0 0 
z
" style="fill:#ffffff;"/>
  </g>
  <g id="axes_1">
   <g id="patch_2">
    <path d="M 117.09 431.8992 
L 843.048 431.8992 
L 843.048 58.2336 
L 117.09 58.2336 
z
" style="fill:#ffffff;"/>
   </g>
   <g id="matplotlib.axis_1">
    <g id="xtick_1">
     <g id="line2d_1">
      <path clip-path="url(#p22213fbe00)" d="M 150.088091 431.8992 
L 150.088091 58.2336 
" style="fill:none;stroke:#b0b0b0;stroke-linecap:square;stroke-width:0.8;"/>
     </g>
     <g id="line2d_2">
      <defs>
       <path d="M 0 0 
L 0 3.5 
" id="m257f1116dd" style="stroke:#000000;stroke-width:0.8;"/>
      </defs>
      <g>
       <use style="stroke:#000000;stroke-width:0.8;" x="150.088091" xlink:href="#m257f1116dd" y="431.8992"/>
      </g>
     </g>
     <g id="text_1">
      <!-- 1 -->
      <defs>
       <path d="M 12.40625 8.296875 
L 28.515625 8.296875 
L 28.515625 63.921875 
L 10.984375 60.40625 
L 10.984375 69.390625 
L 28.421875 72.90625 
L 38.28125 72.90625 
L 38.28125 8.296875 
L 54.390625 8.296875 
L 54.390625 0 
L 12.40625 0 
z
" id="DejaVuSans-31"/>
      </defs>
      <g transform="translate(146.906841 446.497638)scale(0.1 -0.1)">
       <use xlink:href="#DejaVuSans-31"/>
      </g>
     </g>
    </g>
    <g id="xtick_2">
     <g id="line2d_3">
      <path clip-path="url(#p22213fbe00)" d="M 219.557756 431.8992 
L 219.557756 58.2336 
" style="fill:none;stroke:#b0b0b0;stroke-linecap:square;stroke-width:0.8;"/>
     </g>
     <g id="line2d_4">
      <g>
       <use style="stroke:#000000;stroke-width:0.8;" x="219.557756" xlink:href="#m257f1116dd" y="431.8992"/>
      </g>
     </g>
     <g id="text_2">
      <!-- 3 -->
      <defs>
       <path d="M 40.578125 39.3125 
Q 47.65625 37.796875 51.625 33 
Q 55.609375 28.21875 55.609375 21.1875 
Q 55.609375 10.40625 48.1875 4.484375 
Q 40.765625 -1.421875 27.09375 -1.421875 
Q 22.515625 -1.421875 17.65625 -0.515625 
Q 12.796875 0.390625 7.625 2.203125 
L 7.625 11.71875 
Q 11.71875 9.328125 16.59375 8.109375 
Q 21.484375 6.890625 26.8125 6.890625 
Q 36.078125 6.890625 40.9375 10.546875 
Q 45.796875 14.203125 45.796875 21.1875 
Q 45.796875 27.640625 41.28125 31.265625 
Q 36.765625 34.90625 28.71875 34.90625 
L 20.21875 34.90625 
L 20.21875 43.015625 
L 29.109375 43.015625 
Q 36.375 43.015625 40.234375 45.921875 
Q 44.09375 48.828125 44.09375 54.296875 
Q 44.09375 59.90625 40.109375 62.90625 
Q 36.140625 65.921875 28.71875 65.921875 
Q 24.65625 65.921875 20.015625 65.03125 
Q 15.375 64.15625 9.8125 62.3125 
L 9.8125 71.09375 
Q 15.4375 72.65625 20.34375 73.4375 
Q 25.25 74.21875 29.59375 74.21875 
Q 40.828125 74.21875 47.359375 69.109375 
Q 53.90625 64.015625 53.90625 55.328125 
Q 53.90625 49.265625 50.4375 45.09375 
Q 46.96875 40.921875 40.578125 39.3125 
" id="DejaVuSans-33"/>
      </defs>
      <g transform="translate(216.376506 446.497638)scale(0.1 -0.1)">
       <use xlink:href="#DejaVuSans-33"/>
      </g>
     </g>
    </g>
    <g id="xtick_3">
     <g id="line2d_5">
      <path clip-path="url(#p22213fbe00)" d="M 289.027421 431.8992 
L 289.027421 58.2336 
" style="fill:none;stroke:#b0b0b0;stroke-linecap:square;stroke-width:0.8;"/>
     </g>
     <g id="line2d_6">
      <g>
       <use style="stroke:#000000;stroke-width:0.8;" x="289.027421" xlink:href="#m257f1116dd" y="431.8992"/>
      </g>
     </g>
     <g id="text_3">
      <!-- 5 -->
      <defs>
       <path d="M 10.796875 72.90625 
L 49.515625 72.90625 
L 49.515625 64.59375 
L 19.828125 64.59375 
L 19.828125 46.734375 
Q 21.96875 47.46875 24.109375 47.828125 
Q 26.265625 48.1875 28.421875 48.1875 
Q 40.625 48.1875 47.75 41.5 
Q 54.890625 34.8125 54.890625 23.390625 
Q 54.890625 11.625 47.5625 5.09375 
Q 40.234375 -1.421875 26.90625 -1.421875 
Q 22.3125 -1.421875 17.546875 -0.640625 
Q 12.796875 0.140625 7.71875 1.703125 
L 7.71875 11.625 
Q 12.109375 9.234375 16.796875 8.0625 
Q 21.484375 6.890625 26.703125 6.890625 
Q 35.15625 6.890625 40.078125 11.328125 
Q 45.015625 15.765625 45.015625 23.390625 
Q 45.015625 31 40.078125 35.4375 
Q 35.15625 39.890625 26.703125 39.890625 
Q 22.75 39.890625 18.8125 39.015625 
Q 14.890625 38.140625 10.796875 36.28125 
z
" id="DejaVuSans-35"/>
      </defs>
      <g transform="translate(285.846171 446.497638)scale(0.1 -0.1)">
       <use xlink:href="#DejaVuSans-35"/>
      </g>
     </g>
    </g>
    <g id="xtick_4">
     <g id="line2d_7">
      <path clip-path="url(#p22213fbe00)" d="M 358.497086 431.8992 
L 358.497086 58.2336 
" style="fill:none;stroke:#b0b0b0;stroke-linecap:square;stroke-width:0.8;"/>
     </g>
     <g id="line2d_8">
      <g>
       <use style="stroke:#000000;stroke-width:0.8;" x="358.497086" xlink:href="#m257f1116dd" y="431.8992"/>
      </g>
     </g>
     <g id="text_4">
      <!-- 7 -->
      <defs>
       <path d="M 8.203125 72.90625 
L 55.078125 72.90625 
L 55.078125 68.703125 
L 28.609375 0 
L 18.3125 0 
L 43.21875 64.59375 
L 8.203125 64.59375 
z
" id="DejaVuSans-37"/>
      </defs>
      <g transform="translate(355.315836 446.497638)scale(0.1 -0.1)">
       <use xlink:href="#DejaVuSans-37"/>
      </g>
     </g>
    </g>
    <g id="xtick_5">
     <g id="line2d_9">
      <path clip-path="url(#p22213fbe00)" d="M 427.966751 431.8992 
L 427.966751 58.2336 
" style="fill:none;stroke:#b0b0b0;stroke-linecap:square;stroke-width:0.8;"/>
     </g>
     <g id="line2d_10">
      <g>
       <use style="stroke:#000000;stroke-width:0.8;" x="427.966751" xlink:href="#m257f1116dd" y="431.8992"/>
      </g>
     </g>
     <g id="text_5">
      <!-- 9 -->
      <defs>
       <path d="M 10.984375 1.515625 
L 10.984375 10.5 
Q 14.703125 8.734375 18.5 7.8125 
Q 22.3125 6.890625 25.984375 6.890625 
Q 35.75 6.890625 40.890625 13.453125 
Q 46.046875 20.015625 46.78125 33.40625 
Q 43.953125 29.203125 39.59375 26.953125 
Q 35.25 24.703125 29.984375 24.703125 
Q 19.046875 24.703125 12.671875 31.3125 
Q 6.296875 37.9375 6.296875 49.421875 
Q 6.296875 60.640625 12.9375 67.421875 
Q 19.578125 74.21875 30.609375 74.21875 
Q 43.265625 74.21875 49.921875 64.515625 
Q 56.59375 54.828125 56.59375 36.375 
Q 56.59375 19.140625 48.40625 8.859375 
Q 40.234375 -1.421875 26.421875 -1.421875 
Q 22.703125 -1.421875 18.890625 -0.6875 
Q 15.09375 0.046875 10.984375 1.515625 
M 30.609375 32.421875 
Q 37.25 32.421875 41.125 36.953125 
Q 45.015625 41.5 45.015625 49.421875 
Q 45.015625 57.28125 41.125 61.84375 
Q 37.25 66.40625 30.609375 66.40625 
Q 23.96875 66.40625 20.09375 61.84375 
Q 16.21875 57.28125 16.21875 49.421875 
Q 16.21875 41.5 20.09375 36.953125 
Q 23.96875 32.421875 30.609375 32.421875 
" id="DejaVuSans-39"/>
      </defs>
      <g transform="translate(424.785501 446.497638)scale(0.1 -0.1)">
       <use xlink:href="#DejaVuSans-39"/>
      </g>
     </g>
    </g>
    <g id="xtick_6">
     <g id="line2d_11">
      <path clip-path="url(#p22213fbe00)" d="M 497.436416 431.8992 
L 497.436416 58.2336 
" style="fill:none;stroke:#b0b0b0;stroke-linecap:square;stroke-width:0.8;"/>
     </g>
     <g id="line2d_12">
      <g>
       <use style="stroke:#000000;stroke-width:0.8;" x="497.436416" xlink:href="#m257f1116dd" y="431.8992"/>
      </g>
     </g>
     <g id="text_6">
      <!-- 11 -->
      <g transform="translate(491.073916 446.497638)scale(0.1 -0.1)">
       <use xlink:href="#DejaVuSans-31"/>
       <use x="63.623047" xlink:href="#DejaVuSans-31"/>
      </g>
     </g>
    </g>
    <g id="xtick_7">
     <g id="line2d_13">
      <path clip-path="url(#p22213fbe00)" d="M 566.906081 431.8992 
L 566.906081 58.2336 
" style="fill:none;stroke:#b0b0b0;stroke-linecap:square;stroke-width:0.8;"/>
     </g>
     <g id="line2d_14">
      <g>
       <use style="stroke:#000000;stroke-width:0.8;" x="566.906081" xlink:href="#m257f1116dd" y="431.8992"/>
      </g>
     </g>
     <g id="text_7">
      <!-- 13 -->
      <g transform="translate(560.543581 446.497638)scale(0.1 -0.1)">
       <use xlink:href="#DejaVuSans-31"/>
       <use x="63.623047" xlink:href="#DejaVuSans-33"/>
      </g>
     </g>
    </g>
    <g id="xtick_8">
     <g id="line2d_15">
      <path clip-path="url(#p22213fbe00)" d="M 636.375746 431.8992 
L 636.375746 58.2336 
" style="fill:none;stroke:#b0b0b0;stroke-linecap:square;stroke-width:0.8;"/>
     </g>
     <g id="line2d_16">
      <g>
       <use style="stroke:#000000;stroke-width:0.8;" x="636.375746" xlink:href="#m257f1116dd" y="431.8992"/>
      </g>
     </g>
     <g id="text_8">
      <!-- 15 -->
      <g transform="translate(630.013246 446.497638)scale(0.1 -0.1)">
       <use xlink:href="#DejaVuSans-31"/>
       <use x="63.623047" xlink:href="#DejaVuSans-35"/>
      </g>
     </g>
    </g>
    <g id="xtick_9">
     <g id="line2d_17">
      <path clip-path="url(#p22213fbe00)" d="M 705.845411 431.8992 
L 705.845411 58.2336 
" style="fill:none;stroke:#b0b0b0;stroke-linecap:square;stroke-width:0.8;"/>
     </g>
     <g id="line2d_18">
      <g>
       <use style="stroke:#000000;stroke-width:0.8;" x="705.845411" xlink:href="#m257f1116dd" y="431.8992"/>
      </g>
     </g>
     <g id="text_9">
      <!-- 17 -->
      <g transform="translate(699.482911 446.497638)scale(0.1 -0.1)">
       <use xlink:href="#DejaVuSans-31"/>
       <use x="63.623047" xlink:href="#DejaVuSans-37"/>
      </g>
     </g>
    </g>
    <g id="xtick_10">
     <g id="line2d_19">
      <path clip-path="url(#p22213fbe00)" d="M 775.315077 431.8992 
L 775.315077 58.2336 
" style="fill:none;stroke:#b0b0b0;stroke-linecap:square;stroke-width:0.8;"/>
     </g>
     <g id="line2d_20">
      <g>
       <use style="stroke:#000000;stroke-width:0.8;" x="775.315077" xlink:href="#m257f1116dd" y="431.8992"/>
      </g>
     </g>
     <g id="text_10">
      <!-- 19 -->
      <g transform="translate(768.952577 446.497638)scale(0.1 -0.1)">
       <use xlink:href="#DejaVuSans-31"/>
       <use x="63.623047" xlink:href="#DejaVuSans-39"/>
      </g>
     </g>
    </g>
    <g id="text_11">
     <!-- Arrival rate $(\lambda)$ -->
     <defs>
      <path d="M 34.1875 63.1875 
L 20.796875 26.90625 
L 47.609375 26.90625 
z
M 28.609375 72.90625 
L 39.796875 72.90625 
L 67.578125 0 
L 57.328125 0 
L 50.6875 18.703125 
L 17.828125 18.703125 
L 11.1875 0 
L 0.78125 0 
z
" id="DejaVuSans-41"/>
      <path d="M 41.109375 46.296875 
Q 39.59375 47.171875 37.8125 47.578125 
Q 36.03125 48 33.890625 48 
Q 26.265625 48 22.1875 43.046875 
Q 18.109375 38.09375 18.109375 28.8125 
L 18.109375 0 
L 9.078125 0 
L 9.078125 54.6875 
L 18.109375 54.6875 
L 18.109375 46.1875 
Q 20.953125 51.171875 25.484375 53.578125 
Q 30.03125 56 36.53125 56 
Q 37.453125 56 38.578125 55.875 
Q 39.703125 55.765625 41.0625 55.515625 
z
" id="DejaVuSans-72"/>
      <path d="M 9.421875 54.6875 
L 18.40625 54.6875 
L 18.40625 0 
L 9.421875 0 
z
M 9.421875 75.984375 
L 18.40625 75.984375 
L 18.40625 64.59375 
L 9.421875 64.59375 
z
" id="DejaVuSans-69"/>
      <path d="M 2.984375 54.6875 
L 12.5 54.6875 
L 29.59375 8.796875 
L 46.6875 54.6875 
L 56.203125 54.6875 
L 35.6875 0 
L 23.484375 0 
z
" id="DejaVuSans-76"/>
      <path d="M 34.28125 27.484375 
Q 23.390625 27.484375 19.1875 25 
Q 14.984375 22.515625 14.984375 16.5 
Q 14.984375 11.71875 18.140625 8.90625 
Q 21.296875 6.109375 26.703125 6.109375 
Q 34.1875 6.109375 38.703125 11.40625 
Q 43.21875 16.703125 43.21875 25.484375 
L 43.21875 27.484375 
z
M 52.203125 31.203125 
L 52.203125 0 
L 43.21875 0 
L 43.21875 8.296875 
Q 40.140625 3.328125 35.546875 0.953125 
Q 30.953125 -1.421875 24.3125 -1.421875 
Q 15.921875 -1.421875 10.953125 3.296875 
Q 6 8.015625 6 15.921875 
Q 6 25.140625 12.171875 29.828125 
Q 18.359375 34.515625 30.609375 34.515625 
L 43.21875 34.515625 
L 43.21875 35.40625 
Q 43.21875 41.609375 39.140625 45 
Q 35.0625 48.390625 27.6875 48.390625 
Q 23 48.390625 18.546875 47.265625 
Q 14.109375 46.140625 10.015625 43.890625 
L 10.015625 52.203125 
Q 14.9375 54.109375 19.578125 55.046875 
Q 24.21875 56 28.609375 56 
Q 40.484375 56 46.34375 49.84375 
Q 52.203125 43.703125 52.203125 31.203125 
" id="DejaVuSans-61"/>
      <path d="M 9.421875 75.984375 
L 18.40625 75.984375 
L 18.40625 0 
L 9.421875 0 
z
" id="DejaVuSans-6c"/>
      <path id="DejaVuSans-20"/>
      <path d="M 18.3125 70.21875 
L 18.3125 54.6875 
L 36.8125 54.6875 
L 36.8125 47.703125 
L 18.3125 47.703125 
L 18.3125 18.015625 
Q 18.3125 11.328125 20.140625 9.421875 
Q 21.96875 7.515625 27.59375 7.515625 
L 36.8125 7.515625 
L 36.8125 0 
L 27.59375 0 
Q 17.1875 0 13.234375 3.875 
Q 9.28125 7.765625 9.28125 18.015625 
L 9.28125 47.703125 
L 2.6875 47.703125 
L 2.6875 54.6875 
L 9.28125 54.6875 
L 9.28125 70.21875 
z
" id="DejaVuSans-74"/>
      <path d="M 56.203125 29.59375 
L 56.203125 25.203125 
L 14.890625 25.203125 
Q 15.484375 15.921875 20.484375 11.0625 
Q 25.484375 6.203125 34.421875 6.203125 
Q 39.59375 6.203125 44.453125 7.46875 
Q 49.3125 8.734375 54.109375 11.28125 
L 54.109375 2.78125 
Q 49.265625 0.734375 44.1875 -0.34375 
Q 39.109375 -1.421875 33.890625 -1.421875 
Q 20.796875 -1.421875 13.15625 6.1875 
Q 5.515625 13.8125 5.515625 26.8125 
Q 5.515625 40.234375 12.765625 48.109375 
Q 20.015625 56 32.328125 56 
Q 43.359375 56 49.78125 48.890625 
Q 56.203125 41.796875 56.203125 29.59375 
M 47.21875 32.234375 
Q 47.125 39.59375 43.09375 43.984375 
Q 39.0625 48.390625 32.421875 48.390625 
Q 24.90625 48.390625 20.390625 44.140625 
Q 15.875 39.890625 15.1875 32.171875 
z
" id="DejaVuSans-65"/>
      <path d="M 31 75.875 
Q 24.46875 64.65625 21.28125 53.65625 
Q 18.109375 42.671875 18.109375 31.390625 
Q 18.109375 20.125 21.3125 9.0625 
Q 24.515625 -2 31 -13.1875 
L 23.1875 -13.1875 
Q 15.875 -1.703125 12.234375 9.375 
Q 8.59375 20.453125 8.59375 31.390625 
Q 8.59375 42.28125 12.203125 53.3125 
Q 15.828125 64.359375 23.1875 75.875 
z
" id="DejaVuSans-28"/>
      <path d="M 36.71875 67.4375 
L 48.828125 0 
L 39.3125 0 
L 31.84375 40.4375 
L 5.125 0 
L -4.390625 0 
L 29.734375 52.4375 
L 28.03125 62.109375 
Q 26.953125 68.265625 21.734375 68.265625 
L 17.046875 68.265625 
L 18.5 75.984375 
L 24.21875 75.875 
Q 35.203125 75.734375 36.71875 67.4375 
" id="DejaVuSans-Oblique-3bb"/>
      <path d="M 8.015625 75.875 
L 15.828125 75.875 
Q 23.140625 64.359375 26.78125 53.3125 
Q 30.421875 42.28125 30.421875 31.390625 
Q 30.421875 20.453125 26.78125 9.375 
Q 23.140625 -1.703125 15.828125 -13.1875 
L 8.015625 -13.1875 
Q 14.5 -2 17.703125 9.0625 
Q 20.90625 20.125 20.90625 31.390625 
Q 20.90625 42.671875 17.703125 53.65625 
Q 14.5 64.65625 8.015625 75.875 
" id="DejaVuSans-29"/>
     </defs>
     <g transform="translate(443.519 460.175763)scale(0.1 -0.1)">
      <use transform="translate(0 0.015625)" xlink:href="#DejaVuSans-41"/>
      <use transform="translate(68.408203 0.015625)" xlink:href="#DejaVuSans-72"/>
      <use transform="translate(109.521484 0.015625)" xlink:href="#DejaVuSans-72"/>
      <use transform="translate(150.634766 0.015625)" xlink:href="#DejaVuSans-69"/>
      <use transform="translate(178.417969 0.015625)" xlink:href="#DejaVuSans-76"/>
      <use transform="translate(237.597656 0.015625)" xlink:href="#DejaVuSans-61"/>
      <use transform="translate(298.876953 0.015625)" xlink:href="#DejaVuSans-6c"/>
      <use transform="translate(326.660156 0.015625)" xlink:href="#DejaVuSans-20"/>
      <use transform="translate(358.447266 0.015625)" xlink:href="#DejaVuSans-72"/>
      <use transform="translate(399.560547 0.015625)" xlink:href="#DejaVuSans-61"/>
      <use transform="translate(460.839844 0.015625)" xlink:href="#DejaVuSans-74"/>
      <use transform="translate(500.048828 0.015625)" xlink:href="#DejaVuSans-65"/>
      <use transform="translate(561.572266 0.015625)" xlink:href="#DejaVuSans-20"/>
      <use transform="translate(593.359375 0.015625)" xlink:href="#DejaVuSans-28"/>
      <use transform="translate(632.373047 0.015625)" xlink:href="#DejaVuSans-Oblique-3bb"/>
      <use transform="translate(691.552734 0.015625)" xlink:href="#DejaVuSans-29"/>
     </g>
    </g>
   </g>
   <g id="matplotlib.axis_2">
    <g id="ytick_1">
     <g id="line2d_21">
      <path clip-path="url(#p22213fbe00)" d="M 117.09 397.198788 
L 843.048 397.198788 
" style="fill:none;stroke:#b0b0b0;stroke-linecap:square;stroke-width:0.8;"/>
     </g>
     <g id="line2d_22">
      <defs>
       <path d="M 0 0 
L -3.5 0 
" id="m922806cc05" style="stroke:#000000;stroke-width:0.8;"/>
      </defs>
      <g>
       <use style="stroke:#000000;stroke-width:0.8;" x="117.09" xlink:href="#m922806cc05" y="397.198788"/>
      </g>
     </g>
     <g id="text_12">
      <!-- 15 -->
      <g transform="translate(97.365 400.998007)scale(0.1 -0.1)">
       <use xlink:href="#DejaVuSans-31"/>
       <use x="63.623047" xlink:href="#DejaVuSans-35"/>
      </g>
     </g>
    </g>
    <g id="ytick_2">
     <g id="line2d_23">
      <path clip-path="url(#p22213fbe00)" d="M 117.09 351.642306 
L 843.048 351.642306 
" style="fill:none;stroke:#b0b0b0;stroke-linecap:square;stroke-width:0.8;"/>
     </g>
     <g id="line2d_24">
      <g>
       <use style="stroke:#000000;stroke-width:0.8;" x="117.09" xlink:href="#m922806cc05" y="351.642306"/>
      </g>
     </g>
     <g id="text_13">
      <!-- 20 -->
      <defs>
       <path d="M 19.1875 8.296875 
L 53.609375 8.296875 
L 53.609375 0 
L 7.328125 0 
L 7.328125 8.296875 
Q 12.9375 14.109375 22.625 23.890625 
Q 32.328125 33.6875 34.8125 36.53125 
Q 39.546875 41.84375 41.421875 45.53125 
Q 43.3125 49.21875 43.3125 52.78125 
Q 43.3125 58.59375 39.234375 62.25 
Q 35.15625 65.921875 28.609375 65.921875 
Q 23.96875 65.921875 18.8125 64.3125 
Q 13.671875 62.703125 7.8125 59.421875 
L 7.8125 69.390625 
Q 13.765625 71.78125 18.9375 73 
Q 24.125 74.21875 28.421875 74.21875 
Q 39.75 74.21875 46.484375 68.546875 
Q 53.21875 62.890625 53.21875 53.421875 
Q 53.21875 48.921875 51.53125 44.890625 
Q 49.859375 40.875 45.40625 35.40625 
Q 44.1875 33.984375 37.640625 27.21875 
Q 31.109375 20.453125 19.1875 8.296875 
" id="DejaVuSans-32"/>
       <path d="M 31.78125 66.40625 
Q 24.171875 66.40625 20.328125 58.90625 
Q 16.5 51.421875 16.5 36.375 
Q 16.5 21.390625 20.328125 13.890625 
Q 24.171875 6.390625 31.78125 6.390625 
Q 39.453125 6.390625 43.28125 13.890625 
Q 47.125 21.390625 47.125 36.375 
Q 47.125 51.421875 43.28125 58.90625 
Q 39.453125 66.40625 31.78125 66.40625 
M 31.78125 74.21875 
Q 44.046875 74.21875 50.515625 64.515625 
Q 56.984375 54.828125 56.984375 36.375 
Q 56.984375 17.96875 50.515625 8.265625 
Q 44.046875 -1.421875 31.78125 -1.421875 
Q 19.53125 -1.421875 13.0625 8.265625 
Q 6.59375 17.96875 6.59375 36.375 
Q 6.59375 54.828125 13.0625 64.515625 
Q 19.53125 74.21875 31.78125 74.21875 
" id="DejaVuSans-30"/>
      </defs>
      <g transform="translate(97.365 355.441525)scale(0.1 -0.1)">
       <use xlink:href="#DejaVuSans-32"/>
       <use x="63.623047" xlink:href="#DejaVuSans-30"/>
      </g>
     </g>
    </g>
    <g id="ytick_3">
     <g id="line2d_25">
      <path clip-path="url(#p22213fbe00)" d="M 117.09 306.085824 
L 843.048 306.085824 
" style="fill:none;stroke:#b0b0b0;stroke-linecap:square;stroke-width:0.8;"/>
     </g>
     <g id="line2d_26">
      <g>
       <use style="stroke:#000000;stroke-width:0.8;" x="117.09" xlink:href="#m922806cc05" y="306.085824"/>
      </g>
     </g>
     <g id="text_14">
      <!-- 25 -->
      <g transform="translate(97.365 309.885043)scale(0.1 -0.1)">
       <use xlink:href="#DejaVuSans-32"/>
       <use x="63.623047" xlink:href="#DejaVuSans-35"/>
      </g>
     </g>
    </g>
    <g id="ytick_4">
     <g id="line2d_27">
      <path clip-path="url(#p22213fbe00)" d="M 117.09 260.529342 
L 843.048 260.529342 
" style="fill:none;stroke:#b0b0b0;stroke-linecap:square;stroke-width:0.8;"/>
     </g>
     <g id="line2d_28">
      <g>
       <use style="stroke:#000000;stroke-width:0.8;" x="117.09" xlink:href="#m922806cc05" y="260.529342"/>
      </g>
     </g>
     <g id="text_15">
      <!-- 30 -->
      <g transform="translate(97.365 264.32856)scale(0.1 -0.1)">
       <use xlink:href="#DejaVuSans-33"/>
       <use x="63.623047" xlink:href="#DejaVuSans-30"/>
      </g>
     </g>
    </g>
    <g id="ytick_5">
     <g id="line2d_29">
      <path clip-path="url(#p22213fbe00)" d="M 117.09 214.972859 
L 843.048 214.972859 
" style="fill:none;stroke:#b0b0b0;stroke-linecap:square;stroke-width:0.8;"/>
     </g>
     <g id="line2d_30">
      <g>
       <use style="stroke:#000000;stroke-width:0.8;" x="117.09" xlink:href="#m922806cc05" y="214.972859"/>
      </g>
     </g>
     <g id="text_16">
      <!-- 35 -->
      <g transform="translate(97.365 218.772078)scale(0.1 -0.1)">
       <use xlink:href="#DejaVuSans-33"/>
       <use x="63.623047" xlink:href="#DejaVuSans-35"/>
      </g>
     </g>
    </g>
    <g id="ytick_6">
     <g id="line2d_31">
      <path clip-path="url(#p22213fbe00)" d="M 117.09 169.416377 
L 843.048 169.416377 
" style="fill:none;stroke:#b0b0b0;stroke-linecap:square;stroke-width:0.8;"/>
     </g>
     <g id="line2d_32">
      <g>
       <use style="stroke:#000000;stroke-width:0.8;" x="117.09" xlink:href="#m922806cc05" y="169.416377"/>
      </g>
     </g>
     <g id="text_17">
      <!-- 40 -->
      <defs>
       <path d="M 37.796875 64.3125 
L 12.890625 25.390625 
L 37.796875 25.390625 
z
M 35.203125 72.90625 
L 47.609375 72.90625 
L 47.609375 25.390625 
L 58.015625 25.390625 
L 58.015625 17.1875 
L 47.609375 17.1875 
L 47.609375 0 
L 37.796875 0 
L 37.796875 17.1875 
L 4.890625 17.1875 
L 4.890625 26.703125 
z
" id="DejaVuSans-34"/>
      </defs>
      <g transform="translate(97.365 173.215596)scale(0.1 -0.1)">
       <use xlink:href="#DejaVuSans-34"/>
       <use x="63.623047" xlink:href="#DejaVuSans-30"/>
      </g>
     </g>
    </g>
    <g id="ytick_7">
     <g id="line2d_33">
      <path clip-path="url(#p22213fbe00)" d="M 117.09 123.859895 
L 843.048 123.859895 
" style="fill:none;stroke:#b0b0b0;stroke-linecap:square;stroke-width:0.8;"/>
     </g>
     <g id="line2d_34">
      <g>
       <use style="stroke:#000000;stroke-width:0.8;" x="117.09" xlink:href="#m922806cc05" y="123.859895"/>
      </g>
     </g>
     <g id="text_18">
      <!-- 45 -->
      <g transform="translate(97.365 127.659113)scale(0.1 -0.1)">
       <use xlink:href="#DejaVuSans-34"/>
       <use x="63.623047" xlink:href="#DejaVuSans-35"/>
      </g>
     </g>
    </g>
    <g id="ytick_8">
     <g id="line2d_35">
      <path clip-path="url(#p22213fbe00)" d="M 117.09 78.303412 
L 843.048 78.303412 
" style="fill:none;stroke:#b0b0b0;stroke-linecap:square;stroke-width:0.8;"/>
     </g>
     <g id="line2d_36">
      <g>
       <use style="stroke:#000000;stroke-width:0.8;" x="117.09" xlink:href="#m922806cc05" y="78.303412"/>
      </g>
     </g>
     <g id="text_19">
      <!-- 50 -->
      <g transform="translate(97.365 82.102631)scale(0.1 -0.1)">
       <use xlink:href="#DejaVuSans-35"/>
       <use x="63.623047" xlink:href="#DejaVuSans-30"/>
      </g>
     </g>
    </g>
    <g id="text_20">
     <!-- Mean power comsumption kW -->
     <defs>
      <path d="M 9.8125 72.90625 
L 24.515625 72.90625 
L 43.109375 23.296875 
L 61.8125 72.90625 
L 76.515625 72.90625 
L 76.515625 0 
L 66.890625 0 
L 66.890625 64.015625 
L 48.09375 14.015625 
L 38.1875 14.015625 
L 19.390625 64.015625 
L 19.390625 0 
L 9.8125 0 
z
" id="DejaVuSans-4d"/>
      <path d="M 54.890625 33.015625 
L 54.890625 0 
L 45.90625 0 
L 45.90625 32.71875 
Q 45.90625 40.484375 42.875 44.328125 
Q 39.84375 48.1875 33.796875 48.1875 
Q 26.515625 48.1875 22.3125 43.546875 
Q 18.109375 38.921875 18.109375 30.90625 
L 18.109375 0 
L 9.078125 0 
L 9.078125 54.6875 
L 18.109375 54.6875 
L 18.109375 46.1875 
Q 21.34375 51.125 25.703125 53.5625 
Q 30.078125 56 35.796875 56 
Q 45.21875 56 50.046875 50.171875 
Q 54.890625 44.34375 54.890625 33.015625 
" id="DejaVuSans-6e"/>
      <path d="M 18.109375 8.203125 
L 18.109375 -20.796875 
L 9.078125 -20.796875 
L 9.078125 54.6875 
L 18.109375 54.6875 
L 18.109375 46.390625 
Q 20.953125 51.265625 25.265625 53.625 
Q 29.59375 56 35.59375 56 
Q 45.5625 56 51.78125 48.09375 
Q 58.015625 40.1875 58.015625 27.296875 
Q 58.015625 14.40625 51.78125 6.484375 
Q 45.5625 -1.421875 35.59375 -1.421875 
Q 29.59375 -1.421875 25.265625 0.953125 
Q 20.953125 3.328125 18.109375 8.203125 
M 48.6875 27.296875 
Q 48.6875 37.203125 44.609375 42.84375 
Q 40.53125 48.484375 33.40625 48.484375 
Q 26.265625 48.484375 22.1875 42.84375 
Q 18.109375 37.203125 18.109375 27.296875 
Q 18.109375 17.390625 22.1875 11.75 
Q 26.265625 6.109375 33.40625 6.109375 
Q 40.53125 6.109375 44.609375 11.75 
Q 48.6875 17.390625 48.6875 27.296875 
" id="DejaVuSans-70"/>
      <path d="M 30.609375 48.390625 
Q 23.390625 48.390625 19.1875 42.75 
Q 14.984375 37.109375 14.984375 27.296875 
Q 14.984375 17.484375 19.15625 11.84375 
Q 23.34375 6.203125 30.609375 6.203125 
Q 37.796875 6.203125 41.984375 11.859375 
Q 46.1875 17.53125 46.1875 27.296875 
Q 46.1875 37.015625 41.984375 42.703125 
Q 37.796875 48.390625 30.609375 48.390625 
M 30.609375 56 
Q 42.328125 56 49.015625 48.375 
Q 55.71875 40.765625 55.71875 27.296875 
Q 55.71875 13.875 49.015625 6.21875 
Q 42.328125 -1.421875 30.609375 -1.421875 
Q 18.84375 -1.421875 12.171875 6.21875 
Q 5.515625 13.875 5.515625 27.296875 
Q 5.515625 40.765625 12.171875 48.375 
Q 18.84375 56 30.609375 56 
" id="DejaVuSans-6f"/>
      <path d="M 4.203125 54.6875 
L 13.1875 54.6875 
L 24.421875 12.015625 
L 35.59375 54.6875 
L 46.1875 54.6875 
L 57.421875 12.015625 
L 68.609375 54.6875 
L 77.59375 54.6875 
L 63.28125 0 
L 52.6875 0 
L 40.921875 44.828125 
L 29.109375 0 
L 18.5 0 
z
" id="DejaVuSans-77"/>
      <path d="M 48.78125 52.59375 
L 48.78125 44.1875 
Q 44.96875 46.296875 41.140625 47.34375 
Q 37.3125 48.390625 33.40625 48.390625 
Q 24.65625 48.390625 19.8125 42.84375 
Q 14.984375 37.3125 14.984375 27.296875 
Q 14.984375 17.28125 19.8125 11.734375 
Q 24.65625 6.203125 33.40625 6.203125 
Q 37.3125 6.203125 41.140625 7.25 
Q 44.96875 8.296875 48.78125 10.40625 
L 48.78125 2.09375 
Q 45.015625 0.34375 40.984375 -0.53125 
Q 36.96875 -1.421875 32.421875 -1.421875 
Q 20.0625 -1.421875 12.78125 6.34375 
Q 5.515625 14.109375 5.515625 27.296875 
Q 5.515625 40.671875 12.859375 48.328125 
Q 20.21875 56 33.015625 56 
Q 37.15625 56 41.109375 55.140625 
Q 45.0625 54.296875 48.78125 52.59375 
" id="DejaVuSans-63"/>
      <path d="M 52 44.1875 
Q 55.375 50.25 60.0625 53.125 
Q 64.75 56 71.09375 56 
Q 79.640625 56 84.28125 50.015625 
Q 88.921875 44.046875 88.921875 33.015625 
L 88.921875 0 
L 79.890625 0 
L 79.890625 32.71875 
Q 79.890625 40.578125 77.09375 44.375 
Q 74.3125 48.1875 68.609375 48.1875 
Q 61.625 48.1875 57.5625 43.546875 
Q 53.515625 38.921875 53.515625 30.90625 
L 53.515625 0 
L 44.484375 0 
L 44.484375 32.71875 
Q 44.484375 40.625 41.703125 44.40625 
Q 38.921875 48.1875 33.109375 48.1875 
Q 26.21875 48.1875 22.15625 43.53125 
Q 18.109375 38.875 18.109375 30.90625 
L 18.109375 0 
L 9.078125 0 
L 9.078125 54.6875 
L 18.109375 54.6875 
L 18.109375 46.1875 
Q 21.1875 51.21875 25.484375 53.609375 
Q 29.78125 56 35.6875 56 
Q 41.65625 56 45.828125 52.96875 
Q 50 49.953125 52 44.1875 
" id="DejaVuSans-6d"/>
      <path d="M 44.28125 53.078125 
L 44.28125 44.578125 
Q 40.484375 46.53125 36.375 47.5 
Q 32.28125 48.484375 27.875 48.484375 
Q 21.1875 48.484375 17.84375 46.4375 
Q 14.5 44.390625 14.5 40.28125 
Q 14.5 37.15625 16.890625 35.375 
Q 19.28125 33.59375 26.515625 31.984375 
L 29.59375 31.296875 
Q 39.15625 29.25 43.1875 25.515625 
Q 47.21875 21.78125 47.21875 15.09375 
Q 47.21875 7.46875 41.1875 3.015625 
Q 35.15625 -1.421875 24.609375 -1.421875 
Q 20.21875 -1.421875 15.453125 -0.5625 
Q 10.6875 0.296875 5.421875 2 
L 5.421875 11.28125 
Q 10.40625 8.6875 15.234375 7.390625 
Q 20.0625 6.109375 24.8125 6.109375 
Q 31.15625 6.109375 34.5625 8.28125 
Q 37.984375 10.453125 37.984375 14.40625 
Q 37.984375 18.0625 35.515625 20.015625 
Q 33.0625 21.96875 24.703125 23.78125 
L 21.578125 24.515625 
Q 13.234375 26.265625 9.515625 29.90625 
Q 5.8125 33.546875 5.8125 39.890625 
Q 5.8125 47.609375 11.28125 51.796875 
Q 16.75 56 26.8125 56 
Q 31.78125 56 36.171875 55.265625 
Q 40.578125 54.546875 44.28125 53.078125 
" id="DejaVuSans-73"/>
      <path d="M 8.5 21.578125 
L 8.5 54.6875 
L 17.484375 54.6875 
L 17.484375 21.921875 
Q 17.484375 14.15625 20.5 10.265625 
Q 23.53125 6.390625 29.59375 6.390625 
Q 36.859375 6.390625 41.078125 11.03125 
Q 45.3125 15.671875 45.3125 23.6875 
L 45.3125 54.6875 
L 54.296875 54.6875 
L 54.296875 0 
L 45.3125 0 
L 45.3125 8.40625 
Q 42.046875 3.421875 37.71875 1 
Q 33.40625 -1.421875 27.6875 -1.421875 
Q 18.265625 -1.421875 13.375 4.4375 
Q 8.5 10.296875 8.5 21.578125 
M 31.109375 56 
z
" id="DejaVuSans-75"/>
      <path d="M 9.078125 75.984375 
L 18.109375 75.984375 
L 18.109375 31.109375 
L 44.921875 54.6875 
L 56.390625 54.6875 
L 27.390625 29.109375 
L 57.625 0 
L 45.90625 0 
L 18.109375 26.703125 
L 18.109375 0 
L 9.078125 0 
z
" id="DejaVuSans-6b"/>
      <path d="M 3.328125 72.90625 
L 13.28125 72.90625 
L 28.609375 11.28125 
L 43.890625 72.90625 
L 54.984375 72.90625 
L 70.3125 11.28125 
L 85.59375 72.90625 
L 95.609375 72.90625 
L 77.296875 0 
L 64.890625 0 
L 49.515625 63.28125 
L 33.984375 0 
L 21.578125 0 
z
" id="DejaVuSans-57"/>
     </defs>
     <g transform="translate(91.285313 320.824994)rotate(-90)scale(0.1 -0.1)">
      <use xlink:href="#DejaVuSans-4d"/>
      <use x="86.279297" xlink:href="#DejaVuSans-65"/>
      <use x="147.802734" xlink:href="#DejaVuSans-61"/>
      <use x="209.082031" xlink:href="#DejaVuSans-6e"/>
      <use x="272.460938" xlink:href="#DejaVuSans-20"/>
      <use x="304.248047" xlink:href="#DejaVuSans-70"/>
      <use x="367.724609" xlink:href="#DejaVuSans-6f"/>
      <use x="428.90625" xlink:href="#DejaVuSans-77"/>
      <use x="510.693359" xlink:href="#DejaVuSans-65"/>
      <use x="572.216797" xlink:href="#DejaVuSans-72"/>
      <use x="613.330078" xlink:href="#DejaVuSans-20"/>
      <use x="645.117188" xlink:href="#DejaVuSans-63"/>
      <use x="700.097656" xlink:href="#DejaVuSans-6f"/>
      <use x="761.279297" xlink:href="#DejaVuSans-6d"/>
      <use x="858.691406" xlink:href="#DejaVuSans-73"/>
      <use x="910.791016" xlink:href="#DejaVuSans-75"/>
      <use x="974.169922" xlink:href="#DejaVuSans-6d"/>
      <use x="1071.582031" xlink:href="#DejaVuSans-70"/>
      <use x="1135.058594" xlink:href="#DejaVuSans-74"/>
      <use x="1174.267578" xlink:href="#DejaVuSans-69"/>
      <use x="1202.050781" xlink:href="#DejaVuSans-6f"/>
      <use x="1263.232422" xlink:href="#DejaVuSans-6e"/>
      <use x="1326.611328" xlink:href="#DejaVuSans-20"/>
      <use x="1358.398438" xlink:href="#DejaVuSans-6b"/>
      <use x="1416.308594" xlink:href="#DejaVuSans-57"/>
     </g>
    </g>
   </g>
   <g id="line2d_37">
    <path clip-path="url(#p22213fbe00)" d="M 150.088091 384.760616 
L 184.822923 308.861955 
L 219.557756 246.23073 
L 254.292589 224.574197 
L 289.027421 217.237151 
L 323.762254 211.315994 
L 358.497086 206.126637 
L 393.231919 201.319311 
L 427.966751 196.680543 
L 462.701584 192.492356 
L 497.436416 188.130554 
L 532.171249 184.283793 
L 566.906081 180.70618 
L 601.640914 177.306777 
L 636.375746 174.150868 
L 671.110579 171.383977 
L 705.845411 168.867323 
L 740.580244 166.755542 
L 775.315077 165.052576 
L 810.049909 163.513402 
" style="fill:none;stroke:#0000ff;stroke-linecap:square;stroke-width:1.5;"/>
    <defs>
     <path d="M -0 3 
L 3 -3 
L -3 -3 
z
" id="m5c229936d3" style="stroke:#0000ff;stroke-linejoin:miter;"/>
    </defs>
    <g clip-path="url(#p22213fbe00)">
     <use style="fill:#0000ff;stroke:#0000ff;stroke-linejoin:miter;" x="150.088091" xlink:href="#m5c229936d3" y="384.760616"/>
     <use style="fill:#0000ff;stroke:#0000ff;stroke-linejoin:miter;" x="184.822923" xlink:href="#m5c229936d3" y="308.861955"/>
     <use style="fill:#0000ff;stroke:#0000ff;stroke-linejoin:miter;" x="219.557756" xlink:href="#m5c229936d3" y="246.23073"/>
     <use style="fill:#0000ff;stroke:#0000ff;stroke-linejoin:miter;" x="254.292589" xlink:href="#m5c229936d3" y="224.574197"/>
     <use style="fill:#0000ff;stroke:#0000ff;stroke-linejoin:miter;" x="289.027421" xlink:href="#m5c229936d3" y="217.237151"/>
     <use style="fill:#0000ff;stroke:#0000ff;stroke-linejoin:miter;" x="323.762254" xlink:href="#m5c229936d3" y="211.315994"/>
     <use style="fill:#0000ff;stroke:#0000ff;stroke-linejoin:miter;" x="358.497086" xlink:href="#m5c229936d3" y="206.126637"/>
     <use style="fill:#0000ff;stroke:#0000ff;stroke-linejoin:miter;" x="393.231919" xlink:href="#m5c229936d3" y="201.319311"/>
     <use style="fill:#0000ff;stroke:#0000ff;stroke-linejoin:miter;" x="427.966751" xlink:href="#m5c229936d3" y="196.680543"/>
     <use style="fill:#0000ff;stroke:#0000ff;stroke-linejoin:miter;" x="462.701584" xlink:href="#m5c229936d3" y="192.492356"/>
     <use style="fill:#0000ff;stroke:#0000ff;stroke-linejoin:miter;" x="497.436416" xlink:href="#m5c229936d3" y="188.130554"/>
     <use style="fill:#0000ff;stroke:#0000ff;stroke-linejoin:miter;" x="532.171249" xlink:href="#m5c229936d3" y="184.283793"/>
     <use style="fill:#0000ff;stroke:#0000ff;stroke-linejoin:miter;" x="566.906081" xlink:href="#m5c229936d3" y="180.70618"/>
     <use style="fill:#0000ff;stroke:#0000ff;stroke-linejoin:miter;" x="601.640914" xlink:href="#m5c229936d3" y="177.306777"/>
     <use style="fill:#0000ff;stroke:#0000ff;stroke-linejoin:miter;" x="636.375746" xlink:href="#m5c229936d3" y="174.150868"/>
     <use style="fill:#0000ff;stroke:#0000ff;stroke-linejoin:miter;" x="671.110579" xlink:href="#m5c229936d3" y="171.383977"/>
     <use style="fill:#0000ff;stroke:#0000ff;stroke-linejoin:miter;" x="705.845411" xlink:href="#m5c229936d3" y="168.867323"/>
     <use style="fill:#0000ff;stroke:#0000ff;stroke-linejoin:miter;" x="740.580244" xlink:href="#m5c229936d3" y="166.755542"/>
     <use style="fill:#0000ff;stroke:#0000ff;stroke-linejoin:miter;" x="775.315077" xlink:href="#m5c229936d3" y="165.052576"/>
     <use style="fill:#0000ff;stroke:#0000ff;stroke-linejoin:miter;" x="810.049909" xlink:href="#m5c229936d3" y="163.513402"/>
    </g>
   </g>
   <g id="line2d_38">
    <path clip-path="url(#p22213fbe00)" d="M 150.088091 414.9144 
L 184.822923 352.305101 
L 219.557756 299.732447 
L 254.292589 278.812083 
L 289.027421 269.201946 
L 323.762254 260.788681 
L 358.497086 252.854635 
L 393.231919 245.500607 
L 427.966751 238.416324 
L 462.701584 231.121352 
L 497.436416 223.564161 
L 532.171249 216.411583 
L 566.906081 209.926217 
L 601.640914 203.796516 
L 636.375746 197.479075 
L 671.110579 190.555161 
L 705.845411 184.017309 
L 740.580244 177.23842 
L 775.315077 170.902657 
L 810.049909 165.010746 
" style="fill:none;stroke:#0000ff;stroke-linecap:square;stroke-width:1.5;"/>
    <defs>
     <path d="M -3 3 
L 3 -3 
M -3 -3 
L 3 3 
" id="md71a8af58d" style="stroke:#0000ff;"/>
    </defs>
    <g clip-path="url(#p22213fbe00)">
     <use style="fill:#0000ff;stroke:#0000ff;" x="150.088091" xlink:href="#md71a8af58d" y="414.9144"/>
     <use style="fill:#0000ff;stroke:#0000ff;" x="184.822923" xlink:href="#md71a8af58d" y="352.305101"/>
     <use style="fill:#0000ff;stroke:#0000ff;" x="219.557756" xlink:href="#md71a8af58d" y="299.732447"/>
     <use style="fill:#0000ff;stroke:#0000ff;" x="254.292589" xlink:href="#md71a8af58d" y="278.812083"/>
     <use style="fill:#0000ff;stroke:#0000ff;" x="289.027421" xlink:href="#md71a8af58d" y="269.201946"/>
     <use style="fill:#0000ff;stroke:#0000ff;" x="323.762254" xlink:href="#md71a8af58d" y="260.788681"/>
     <use style="fill:#0000ff;stroke:#0000ff;" x="358.497086" xlink:href="#md71a8af58d" y="252.854635"/>
     <use style="fill:#0000ff;stroke:#0000ff;" x="393.231919" xlink:href="#md71a8af58d" y="245.500607"/>
     <use style="fill:#0000ff;stroke:#0000ff;" x="427.966751" xlink:href="#md71a8af58d" y="238.416324"/>
     <use style="fill:#0000ff;stroke:#0000ff;" x="462.701584" xlink:href="#md71a8af58d" y="231.121352"/>
     <use style="fill:#0000ff;stroke:#0000ff;" x="497.436416" xlink:href="#md71a8af58d" y="223.564161"/>
     <use style="fill:#0000ff;stroke:#0000ff;" x="532.171249" xlink:href="#md71a8af58d" y="216.411583"/>
     <use style="fill:#0000ff;stroke:#0000ff;" x="566.906081" xlink:href="#md71a8af58d" y="209.926217"/>
     <use style="fill:#0000ff;stroke:#0000ff;" x="601.640914" xlink:href="#md71a8af58d" y="203.796516"/>
     <use style="fill:#0000ff;stroke:#0000ff;" x="636.375746" xlink:href="#md71a8af58d" y="197.479075"/>
     <use style="fill:#0000ff;stroke:#0000ff;" x="671.110579" xlink:href="#md71a8af58d" y="190.555161"/>
     <use style="fill:#0000ff;stroke:#0000ff;" x="705.845411" xlink:href="#md71a8af58d" y="184.017309"/>
     <use style="fill:#0000ff;stroke:#0000ff;" x="740.580244" xlink:href="#md71a8af58d" y="177.23842"/>
     <use style="fill:#0000ff;stroke:#0000ff;" x="775.315077" xlink:href="#md71a8af58d" y="170.902657"/>
     <use style="fill:#0000ff;stroke:#0000ff;" x="810.049909" xlink:href="#md71a8af58d" y="165.010746"/>
    </g>
   </g>
   <g id="line2d_39">
    <path clip-path="url(#p22213fbe00)" d="M 150.088091 384.791617 
L 184.822923 308.873288 
L 219.557756 246.260243 
L 254.292589 224.551542 
L 289.027421 217.432563 
L 323.762254 211.681974 
L 358.497086 206.883984 
L 393.231919 202.424099 
L 427.966751 197.859955 
L 462.701584 193.537398 
L 497.436416 189.03068 
L 532.171249 184.970178 
L 566.906081 181.47795 
L 601.640914 178.387195 
L 636.375746 174.844854 
L 671.110579 170.949821 
L 705.845411 167.218937 
L 740.580244 163.598199 
L 775.315077 160.56525 
L 810.049909 158.25977 
" style="fill:none;stroke:#0000ff;stroke-linecap:square;stroke-width:1.5;"/>
    <defs>
     <path d="M 0 3 
C 0.795609 3 1.55874 2.683901 2.12132 2.12132 
C 2.683901 1.55874 3 0.795609 3 0 
C 3 -0.795609 2.683901 -1.55874 2.12132 -2.12132 
C 1.55874 -2.683901 0.795609 -3 0 -3 
C -0.795609 -3 -1.55874 -2.683901 -2.12132 -2.12132 
C -2.683901 -1.55874 -3 -0.795609 -3 0 
C -3 0.795609 -2.683901 1.55874 -2.12132 2.12132 
C -1.55874 2.683901 -0.795609 3 0 3 
z
" id="m48d2041c2a" style="stroke:#0000ff;"/>
    </defs>
    <g clip-path="url(#p22213fbe00)">
     <use style="fill:#0000ff;stroke:#0000ff;" x="150.088091" xlink:href="#m48d2041c2a" y="384.791617"/>
     <use style="fill:#0000ff;stroke:#0000ff;" x="184.822923" xlink:href="#m48d2041c2a" y="308.873288"/>
     <use style="fill:#0000ff;stroke:#0000ff;" x="219.557756" xlink:href="#m48d2041c2a" y="246.260243"/>
     <use style="fill:#0000ff;stroke:#0000ff;" x="254.292589" xlink:href="#m48d2041c2a" y="224.551542"/>
     <use style="fill:#0000ff;stroke:#0000ff;" x="289.027421" xlink:href="#m48d2041c2a" y="217.432563"/>
     <use style="fill:#0000ff;stroke:#0000ff;" x="323.762254" xlink:href="#m48d2041c2a" y="211.681974"/>
     <use style="fill:#0000ff;stroke:#0000ff;" x="358.497086" xlink:href="#m48d2041c2a" y="206.883984"/>
     <use style="fill:#0000ff;stroke:#0000ff;" x="393.231919" xlink:href="#m48d2041c2a" y="202.424099"/>
     <use style="fill:#0000ff;stroke:#0000ff;" x="427.966751" xlink:href="#m48d2041c2a" y="197.859955"/>
     <use style="fill:#0000ff;stroke:#0000ff;" x="462.701584" xlink:href="#m48d2041c2a" y="193.537398"/>
     <use style="fill:#0000ff;stroke:#0000ff;" x="497.436416" xlink:href="#m48d2041c2a" y="189.03068"/>
     <use style="fill:#0000ff;stroke:#0000ff;" x="532.171249" xlink:href="#m48d2041c2a" y="184.970178"/>
     <use style="fill:#0000ff;stroke:#0000ff;" x="566.906081" xlink:href="#m48d2041c2a" y="181.47795"/>
     <use style="fill:#0000ff;stroke:#0000ff;" x="601.640914" xlink:href="#m48d2041c2a" y="178.387195"/>
     <use style="fill:#0000ff;stroke:#0000ff;" x="636.375746" xlink:href="#m48d2041c2a" y="174.844854"/>
     <use style="fill:#0000ff;stroke:#0000ff;" x="671.110579" xlink:href="#m48d2041c2a" y="170.949821"/>
     <use style="fill:#0000ff;stroke:#0000ff;" x="705.845411" xlink:href="#m48d2041c2a" y="167.218937"/>
     <use style="fill:#0000ff;stroke:#0000ff;" x="740.580244" xlink:href="#m48d2041c2a" y="163.598199"/>
     <use style="fill:#0000ff;stroke:#0000ff;" x="775.315077" xlink:href="#m48d2041c2a" y="160.56525"/>
     <use style="fill:#0000ff;stroke:#0000ff;" x="810.049909" xlink:href="#m48d2041c2a" y="158.25977"/>
    </g>
   </g>
   <g id="line2d_40">
    <path clip-path="url(#p22213fbe00)" d="M 150.088091 388.042761 
L 184.822923 309.159518 
L 219.557756 246.27062 
L 254.292589 200.381233 
L 289.027421 165.128258 
L 323.762254 144.089857 
L 358.497086 128.750178 
L 393.231919 118.817669 
L 427.966751 112.414682 
L 462.701584 109.432433 
L 497.436416 107.161295 
L 532.171249 107.030391 
L 566.906081 107.719897 
L 601.640914 108.271751 
L 636.375746 109.281616 
L 671.110579 110.816944 
L 705.845411 112.394406 
L 740.580244 113.759873 
L 775.315077 115.399771 
L 810.049909 116.787193 
" style="fill:none;stroke:#ff0000;stroke-linecap:square;stroke-width:1.5;"/>
    <defs>
     <path d="M -0 3 
L 3 -3 
L -3 -3 
z
" id="m57e541ec53" style="stroke:#ff0000;stroke-linejoin:miter;"/>
    </defs>
    <g clip-path="url(#p22213fbe00)">
     <use style="fill:#ff0000;stroke:#ff0000;stroke-linejoin:miter;" x="150.088091" xlink:href="#m57e541ec53" y="388.042761"/>
     <use style="fill:#ff0000;stroke:#ff0000;stroke-linejoin:miter;" x="184.822923" xlink:href="#m57e541ec53" y="309.159518"/>
     <use style="fill:#ff0000;stroke:#ff0000;stroke-linejoin:miter;" x="219.557756" xlink:href="#m57e541ec53" y="246.27062"/>
     <use style="fill:#ff0000;stroke:#ff0000;stroke-linejoin:miter;" x="254.292589" xlink:href="#m57e541ec53" y="200.381233"/>
     <use style="fill:#ff0000;stroke:#ff0000;stroke-linejoin:miter;" x="289.027421" xlink:href="#m57e541ec53" y="165.128258"/>
     <use style="fill:#ff0000;stroke:#ff0000;stroke-linejoin:miter;" x="323.762254" xlink:href="#m57e541ec53" y="144.089857"/>
     <use style="fill:#ff0000;stroke:#ff0000;stroke-linejoin:miter;" x="358.497086" xlink:href="#m57e541ec53" y="128.750178"/>
     <use style="fill:#ff0000;stroke:#ff0000;stroke-linejoin:miter;" x="393.231919" xlink:href="#m57e541ec53" y="118.817669"/>
     <use style="fill:#ff0000;stroke:#ff0000;stroke-linejoin:miter;" x="427.966751" xlink:href="#m57e541ec53" y="112.414682"/>
     <use style="fill:#ff0000;stroke:#ff0000;stroke-linejoin:miter;" x="462.701584" xlink:href="#m57e541ec53" y="109.432433"/>
     <use style="fill:#ff0000;stroke:#ff0000;stroke-linejoin:miter;" x="497.436416" xlink:href="#m57e541ec53" y="107.161295"/>
     <use style="fill:#ff0000;stroke:#ff0000;stroke-linejoin:miter;" x="532.171249" xlink:href="#m57e541ec53" y="107.030391"/>
     <use style="fill:#ff0000;stroke:#ff0000;stroke-linejoin:miter;" x="566.906081" xlink:href="#m57e541ec53" y="107.719897"/>
     <use style="fill:#ff0000;stroke:#ff0000;stroke-linejoin:miter;" x="601.640914" xlink:href="#m57e541ec53" y="108.271751"/>
     <use style="fill:#ff0000;stroke:#ff0000;stroke-linejoin:miter;" x="636.375746" xlink:href="#m57e541ec53" y="109.281616"/>
     <use style="fill:#ff0000;stroke:#ff0000;stroke-linejoin:miter;" x="671.110579" xlink:href="#m57e541ec53" y="110.816944"/>
     <use style="fill:#ff0000;stroke:#ff0000;stroke-linejoin:miter;" x="705.845411" xlink:href="#m57e541ec53" y="112.394406"/>
     <use style="fill:#ff0000;stroke:#ff0000;stroke-linejoin:miter;" x="740.580244" xlink:href="#m57e541ec53" y="113.759873"/>
     <use style="fill:#ff0000;stroke:#ff0000;stroke-linejoin:miter;" x="775.315077" xlink:href="#m57e541ec53" y="115.399771"/>
     <use style="fill:#ff0000;stroke:#ff0000;stroke-linejoin:miter;" x="810.049909" xlink:href="#m57e541ec53" y="116.787193"/>
    </g>
   </g>
   <g id="line2d_41">
    <path clip-path="url(#p22213fbe00)" d="M 150.088091 388.293392 
L 184.822923 309.105969 
L 219.557756 242.723243 
L 254.292589 193.773238 
L 289.027421 152.921665 
L 323.762254 125.758829 
L 358.497086 105.812243 
L 393.231919 91.495628 
L 427.966751 82.093096 
L 462.701584 77.236521 
L 497.436416 75.412889 
L 532.171249 75.841032 
L 566.906081 78.208857 
L 601.640914 81.997409 
L 636.375746 87.126561 
L 671.110579 93.201886 
L 705.845411 99.836767 
L 740.580244 107.788045 
L 775.315077 115.76347 
L 810.049909 124.70803 
" style="fill:none;stroke:#ff0000;stroke-linecap:square;stroke-width:1.5;"/>
    <defs>
     <path d="M -3 3 
L 3 -3 
M -3 -3 
L 3 3 
" id="m870b1c54ca" style="stroke:#ff0000;"/>
    </defs>
    <g clip-path="url(#p22213fbe00)">
     <use style="fill:#ff0000;stroke:#ff0000;" x="150.088091" xlink:href="#m870b1c54ca" y="388.293392"/>
     <use style="fill:#ff0000;stroke:#ff0000;" x="184.822923" xlink:href="#m870b1c54ca" y="309.105969"/>
     <use style="fill:#ff0000;stroke:#ff0000;" x="219.557756" xlink:href="#m870b1c54ca" y="242.723243"/>
     <use style="fill:#ff0000;stroke:#ff0000;" x="254.292589" xlink:href="#m870b1c54ca" y="193.773238"/>
     <use style="fill:#ff0000;stroke:#ff0000;" x="289.027421" xlink:href="#m870b1c54ca" y="152.921665"/>
     <use style="fill:#ff0000;stroke:#ff0000;" x="323.762254" xlink:href="#m870b1c54ca" y="125.758829"/>
     <use style="fill:#ff0000;stroke:#ff0000;" x="358.497086" xlink:href="#m870b1c54ca" y="105.812243"/>
     <use style="fill:#ff0000;stroke:#ff0000;" x="393.231919" xlink:href="#m870b1c54ca" y="91.495628"/>
     <use style="fill:#ff0000;stroke:#ff0000;" x="427.966751" xlink:href="#m870b1c54ca" y="82.093096"/>
     <use style="fill:#ff0000;stroke:#ff0000;" x="462.701584" xlink:href="#m870b1c54ca" y="77.236521"/>
     <use style="fill:#ff0000;stroke:#ff0000;" x="497.436416" xlink:href="#m870b1c54ca" y="75.412889"/>
     <use style="fill:#ff0000;stroke:#ff0000;" x="532.171249" xlink:href="#m870b1c54ca" y="75.841032"/>
     <use style="fill:#ff0000;stroke:#ff0000;" x="566.906081" xlink:href="#m870b1c54ca" y="78.208857"/>
     <use style="fill:#ff0000;stroke:#ff0000;" x="601.640914" xlink:href="#m870b1c54ca" y="81.997409"/>
     <use style="fill:#ff0000;stroke:#ff0000;" x="636.375746" xlink:href="#m870b1c54ca" y="87.126561"/>
     <use style="fill:#ff0000;stroke:#ff0000;" x="671.110579" xlink:href="#m870b1c54ca" y="93.201886"/>
     <use style="fill:#ff0000;stroke:#ff0000;" x="705.845411" xlink:href="#m870b1c54ca" y="99.836767"/>
     <use style="fill:#ff0000;stroke:#ff0000;" x="740.580244" xlink:href="#m870b1c54ca" y="107.788045"/>
     <use style="fill:#ff0000;stroke:#ff0000;" x="775.315077" xlink:href="#m870b1c54ca" y="115.76347"/>
     <use style="fill:#ff0000;stroke:#ff0000;" x="810.049909" xlink:href="#m870b1c54ca" y="124.70803"/>
    </g>
   </g>
   <g id="line2d_42">
    <path clip-path="url(#p22213fbe00)" d="M 150.088091 387.271824 
L 184.822923 307.061928 
L 219.557756 245.676493 
L 254.292589 192.107052 
L 289.027421 154.485927 
L 323.762254 125.793206 
L 358.497086 106.356231 
L 393.231919 91.321626 
L 427.966751 82.307359 
L 462.701584 77.465895 
L 497.436416 75.2184 
L 532.171249 76.152528 
L 566.906081 78.31246 
L 601.640914 82.065258 
L 636.375746 87.388602 
L 671.110579 93.450889 
L 705.845411 100.231715 
L 740.580244 107.952698 
L 775.315077 116.470681 
L 810.049909 125.382102 
" style="fill:none;stroke:#ff0000;stroke-linecap:square;stroke-width:1.5;"/>
    <defs>
     <path d="M 0 3 
C 0.795609 3 1.55874 2.683901 2.12132 2.12132 
C 2.683901 1.55874 3 0.795609 3 0 
C 3 -0.795609 2.683901 -1.55874 2.12132 -2.12132 
C 1.55874 -2.683901 0.795609 -3 0 -3 
C -0.795609 -3 -1.55874 -2.683901 -2.12132 -2.12132 
C -2.683901 -1.55874 -3 -0.795609 -3 0 
C -3 0.795609 -2.683901 1.55874 -2.12132 2.12132 
C -1.55874 2.683901 -0.795609 3 0 3 
z
" id="m0e98f6f5de" style="stroke:#ff0000;"/>
    </defs>
    <g clip-path="url(#p22213fbe00)">
     <use style="fill:#ff0000;stroke:#ff0000;" x="150.088091" xlink:href="#m0e98f6f5de" y="387.271824"/>
     <use style="fill:#ff0000;stroke:#ff0000;" x="184.822923" xlink:href="#m0e98f6f5de" y="307.061928"/>
     <use style="fill:#ff0000;stroke:#ff0000;" x="219.557756" xlink:href="#m0e98f6f5de" y="245.676493"/>
     <use style="fill:#ff0000;stroke:#ff0000;" x="254.292589" xlink:href="#m0e98f6f5de" y="192.107052"/>
     <use style="fill:#ff0000;stroke:#ff0000;" x="289.027421" xlink:href="#m0e98f6f5de" y="154.485927"/>
     <use style="fill:#ff0000;stroke:#ff0000;" x="323.762254" xlink:href="#m0e98f6f5de" y="125.793206"/>
     <use style="fill:#ff0000;stroke:#ff0000;" x="358.497086" xlink:href="#m0e98f6f5de" y="106.356231"/>
     <use style="fill:#ff0000;stroke:#ff0000;" x="393.231919" xlink:href="#m0e98f6f5de" y="91.321626"/>
     <use style="fill:#ff0000;stroke:#ff0000;" x="427.966751" xlink:href="#m0e98f6f5de" y="82.307359"/>
     <use style="fill:#ff0000;stroke:#ff0000;" x="462.701584" xlink:href="#m0e98f6f5de" y="77.465895"/>
     <use style="fill:#ff0000;stroke:#ff0000;" x="497.436416" xlink:href="#m0e98f6f5de" y="75.2184"/>
     <use style="fill:#ff0000;stroke:#ff0000;" x="532.171249" xlink:href="#m0e98f6f5de" y="76.152528"/>
     <use style="fill:#ff0000;stroke:#ff0000;" x="566.906081" xlink:href="#m0e98f6f5de" y="78.31246"/>
     <use style="fill:#ff0000;stroke:#ff0000;" x="601.640914" xlink:href="#m0e98f6f5de" y="82.065258"/>
     <use style="fill:#ff0000;stroke:#ff0000;" x="636.375746" xlink:href="#m0e98f6f5de" y="87.388602"/>
     <use style="fill:#ff0000;stroke:#ff0000;" x="671.110579" xlink:href="#m0e98f6f5de" y="93.450889"/>
     <use style="fill:#ff0000;stroke:#ff0000;" x="705.845411" xlink:href="#m0e98f6f5de" y="100.231715"/>
     <use style="fill:#ff0000;stroke:#ff0000;" x="740.580244" xlink:href="#m0e98f6f5de" y="107.952698"/>
     <use style="fill:#ff0000;stroke:#ff0000;" x="775.315077" xlink:href="#m0e98f6f5de" y="116.470681"/>
     <use style="fill:#ff0000;stroke:#ff0000;" x="810.049909" xlink:href="#m0e98f6f5de" y="125.382102"/>
    </g>
   </g>
   <g id="patch_3">
    <path d="M 117.09 431.8992 
L 117.09 58.2336 
" style="fill:none;stroke:#000000;stroke-linecap:square;stroke-linejoin:miter;stroke-width:0.8;"/>
   </g>
   <g id="patch_4">
    <path d="M 843.048 431.8992 
L 843.048 58.2336 
" style="fill:none;stroke:#000000;stroke-linecap:square;stroke-linejoin:miter;stroke-width:0.8;"/>
   </g>
   <g id="patch_5">
    <path d="M 117.09 431.8992 
L 843.048 431.8992 
" style="fill:none;stroke:#000000;stroke-linecap:square;stroke-linejoin:miter;stroke-width:0.8;"/>
   </g>
   <g id="patch_6">
    <path d="M 117.09 58.2336 
L 843.048 58.2336 
" style="fill:none;stroke:#000000;stroke-linecap:square;stroke-linejoin:miter;stroke-width:0.8;"/>
   </g>
   <g id="legend_1">
    <g id="patch_7">
     <path d="M 641.473 423.8992 
L 831.848 423.8992 
Q 835.048 423.8992 835.048 420.6992 
L 835.048 281.3892 
Q 835.048 278.1892 831.848 278.1892 
L 641.473 278.1892 
Q 638.273 278.1892 638.273 281.3892 
L 638.273 420.6992 
Q 638.273 423.8992 641.473 423.8992 
z
" style="fill:#ffffff;opacity:0.8;stroke:#cccccc;stroke-linejoin:miter;"/>
    </g>
    <g id="line2d_43">
     <path d="M 644.673 291.1467 
L 676.673 291.1467 
" style="fill:none;stroke:#0000ff;stroke-linecap:square;stroke-width:1.5;"/>
    </g>
    <g id="line2d_44">
     <defs>
      <path d="M -0 6 
L 6 -6 
L -6 -6 
z
" id="maca2afca81" style="stroke:#0000ff;stroke-linejoin:miter;"/>
     </defs>
     <g>
      <use style="fill:#0000ff;stroke:#0000ff;stroke-linejoin:miter;" x="660.673" xlink:href="#maca2afca81" y="291.1467"/>
     </g>
    </g>
    <g id="text_21">
     <!-- middle K=100 -->
     <defs>
      <path d="M 45.40625 46.390625 
L 45.40625 75.984375 
L 54.390625 75.984375 
L 54.390625 0 
L 45.40625 0 
L 45.40625 8.203125 
Q 42.578125 3.328125 38.25 0.953125 
Q 33.9375 -1.421875 27.875 -1.421875 
Q 17.96875 -1.421875 11.734375 6.484375 
Q 5.515625 14.40625 5.515625 27.296875 
Q 5.515625 40.1875 11.734375 48.09375 
Q 17.96875 56 27.875 56 
Q 33.9375 56 38.25 53.625 
Q 42.578125 51.265625 45.40625 46.390625 
M 14.796875 27.296875 
Q 14.796875 17.390625 18.875 11.75 
Q 22.953125 6.109375 30.078125 6.109375 
Q 37.203125 6.109375 41.296875 11.75 
Q 45.40625 17.390625 45.40625 27.296875 
Q 45.40625 37.203125 41.296875 42.84375 
Q 37.203125 48.484375 30.078125 48.484375 
Q 22.953125 48.484375 18.875 42.84375 
Q 14.796875 37.203125 14.796875 27.296875 
" id="DejaVuSans-64"/>
      <path d="M 9.8125 72.90625 
L 19.671875 72.90625 
L 19.671875 42.09375 
L 52.390625 72.90625 
L 65.09375 72.90625 
L 28.90625 38.921875 
L 67.671875 0 
L 54.6875 0 
L 19.671875 35.109375 
L 19.671875 0 
L 9.8125 0 
z
" id="DejaVuSans-4b"/>
      <path d="M 10.59375 45.40625 
L 73.1875 45.40625 
L 73.1875 37.203125 
L 10.59375 37.203125 
z
M 10.59375 25.484375 
L 73.1875 25.484375 
L 73.1875 17.1875 
L 10.59375 17.1875 
z
" id="DejaVuSans-3d"/>
     </defs>
     <g transform="translate(689.473 296.7467)scale(0.16 -0.16)">
      <use xlink:href="#DejaVuSans-6d"/>
      <use x="97.412109" xlink:href="#DejaVuSans-69"/>
      <use x="125.195312" xlink:href="#DejaVuSans-64"/>
      <use x="188.671875" xlink:href="#DejaVuSans-64"/>
      <use x="252.148438" xlink:href="#DejaVuSans-6c"/>
      <use x="279.931641" xlink:href="#DejaVuSans-65"/>
      <use x="341.455078" xlink:href="#DejaVuSans-20"/>
      <use x="373.242188" xlink:href="#DejaVuSans-4b"/>
      <use x="438.818359" xlink:href="#DejaVuSans-3d"/>
      <use x="522.607422" xlink:href="#DejaVuSans-31"/>
      <use x="586.230469" xlink:href="#DejaVuSans-30"/>
      <use x="649.853516" xlink:href="#DejaVuSans-30"/>
     </g>
    </g>
    <g id="line2d_45">
     <path d="M 644.673 314.6317 
L 676.673 314.6317 
" style="fill:none;stroke:#0000ff;stroke-linecap:square;stroke-width:1.5;"/>
    </g>
    <g id="line2d_46">
     <defs>
      <path d="M -6 6 
L 6 -6 
M -6 -6 
L 6 6 
" id="m9e43b278ad" style="stroke:#0000ff;"/>
     </defs>
     <g>
      <use style="fill:#0000ff;stroke:#0000ff;" x="660.673" xlink:href="#m9e43b278ad" y="314.6317"/>
     </g>
    </g>
    <g id="text_22">
     <!-- middle K=200 -->
     <g transform="translate(689.473 320.2317)scale(0.16 -0.16)">
      <use xlink:href="#DejaVuSans-6d"/>
      <use x="97.412109" xlink:href="#DejaVuSans-69"/>
      <use x="125.195312" xlink:href="#DejaVuSans-64"/>
      <use x="188.671875" xlink:href="#DejaVuSans-64"/>
      <use x="252.148438" xlink:href="#DejaVuSans-6c"/>
      <use x="279.931641" xlink:href="#DejaVuSans-65"/>
      <use x="341.455078" xlink:href="#DejaVuSans-20"/>
      <use x="373.242188" xlink:href="#DejaVuSans-4b"/>
      <use x="438.818359" xlink:href="#DejaVuSans-3d"/>
      <use x="522.607422" xlink:href="#DejaVuSans-32"/>
      <use x="586.230469" xlink:href="#DejaVuSans-30"/>
      <use x="649.853516" xlink:href="#DejaVuSans-30"/>
     </g>
    </g>
    <g id="line2d_47">
     <path d="M 644.673 338.1167 
L 676.673 338.1167 
" style="fill:none;stroke:#0000ff;stroke-linecap:square;stroke-width:1.5;"/>
    </g>
    <g id="line2d_48">
     <defs>
      <path d="M 0 6 
C 1.591219 6 3.117479 5.367802 4.242641 4.242641 
C 5.367802 3.117479 6 1.591219 6 0 
C 6 -1.591219 5.367802 -3.117479 4.242641 -4.242641 
C 3.117479 -5.367802 1.591219 -6 0 -6 
C -1.591219 -6 -3.117479 -5.367802 -4.242641 -4.242641 
C -5.367802 -3.117479 -6 -1.591219 -6 0 
C -6 1.591219 -5.367802 3.117479 -4.242641 4.242641 
C -3.117479 5.367802 -1.591219 6 0 6 
z
" id="md2e16804e8" style="stroke:#0000ff;"/>
     </defs>
     <g>
      <use style="fill:#0000ff;stroke:#0000ff;" x="660.673" xlink:href="#md2e16804e8" y="338.1167"/>
     </g>
    </g>
    <g id="text_23">
     <!-- middle K=500 -->
     <g transform="translate(689.473 343.7167)scale(0.16 -0.16)">
      <use xlink:href="#DejaVuSans-6d"/>
      <use x="97.412109" xlink:href="#DejaVuSans-69"/>
      <use x="125.195312" xlink:href="#DejaVuSans-64"/>
      <use x="188.671875" xlink:href="#DejaVuSans-64"/>
      <use x="252.148438" xlink:href="#DejaVuSans-6c"/>
      <use x="279.931641" xlink:href="#DejaVuSans-65"/>
      <use x="341.455078" xlink:href="#DejaVuSans-20"/>
      <use x="373.242188" xlink:href="#DejaVuSans-4b"/>
      <use x="438.818359" xlink:href="#DejaVuSans-3d"/>
      <use x="522.607422" xlink:href="#DejaVuSans-35"/>
      <use x="586.230469" xlink:href="#DejaVuSans-30"/>
      <use x="649.853516" xlink:href="#DejaVuSans-30"/>
     </g>
    </g>
    <g id="line2d_49">
     <path d="M 644.673 361.6017 
L 676.673 361.6017 
" style="fill:none;stroke:#ff0000;stroke-linecap:square;stroke-width:1.5;"/>
    </g>
    <g id="line2d_50">
     <defs>
      <path d="M -0 6 
L 6 -6 
L -6 -6 
z
" id="md72b9e9d77" style="stroke:#ff0000;stroke-linejoin:miter;"/>
     </defs>
     <g>
      <use style="fill:#ff0000;stroke:#ff0000;stroke-linejoin:miter;" x="660.673" xlink:href="#md72b9e9d77" y="361.6017"/>
     </g>
    </g>
    <g id="text_24">
     <!-- no middle K=100 -->
     <g transform="translate(689.473 367.2017)scale(0.16 -0.16)">
      <use xlink:href="#DejaVuSans-6e"/>
      <use x="63.378906" xlink:href="#DejaVuSans-6f"/>
      <use x="124.560547" xlink:href="#DejaVuSans-20"/>
      <use x="156.347656" xlink:href="#DejaVuSans-6d"/>
      <use x="253.759766" xlink:href="#DejaVuSans-69"/>
      <use x="281.542969" xlink:href="#DejaVuSans-64"/>
      <use x="345.019531" xlink:href="#DejaVuSans-64"/>
      <use x="408.496094" xlink:href="#DejaVuSans-6c"/>
      <use x="436.279297" xlink:href="#DejaVuSans-65"/>
      <use x="497.802734" xlink:href="#DejaVuSans-20"/>
      <use x="529.589844" xlink:href="#DejaVuSans-4b"/>
      <use x="595.166016" xlink:href="#DejaVuSans-3d"/>
      <use x="678.955078" xlink:href="#DejaVuSans-31"/>
      <use x="742.578125" xlink:href="#DejaVuSans-30"/>
      <use x="806.201172" xlink:href="#DejaVuSans-30"/>
     </g>
    </g>
    <g id="line2d_51">
     <path d="M 644.673 385.0867 
L 676.673 385.0867 
" style="fill:none;stroke:#ff0000;stroke-linecap:square;stroke-width:1.5;"/>
    </g>
    <g id="line2d_52">
     <defs>
      <path d="M -6 6 
L 6 -6 
M -6 -6 
L 6 6 
" id="m205165337e" style="stroke:#ff0000;"/>
     </defs>
     <g>
      <use style="fill:#ff0000;stroke:#ff0000;" x="660.673" xlink:href="#m205165337e" y="385.0867"/>
     </g>
    </g>
    <g id="text_25">
     <!-- no middle K=200 -->
     <g transform="translate(689.473 390.6867)scale(0.16 -0.16)">
      <use xlink:href="#DejaVuSans-6e"/>
      <use x="63.378906" xlink:href="#DejaVuSans-6f"/>
      <use x="124.560547" xlink:href="#DejaVuSans-20"/>
      <use x="156.347656" xlink:href="#DejaVuSans-6d"/>
      <use x="253.759766" xlink:href="#DejaVuSans-69"/>
      <use x="281.542969" xlink:href="#DejaVuSans-64"/>
      <use x="345.019531" xlink:href="#DejaVuSans-64"/>
      <use x="408.496094" xlink:href="#DejaVuSans-6c"/>
      <use x="436.279297" xlink:href="#DejaVuSans-65"/>
      <use x="497.802734" xlink:href="#DejaVuSans-20"/>
      <use x="529.589844" xlink:href="#DejaVuSans-4b"/>
      <use x="595.166016" xlink:href="#DejaVuSans-3d"/>
      <use x="678.955078" xlink:href="#DejaVuSans-32"/>
      <use x="742.578125" xlink:href="#DejaVuSans-30"/>
      <use x="806.201172" xlink:href="#DejaVuSans-30"/>
     </g>
    </g>
    <g id="line2d_53">
     <path d="M 644.673 408.5717 
L 676.673 408.5717 
" style="fill:none;stroke:#ff0000;stroke-linecap:square;stroke-width:1.5;"/>
    </g>
    <g id="line2d_54">
     <defs>
      <path d="M 0 6 
C 1.591219 6 3.117479 5.367802 4.242641 4.242641 
C 5.367802 3.117479 6 1.591219 6 0 
C 6 -1.591219 5.367802 -3.117479 4.242641 -4.242641 
C 3.117479 -5.367802 1.591219 -6 0 -6 
C -1.591219 -6 -3.117479 -5.367802 -4.242641 -4.242641 
C -5.367802 -3.117479 -6 -1.591219 -6 0 
C -6 1.591219 -5.367802 3.117479 -4.242641 4.242641 
C -3.117479 5.367802 -1.591219 6 0 6 
z
" id="m0144c89587" style="stroke:#ff0000;"/>
     </defs>
     <g>
      <use style="fill:#ff0000;stroke:#ff0000;" x="660.673" xlink:href="#m0144c89587" y="408.5717"/>
     </g>
    </g>
    <g id="text_26">
     <!-- no middle K=500 -->
     <g transform="translate(689.473 414.1717)scale(0.16 -0.16)">
      <use xlink:href="#DejaVuSans-6e"/>
      <use x="63.378906" xlink:href="#DejaVuSans-6f"/>
      <use x="124.560547" xlink:href="#DejaVuSans-20"/>
      <use x="156.347656" xlink:href="#DejaVuSans-6d"/>
      <use x="253.759766" xlink:href="#DejaVuSans-69"/>
      <use x="281.542969" xlink:href="#DejaVuSans-64"/>
      <use x="345.019531" xlink:href="#DejaVuSans-64"/>
      <use x="408.496094" xlink:href="#DejaVuSans-6c"/>
      <use x="436.279297" xlink:href="#DejaVuSans-65"/>
      <use x="497.802734" xlink:href="#DejaVuSans-20"/>
      <use x="529.589844" xlink:href="#DejaVuSans-4b"/>
      <use x="595.166016" xlink:href="#DejaVuSans-3d"/>
      <use x="678.955078" xlink:href="#DejaVuSans-35"/>
      <use x="742.578125" xlink:href="#DejaVuSans-30"/>
      <use x="806.201172" xlink:href="#DejaVuSans-30"/>
     </g>
    </g>
   </g>
  </g>
 </g>
 <defs>
  <clipPath id="p22213fbe00">
   <rect height="373.6656" width="725.958" x="117.09" y="58.2336"/>
  </clipPath>
 </defs>
</svg>
