<?xml version="1.0" encoding="utf-8" standalone="no"?>
<!DOCTYPE svg PUBLIC "-//W3C//DTD SVG 1.1//EN"
  "http://www.w3.org/Graphics/SVG/1.1/DTD/svg11.dtd">
<!-- Created with matplotlib (http://matplotlib.org/) -->
<svg height="485pt" version="1.1" viewBox="0 0 936 485" width="936pt" xmlns="http://www.w3.org/2000/svg" xmlns:xlink="http://www.w3.org/1999/xlink">
 <defs>
  <style type="text/css">
*{stroke-linecap:butt;stroke-linejoin:round;}
  </style>
 </defs>
 <g id="figure_1">
  <g id="patch_1">
   <path d="M 0 485.28 
L 936.72 485.28 
L 936.72 0 
L 0 0 
z
" style="fill:#ffffff;"/>
  </g>
  <g id="axes_1">
   <g id="patch_2">
    <path d="M 117.09 431.8992 
L 843.048 431.8992 
L 843.048 58.2336 
L 117.09 58.2336 
z
" style="fill:#ffffff;"/>
   </g>
   <g id="matplotlib.axis_1">
    <g id="xtick_1">
     <g id="line2d_1">
      <path clip-path="url(#pef95e9bbbb)" d="M 150.088091 431.8992 
L 150.088091 58.2336 
" style="fill:none;stroke:#b0b0b0;stroke-linecap:square;stroke-width:0.8;"/>
     </g>
     <g id="line2d_2">
      <defs>
       <path d="M 0 0 
L 0 3.5 
" id="m53b5aa5201" style="stroke:#000000;stroke-width:0.8;"/>
      </defs>
      <g>
       <use style="stroke:#000000;stroke-width:0.8;" x="150.088091" xlink:href="#m53b5aa5201" y="431.8992"/>
      </g>
     </g>
     <g id="text_1">
      <!-- 1 -->
      <defs>
       <path d="M 12.40625 8.296875 
L 28.515625 8.296875 
L 28.515625 63.921875 
L 10.984375 60.40625 
L 10.984375 69.390625 
L 28.421875 72.90625 
L 38.28125 72.90625 
L 38.28125 8.296875 
L 54.390625 8.296875 
L 54.390625 0 
L 12.40625 0 
z
" id="DejaVuSans-31"/>
      </defs>
      <g transform="translate(146.906841 446.497638)scale(0.1 -0.1)">
       <use xlink:href="#DejaVuSans-31"/>
      </g>
     </g>
    </g>
    <g id="xtick_2">
     <g id="line2d_3">
      <path clip-path="url(#pef95e9bbbb)" d="M 223.417182 431.8992 
L 223.417182 58.2336 
" style="fill:none;stroke:#b0b0b0;stroke-linecap:square;stroke-width:0.8;"/>
     </g>
     <g id="line2d_4">
      <g>
       <use style="stroke:#000000;stroke-width:0.8;" x="223.417182" xlink:href="#m53b5aa5201" y="431.8992"/>
      </g>
     </g>
     <g id="text_2">
      <!-- 3 -->
      <defs>
       <path d="M 40.578125 39.3125 
Q 47.65625 37.796875 51.625 33 
Q 55.609375 28.21875 55.609375 21.1875 
Q 55.609375 10.40625 48.1875 4.484375 
Q 40.765625 -1.421875 27.09375 -1.421875 
Q 22.515625 -1.421875 17.65625 -0.515625 
Q 12.796875 0.390625 7.625 2.203125 
L 7.625 11.71875 
Q 11.71875 9.328125 16.59375 8.109375 
Q 21.484375 6.890625 26.8125 6.890625 
Q 36.078125 6.890625 40.9375 10.546875 
Q 45.796875 14.203125 45.796875 21.1875 
Q 45.796875 27.640625 41.28125 31.265625 
Q 36.765625 34.90625 28.71875 34.90625 
L 20.21875 34.90625 
L 20.21875 43.015625 
L 29.109375 43.015625 
Q 36.375 43.015625 40.234375 45.921875 
Q 44.09375 48.828125 44.09375 54.296875 
Q 44.09375 59.90625 40.109375 62.90625 
Q 36.140625 65.921875 28.71875 65.921875 
Q 24.65625 65.921875 20.015625 65.03125 
Q 15.375 64.15625 9.8125 62.3125 
L 9.8125 71.09375 
Q 15.4375 72.65625 20.34375 73.4375 
Q 25.25 74.21875 29.59375 74.21875 
Q 40.828125 74.21875 47.359375 69.109375 
Q 53.90625 64.015625 53.90625 55.328125 
Q 53.90625 49.265625 50.4375 45.09375 
Q 46.96875 40.921875 40.578125 39.3125 
" id="DejaVuSans-33"/>
      </defs>
      <g transform="translate(220.235932 446.497638)scale(0.1 -0.1)">
       <use xlink:href="#DejaVuSans-33"/>
      </g>
     </g>
    </g>
    <g id="xtick_3">
     <g id="line2d_5">
      <path clip-path="url(#pef95e9bbbb)" d="M 296.746273 431.8992 
L 296.746273 58.2336 
" style="fill:none;stroke:#b0b0b0;stroke-linecap:square;stroke-width:0.8;"/>
     </g>
     <g id="line2d_6">
      <g>
       <use style="stroke:#000000;stroke-width:0.8;" x="296.746273" xlink:href="#m53b5aa5201" y="431.8992"/>
      </g>
     </g>
     <g id="text_3">
      <!-- 5 -->
      <defs>
       <path d="M 10.796875 72.90625 
L 49.515625 72.90625 
L 49.515625 64.59375 
L 19.828125 64.59375 
L 19.828125 46.734375 
Q 21.96875 47.46875 24.109375 47.828125 
Q 26.265625 48.1875 28.421875 48.1875 
Q 40.625 48.1875 47.75 41.5 
Q 54.890625 34.8125 54.890625 23.390625 
Q 54.890625 11.625 47.5625 5.09375 
Q 40.234375 -1.421875 26.90625 -1.421875 
Q 22.3125 -1.421875 17.546875 -0.640625 
Q 12.796875 0.140625 7.71875 1.703125 
L 7.71875 11.625 
Q 12.109375 9.234375 16.796875 8.0625 
Q 21.484375 6.890625 26.703125 6.890625 
Q 35.15625 6.890625 40.078125 11.328125 
Q 45.015625 15.765625 45.015625 23.390625 
Q 45.015625 31 40.078125 35.4375 
Q 35.15625 39.890625 26.703125 39.890625 
Q 22.75 39.890625 18.8125 39.015625 
Q 14.890625 38.140625 10.796875 36.28125 
z
" id="DejaVuSans-35"/>
      </defs>
      <g transform="translate(293.565023 446.497638)scale(0.1 -0.1)">
       <use xlink:href="#DejaVuSans-35"/>
      </g>
     </g>
    </g>
    <g id="xtick_4">
     <g id="line2d_7">
      <path clip-path="url(#pef95e9bbbb)" d="M 370.075364 431.8992 
L 370.075364 58.2336 
" style="fill:none;stroke:#b0b0b0;stroke-linecap:square;stroke-width:0.8;"/>
     </g>
     <g id="line2d_8">
      <g>
       <use style="stroke:#000000;stroke-width:0.8;" x="370.075364" xlink:href="#m53b5aa5201" y="431.8992"/>
      </g>
     </g>
     <g id="text_4">
      <!-- 7 -->
      <defs>
       <path d="M 8.203125 72.90625 
L 55.078125 72.90625 
L 55.078125 68.703125 
L 28.609375 0 
L 18.3125 0 
L 43.21875 64.59375 
L 8.203125 64.59375 
z
" id="DejaVuSans-37"/>
      </defs>
      <g transform="translate(366.894114 446.497638)scale(0.1 -0.1)">
       <use xlink:href="#DejaVuSans-37"/>
      </g>
     </g>
    </g>
    <g id="xtick_5">
     <g id="line2d_9">
      <path clip-path="url(#pef95e9bbbb)" d="M 443.404455 431.8992 
L 443.404455 58.2336 
" style="fill:none;stroke:#b0b0b0;stroke-linecap:square;stroke-width:0.8;"/>
     </g>
     <g id="line2d_10">
      <g>
       <use style="stroke:#000000;stroke-width:0.8;" x="443.404455" xlink:href="#m53b5aa5201" y="431.8992"/>
      </g>
     </g>
     <g id="text_5">
      <!-- 9 -->
      <defs>
       <path d="M 10.984375 1.515625 
L 10.984375 10.5 
Q 14.703125 8.734375 18.5 7.8125 
Q 22.3125 6.890625 25.984375 6.890625 
Q 35.75 6.890625 40.890625 13.453125 
Q 46.046875 20.015625 46.78125 33.40625 
Q 43.953125 29.203125 39.59375 26.953125 
Q 35.25 24.703125 29.984375 24.703125 
Q 19.046875 24.703125 12.671875 31.3125 
Q 6.296875 37.9375 6.296875 49.421875 
Q 6.296875 60.640625 12.9375 67.421875 
Q 19.578125 74.21875 30.609375 74.21875 
Q 43.265625 74.21875 49.921875 64.515625 
Q 56.59375 54.828125 56.59375 36.375 
Q 56.59375 19.140625 48.40625 8.859375 
Q 40.234375 -1.421875 26.421875 -1.421875 
Q 22.703125 -1.421875 18.890625 -0.6875 
Q 15.09375 0.046875 10.984375 1.515625 
M 30.609375 32.421875 
Q 37.25 32.421875 41.125 36.953125 
Q 45.015625 41.5 45.015625 49.421875 
Q 45.015625 57.28125 41.125 61.84375 
Q 37.25 66.40625 30.609375 66.40625 
Q 23.96875 66.40625 20.09375 61.84375 
Q 16.21875 57.28125 16.21875 49.421875 
Q 16.21875 41.5 20.09375 36.953125 
Q 23.96875 32.421875 30.609375 32.421875 
" id="DejaVuSans-39"/>
      </defs>
      <g transform="translate(440.223205 446.497638)scale(0.1 -0.1)">
       <use xlink:href="#DejaVuSans-39"/>
      </g>
     </g>
    </g>
    <g id="xtick_6">
     <g id="line2d_11">
      <path clip-path="url(#pef95e9bbbb)" d="M 516.733545 431.8992 
L 516.733545 58.2336 
" style="fill:none;stroke:#b0b0b0;stroke-linecap:square;stroke-width:0.8;"/>
     </g>
     <g id="line2d_12">
      <g>
       <use style="stroke:#000000;stroke-width:0.8;" x="516.733545" xlink:href="#m53b5aa5201" y="431.8992"/>
      </g>
     </g>
     <g id="text_6">
      <!-- 11 -->
      <g transform="translate(510.371045 446.497638)scale(0.1 -0.1)">
       <use xlink:href="#DejaVuSans-31"/>
       <use x="63.623047" xlink:href="#DejaVuSans-31"/>
      </g>
     </g>
    </g>
    <g id="xtick_7">
     <g id="line2d_13">
      <path clip-path="url(#pef95e9bbbb)" d="M 590.062636 431.8992 
L 590.062636 58.2336 
" style="fill:none;stroke:#b0b0b0;stroke-linecap:square;stroke-width:0.8;"/>
     </g>
     <g id="line2d_14">
      <g>
       <use style="stroke:#000000;stroke-width:0.8;" x="590.062636" xlink:href="#m53b5aa5201" y="431.8992"/>
      </g>
     </g>
     <g id="text_7">
      <!-- 13 -->
      <g transform="translate(583.700136 446.497638)scale(0.1 -0.1)">
       <use xlink:href="#DejaVuSans-31"/>
       <use x="63.623047" xlink:href="#DejaVuSans-33"/>
      </g>
     </g>
    </g>
    <g id="xtick_8">
     <g id="line2d_15">
      <path clip-path="url(#pef95e9bbbb)" d="M 663.391727 431.8992 
L 663.391727 58.2336 
" style="fill:none;stroke:#b0b0b0;stroke-linecap:square;stroke-width:0.8;"/>
     </g>
     <g id="line2d_16">
      <g>
       <use style="stroke:#000000;stroke-width:0.8;" x="663.391727" xlink:href="#m53b5aa5201" y="431.8992"/>
      </g>
     </g>
     <g id="text_8">
      <!-- 15 -->
      <g transform="translate(657.029227 446.497638)scale(0.1 -0.1)">
       <use xlink:href="#DejaVuSans-31"/>
       <use x="63.623047" xlink:href="#DejaVuSans-35"/>
      </g>
     </g>
    </g>
    <g id="xtick_9">
     <g id="line2d_17">
      <path clip-path="url(#pef95e9bbbb)" d="M 736.720818 431.8992 
L 736.720818 58.2336 
" style="fill:none;stroke:#b0b0b0;stroke-linecap:square;stroke-width:0.8;"/>
     </g>
     <g id="line2d_18">
      <g>
       <use style="stroke:#000000;stroke-width:0.8;" x="736.720818" xlink:href="#m53b5aa5201" y="431.8992"/>
      </g>
     </g>
     <g id="text_9">
      <!-- 17 -->
      <g transform="translate(730.358318 446.497638)scale(0.1 -0.1)">
       <use xlink:href="#DejaVuSans-31"/>
       <use x="63.623047" xlink:href="#DejaVuSans-37"/>
      </g>
     </g>
    </g>
    <g id="xtick_10">
     <g id="line2d_19">
      <path clip-path="url(#pef95e9bbbb)" d="M 810.049909 431.8992 
L 810.049909 58.2336 
" style="fill:none;stroke:#b0b0b0;stroke-linecap:square;stroke-width:0.8;"/>
     </g>
     <g id="line2d_20">
      <g>
       <use style="stroke:#000000;stroke-width:0.8;" x="810.049909" xlink:href="#m53b5aa5201" y="431.8992"/>
      </g>
     </g>
     <g id="text_10">
      <!-- 19 -->
      <g transform="translate(803.687409 446.497638)scale(0.1 -0.1)">
       <use xlink:href="#DejaVuSans-31"/>
       <use x="63.623047" xlink:href="#DejaVuSans-39"/>
      </g>
     </g>
    </g>
    <g id="text_11">
     <!-- Arrival rate($\lambda$) -->
     <defs>
      <path d="M 34.1875 63.1875 
L 20.796875 26.90625 
L 47.609375 26.90625 
z
M 28.609375 72.90625 
L 39.796875 72.90625 
L 67.578125 0 
L 57.328125 0 
L 50.6875 18.703125 
L 17.828125 18.703125 
L 11.1875 0 
L 0.78125 0 
z
" id="DejaVuSans-41"/>
      <path d="M 41.109375 46.296875 
Q 39.59375 47.171875 37.8125 47.578125 
Q 36.03125 48 33.890625 48 
Q 26.265625 48 22.1875 43.046875 
Q 18.109375 38.09375 18.109375 28.8125 
L 18.109375 0 
L 9.078125 0 
L 9.078125 54.6875 
L 18.109375 54.6875 
L 18.109375 46.1875 
Q 20.953125 51.171875 25.484375 53.578125 
Q 30.03125 56 36.53125 56 
Q 37.453125 56 38.578125 55.875 
Q 39.703125 55.765625 41.0625 55.515625 
z
" id="DejaVuSans-72"/>
      <path d="M 9.421875 54.6875 
L 18.40625 54.6875 
L 18.40625 0 
L 9.421875 0 
z
M 9.421875 75.984375 
L 18.40625 75.984375 
L 18.40625 64.59375 
L 9.421875 64.59375 
z
" id="DejaVuSans-69"/>
      <path d="M 2.984375 54.6875 
L 12.5 54.6875 
L 29.59375 8.796875 
L 46.6875 54.6875 
L 56.203125 54.6875 
L 35.6875 0 
L 23.484375 0 
z
" id="DejaVuSans-76"/>
      <path d="M 34.28125 27.484375 
Q 23.390625 27.484375 19.1875 25 
Q 14.984375 22.515625 14.984375 16.5 
Q 14.984375 11.71875 18.140625 8.90625 
Q 21.296875 6.109375 26.703125 6.109375 
Q 34.1875 6.109375 38.703125 11.40625 
Q 43.21875 16.703125 43.21875 25.484375 
L 43.21875 27.484375 
z
M 52.203125 31.203125 
L 52.203125 0 
L 43.21875 0 
L 43.21875 8.296875 
Q 40.140625 3.328125 35.546875 0.953125 
Q 30.953125 -1.421875 24.3125 -1.421875 
Q 15.921875 -1.421875 10.953125 3.296875 
Q 6 8.015625 6 15.921875 
Q 6 25.140625 12.171875 29.828125 
Q 18.359375 34.515625 30.609375 34.515625 
L 43.21875 34.515625 
L 43.21875 35.40625 
Q 43.21875 41.609375 39.140625 45 
Q 35.0625 48.390625 27.6875 48.390625 
Q 23 48.390625 18.546875 47.265625 
Q 14.109375 46.140625 10.015625 43.890625 
L 10.015625 52.203125 
Q 14.9375 54.109375 19.578125 55.046875 
Q 24.21875 56 28.609375 56 
Q 40.484375 56 46.34375 49.84375 
Q 52.203125 43.703125 52.203125 31.203125 
" id="DejaVuSans-61"/>
      <path d="M 9.421875 75.984375 
L 18.40625 75.984375 
L 18.40625 0 
L 9.421875 0 
z
" id="DejaVuSans-6c"/>
      <path id="DejaVuSans-20"/>
      <path d="M 18.3125 70.21875 
L 18.3125 54.6875 
L 36.8125 54.6875 
L 36.8125 47.703125 
L 18.3125 47.703125 
L 18.3125 18.015625 
Q 18.3125 11.328125 20.140625 9.421875 
Q 21.96875 7.515625 27.59375 7.515625 
L 36.8125 7.515625 
L 36.8125 0 
L 27.59375 0 
Q 17.1875 0 13.234375 3.875 
Q 9.28125 7.765625 9.28125 18.015625 
L 9.28125 47.703125 
L 2.6875 47.703125 
L 2.6875 54.6875 
L 9.28125 54.6875 
L 9.28125 70.21875 
z
" id="DejaVuSans-74"/>
      <path d="M 56.203125 29.59375 
L 56.203125 25.203125 
L 14.890625 25.203125 
Q 15.484375 15.921875 20.484375 11.0625 
Q 25.484375 6.203125 34.421875 6.203125 
Q 39.59375 6.203125 44.453125 7.46875 
Q 49.3125 8.734375 54.109375 11.28125 
L 54.109375 2.78125 
Q 49.265625 0.734375 44.1875 -0.34375 
Q 39.109375 -1.421875 33.890625 -1.421875 
Q 20.796875 -1.421875 13.15625 6.1875 
Q 5.515625 13.8125 5.515625 26.8125 
Q 5.515625 40.234375 12.765625 48.109375 
Q 20.015625 56 32.328125 56 
Q 43.359375 56 49.78125 48.890625 
Q 56.203125 41.796875 56.203125 29.59375 
M 47.21875 32.234375 
Q 47.125 39.59375 43.09375 43.984375 
Q 39.0625 48.390625 32.421875 48.390625 
Q 24.90625 48.390625 20.390625 44.140625 
Q 15.875 39.890625 15.1875 32.171875 
z
" id="DejaVuSans-65"/>
      <path d="M 31 75.875 
Q 24.46875 64.65625 21.28125 53.65625 
Q 18.109375 42.671875 18.109375 31.390625 
Q 18.109375 20.125 21.3125 9.0625 
Q 24.515625 -2 31 -13.1875 
L 23.1875 -13.1875 
Q 15.875 -1.703125 12.234375 9.375 
Q 8.59375 20.453125 8.59375 31.390625 
Q 8.59375 42.28125 12.203125 53.3125 
Q 15.828125 64.359375 23.1875 75.875 
z
" id="DejaVuSans-28"/>
      <path d="M 36.71875 67.4375 
L 48.828125 0 
L 39.3125 0 
L 31.84375 40.4375 
L 5.125 0 
L -4.390625 0 
L 29.734375 52.4375 
L 28.03125 62.109375 
Q 26.953125 68.265625 21.734375 68.265625 
L 17.046875 68.265625 
L 18.5 75.984375 
L 24.21875 75.875 
Q 35.203125 75.734375 36.71875 67.4375 
" id="DejaVuSans-Oblique-3bb"/>
      <path d="M 8.015625 75.875 
L 15.828125 75.875 
Q 23.140625 64.359375 26.78125 53.3125 
Q 30.421875 42.28125 30.421875 31.390625 
Q 30.421875 20.453125 26.78125 9.375 
Q 23.140625 -1.703125 15.828125 -13.1875 
L 8.015625 -13.1875 
Q 14.5 -2 17.703125 9.0625 
Q 20.90625 20.125 20.90625 31.390625 
Q 20.90625 42.671875 17.703125 53.65625 
Q 14.5 64.65625 8.015625 75.875 
" id="DejaVuSans-29"/>
     </defs>
     <g transform="translate(445.119 460.175763)scale(0.1 -0.1)">
      <use transform="translate(0 0.015625)" xlink:href="#DejaVuSans-41"/>
      <use transform="translate(68.408203 0.015625)" xlink:href="#DejaVuSans-72"/>
      <use transform="translate(109.521484 0.015625)" xlink:href="#DejaVuSans-72"/>
      <use transform="translate(150.634766 0.015625)" xlink:href="#DejaVuSans-69"/>
      <use transform="translate(178.417969 0.015625)" xlink:href="#DejaVuSans-76"/>
      <use transform="translate(237.597656 0.015625)" xlink:href="#DejaVuSans-61"/>
      <use transform="translate(298.876953 0.015625)" xlink:href="#DejaVuSans-6c"/>
      <use transform="translate(326.660156 0.015625)" xlink:href="#DejaVuSans-20"/>
      <use transform="translate(358.447266 0.015625)" xlink:href="#DejaVuSans-72"/>
      <use transform="translate(399.560547 0.015625)" xlink:href="#DejaVuSans-61"/>
      <use transform="translate(460.839844 0.015625)" xlink:href="#DejaVuSans-74"/>
      <use transform="translate(500.048828 0.015625)" xlink:href="#DejaVuSans-65"/>
      <use transform="translate(561.572266 0.015625)" xlink:href="#DejaVuSans-28"/>
      <use transform="translate(600.585938 0.015625)" xlink:href="#DejaVuSans-Oblique-3bb"/>
      <use transform="translate(659.765625 0.015625)" xlink:href="#DejaVuSans-29"/>
     </g>
    </g>
   </g>
   <g id="matplotlib.axis_2">
    <g id="ytick_1">
     <g id="line2d_21">
      <path clip-path="url(#pef95e9bbbb)" d="M 117.09 430.916275 
L 843.048 430.916275 
" style="fill:none;stroke:#b0b0b0;stroke-linecap:square;stroke-width:0.8;"/>
     </g>
     <g id="line2d_22">
      <defs>
       <path d="M 0 0 
L -3.5 0 
" id="m738fae4b55" style="stroke:#000000;stroke-width:0.8;"/>
      </defs>
      <g>
       <use style="stroke:#000000;stroke-width:0.8;" x="117.09" xlink:href="#m738fae4b55" y="430.916275"/>
      </g>
     </g>
     <g id="text_12">
      <!-- 0 -->
      <defs>
       <path d="M 31.78125 66.40625 
Q 24.171875 66.40625 20.328125 58.90625 
Q 16.5 51.421875 16.5 36.375 
Q 16.5 21.390625 20.328125 13.890625 
Q 24.171875 6.390625 31.78125 6.390625 
Q 39.453125 6.390625 43.28125 13.890625 
Q 47.125 21.390625 47.125 36.375 
Q 47.125 51.421875 43.28125 58.90625 
Q 39.453125 66.40625 31.78125 66.40625 
M 31.78125 74.21875 
Q 44.046875 74.21875 50.515625 64.515625 
Q 56.984375 54.828125 56.984375 36.375 
Q 56.984375 17.96875 50.515625 8.265625 
Q 44.046875 -1.421875 31.78125 -1.421875 
Q 19.53125 -1.421875 13.0625 8.265625 
Q 6.59375 17.96875 6.59375 36.375 
Q 6.59375 54.828125 13.0625 64.515625 
Q 19.53125 74.21875 31.78125 74.21875 
" id="DejaVuSans-30"/>
      </defs>
      <g transform="translate(103.7275 434.715494)scale(0.1 -0.1)">
       <use xlink:href="#DejaVuSans-30"/>
      </g>
     </g>
    </g>
    <g id="ytick_2">
     <g id="line2d_23">
      <path clip-path="url(#pef95e9bbbb)" d="M 117.09 374.52137 
L 843.048 374.52137 
" style="fill:none;stroke:#b0b0b0;stroke-linecap:square;stroke-width:0.8;"/>
     </g>
     <g id="line2d_24">
      <g>
       <use style="stroke:#000000;stroke-width:0.8;" x="117.09" xlink:href="#m738fae4b55" y="374.52137"/>
      </g>
     </g>
     <g id="text_13">
      <!-- 10 -->
      <g transform="translate(97.365 378.320589)scale(0.1 -0.1)">
       <use xlink:href="#DejaVuSans-31"/>
       <use x="63.623047" xlink:href="#DejaVuSans-30"/>
      </g>
     </g>
    </g>
    <g id="ytick_3">
     <g id="line2d_25">
      <path clip-path="url(#pef95e9bbbb)" d="M 117.09 318.126465 
L 843.048 318.126465 
" style="fill:none;stroke:#b0b0b0;stroke-linecap:square;stroke-width:0.8;"/>
     </g>
     <g id="line2d_26">
      <g>
       <use style="stroke:#000000;stroke-width:0.8;" x="117.09" xlink:href="#m738fae4b55" y="318.126465"/>
      </g>
     </g>
     <g id="text_14">
      <!-- 20 -->
      <defs>
       <path d="M 19.1875 8.296875 
L 53.609375 8.296875 
L 53.609375 0 
L 7.328125 0 
L 7.328125 8.296875 
Q 12.9375 14.109375 22.625 23.890625 
Q 32.328125 33.6875 34.8125 36.53125 
Q 39.546875 41.84375 41.421875 45.53125 
Q 43.3125 49.21875 43.3125 52.78125 
Q 43.3125 58.59375 39.234375 62.25 
Q 35.15625 65.921875 28.609375 65.921875 
Q 23.96875 65.921875 18.8125 64.3125 
Q 13.671875 62.703125 7.8125 59.421875 
L 7.8125 69.390625 
Q 13.765625 71.78125 18.9375 73 
Q 24.125 74.21875 28.421875 74.21875 
Q 39.75 74.21875 46.484375 68.546875 
Q 53.21875 62.890625 53.21875 53.421875 
Q 53.21875 48.921875 51.53125 44.890625 
Q 49.859375 40.875 45.40625 35.40625 
Q 44.1875 33.984375 37.640625 27.21875 
Q 31.109375 20.453125 19.1875 8.296875 
" id="DejaVuSans-32"/>
      </defs>
      <g transform="translate(97.365 321.925683)scale(0.1 -0.1)">
       <use xlink:href="#DejaVuSans-32"/>
       <use x="63.623047" xlink:href="#DejaVuSans-30"/>
      </g>
     </g>
    </g>
    <g id="ytick_4">
     <g id="line2d_27">
      <path clip-path="url(#pef95e9bbbb)" d="M 117.09 261.731559 
L 843.048 261.731559 
" style="fill:none;stroke:#b0b0b0;stroke-linecap:square;stroke-width:0.8;"/>
     </g>
     <g id="line2d_28">
      <g>
       <use style="stroke:#000000;stroke-width:0.8;" x="117.09" xlink:href="#m738fae4b55" y="261.731559"/>
      </g>
     </g>
     <g id="text_15">
      <!-- 30 -->
      <g transform="translate(97.365 265.530778)scale(0.1 -0.1)">
       <use xlink:href="#DejaVuSans-33"/>
       <use x="63.623047" xlink:href="#DejaVuSans-30"/>
      </g>
     </g>
    </g>
    <g id="ytick_5">
     <g id="line2d_29">
      <path clip-path="url(#pef95e9bbbb)" d="M 117.09 205.336654 
L 843.048 205.336654 
" style="fill:none;stroke:#b0b0b0;stroke-linecap:square;stroke-width:0.8;"/>
     </g>
     <g id="line2d_30">
      <g>
       <use style="stroke:#000000;stroke-width:0.8;" x="117.09" xlink:href="#m738fae4b55" y="205.336654"/>
      </g>
     </g>
     <g id="text_16">
      <!-- 40 -->
      <defs>
       <path d="M 37.796875 64.3125 
L 12.890625 25.390625 
L 37.796875 25.390625 
z
M 35.203125 72.90625 
L 47.609375 72.90625 
L 47.609375 25.390625 
L 58.015625 25.390625 
L 58.015625 17.1875 
L 47.609375 17.1875 
L 47.609375 0 
L 37.796875 0 
L 37.796875 17.1875 
L 4.890625 17.1875 
L 4.890625 26.703125 
z
" id="DejaVuSans-34"/>
      </defs>
      <g transform="translate(97.365 209.135873)scale(0.1 -0.1)">
       <use xlink:href="#DejaVuSans-34"/>
       <use x="63.623047" xlink:href="#DejaVuSans-30"/>
      </g>
     </g>
    </g>
    <g id="ytick_6">
     <g id="line2d_31">
      <path clip-path="url(#pef95e9bbbb)" d="M 117.09 148.941749 
L 843.048 148.941749 
" style="fill:none;stroke:#b0b0b0;stroke-linecap:square;stroke-width:0.8;"/>
     </g>
     <g id="line2d_32">
      <g>
       <use style="stroke:#000000;stroke-width:0.8;" x="117.09" xlink:href="#m738fae4b55" y="148.941749"/>
      </g>
     </g>
     <g id="text_17">
      <!-- 50 -->
      <g transform="translate(97.365 152.740968)scale(0.1 -0.1)">
       <use xlink:href="#DejaVuSans-35"/>
       <use x="63.623047" xlink:href="#DejaVuSans-30"/>
      </g>
     </g>
    </g>
    <g id="ytick_7">
     <g id="line2d_33">
      <path clip-path="url(#pef95e9bbbb)" d="M 117.09 92.546844 
L 843.048 92.546844 
" style="fill:none;stroke:#b0b0b0;stroke-linecap:square;stroke-width:0.8;"/>
     </g>
     <g id="line2d_34">
      <g>
       <use style="stroke:#000000;stroke-width:0.8;" x="117.09" xlink:href="#m738fae4b55" y="92.546844"/>
      </g>
     </g>
     <g id="text_18">
      <!-- 60 -->
      <defs>
       <path d="M 33.015625 40.375 
Q 26.375 40.375 22.484375 35.828125 
Q 18.609375 31.296875 18.609375 23.390625 
Q 18.609375 15.53125 22.484375 10.953125 
Q 26.375 6.390625 33.015625 6.390625 
Q 39.65625 6.390625 43.53125 10.953125 
Q 47.40625 15.53125 47.40625 23.390625 
Q 47.40625 31.296875 43.53125 35.828125 
Q 39.65625 40.375 33.015625 40.375 
M 52.59375 71.296875 
L 52.59375 62.3125 
Q 48.875 64.0625 45.09375 64.984375 
Q 41.3125 65.921875 37.59375 65.921875 
Q 27.828125 65.921875 22.671875 59.328125 
Q 17.53125 52.734375 16.796875 39.40625 
Q 19.671875 43.65625 24.015625 45.921875 
Q 28.375 48.1875 33.59375 48.1875 
Q 44.578125 48.1875 50.953125 41.515625 
Q 57.328125 34.859375 57.328125 23.390625 
Q 57.328125 12.15625 50.6875 5.359375 
Q 44.046875 -1.421875 33.015625 -1.421875 
Q 20.359375 -1.421875 13.671875 8.265625 
Q 6.984375 17.96875 6.984375 36.375 
Q 6.984375 53.65625 15.1875 63.9375 
Q 23.390625 74.21875 37.203125 74.21875 
Q 40.921875 74.21875 44.703125 73.484375 
Q 48.484375 72.75 52.59375 71.296875 
" id="DejaVuSans-36"/>
      </defs>
      <g transform="translate(97.365 96.346062)scale(0.1 -0.1)">
       <use xlink:href="#DejaVuSans-36"/>
       <use x="63.623047" xlink:href="#DejaVuSans-30"/>
      </g>
     </g>
    </g>
    <g id="text_19">
     <!-- Time next -->
     <defs>
      <path d="M -0.296875 72.90625 
L 61.375 72.90625 
L 61.375 64.59375 
L 35.5 64.59375 
L 35.5 0 
L 25.59375 0 
L 25.59375 64.59375 
L -0.296875 64.59375 
z
" id="DejaVuSans-54"/>
      <path d="M 52 44.1875 
Q 55.375 50.25 60.0625 53.125 
Q 64.75 56 71.09375 56 
Q 79.640625 56 84.28125 50.015625 
Q 88.921875 44.046875 88.921875 33.015625 
L 88.921875 0 
L 79.890625 0 
L 79.890625 32.71875 
Q 79.890625 40.578125 77.09375 44.375 
Q 74.3125 48.1875 68.609375 48.1875 
Q 61.625 48.1875 57.5625 43.546875 
Q 53.515625 38.921875 53.515625 30.90625 
L 53.515625 0 
L 44.484375 0 
L 44.484375 32.71875 
Q 44.484375 40.625 41.703125 44.40625 
Q 38.921875 48.1875 33.109375 48.1875 
Q 26.21875 48.1875 22.15625 43.53125 
Q 18.109375 38.875 18.109375 30.90625 
L 18.109375 0 
L 9.078125 0 
L 9.078125 54.6875 
L 18.109375 54.6875 
L 18.109375 46.1875 
Q 21.1875 51.21875 25.484375 53.609375 
Q 29.78125 56 35.6875 56 
Q 41.65625 56 45.828125 52.96875 
Q 50 49.953125 52 44.1875 
" id="DejaVuSans-6d"/>
      <path d="M 54.890625 33.015625 
L 54.890625 0 
L 45.90625 0 
L 45.90625 32.71875 
Q 45.90625 40.484375 42.875 44.328125 
Q 39.84375 48.1875 33.796875 48.1875 
Q 26.515625 48.1875 22.3125 43.546875 
Q 18.109375 38.921875 18.109375 30.90625 
L 18.109375 0 
L 9.078125 0 
L 9.078125 54.6875 
L 18.109375 54.6875 
L 18.109375 46.1875 
Q 21.34375 51.125 25.703125 53.5625 
Q 30.078125 56 35.796875 56 
Q 45.21875 56 50.046875 50.171875 
Q 54.890625 44.34375 54.890625 33.015625 
" id="DejaVuSans-6e"/>
      <path d="M 54.890625 54.6875 
L 35.109375 28.078125 
L 55.90625 0 
L 45.3125 0 
L 29.390625 21.484375 
L 13.484375 0 
L 2.875 0 
L 24.125 28.609375 
L 4.6875 54.6875 
L 15.28125 54.6875 
L 29.78125 35.203125 
L 44.28125 54.6875 
z
" id="DejaVuSans-78"/>
     </defs>
     <g transform="translate(91.285313 270.207025)rotate(-90)scale(0.1 -0.1)">
      <use xlink:href="#DejaVuSans-54"/>
      <use x="61.037109" xlink:href="#DejaVuSans-69"/>
      <use x="88.820312" xlink:href="#DejaVuSans-6d"/>
      <use x="186.232422" xlink:href="#DejaVuSans-65"/>
      <use x="247.755859" xlink:href="#DejaVuSans-20"/>
      <use x="279.542969" xlink:href="#DejaVuSans-6e"/>
      <use x="342.921875" xlink:href="#DejaVuSans-65"/>
      <use x="404.429688" xlink:href="#DejaVuSans-78"/>
      <use x="463.609375" xlink:href="#DejaVuSans-74"/>
     </g>
    </g>
   </g>
   <g id="line2d_35">
    <path clip-path="url(#pef95e9bbbb)" d="M 150.088091 372.969716 
L 186.752636 390.673225 
L 223.417182 398.313816 
L 260.081727 402.811703 
L 296.746273 405.857337 
L 333.410818 408.093254 
L 370.075364 409.823698 
L 406.739909 411.212643 
L 443.404455 412.353517 
L 480.069 413.295521 
L 516.733545 414.053083 
L 553.398091 414.609032 
L 590.062636 414.9144 
L 626.727182 414.882002 
L 663.391727 414.365913 
L 700.056273 413.109839 
L 736.720818 410.61775 
L 773.385364 405.784605 
L 810.049909 395.572345 
" style="fill:none;stroke:#ff0000;stroke-linecap:square;stroke-width:1.5;"/>
    <defs>
     <path d="M -3 3 
L 3 -3 
M -3 -3 
L 3 3 
" id="m4333f0a864" style="stroke:#ff0000;"/>
    </defs>
    <g clip-path="url(#pef95e9bbbb)">
     <use style="fill:#ff0000;stroke:#ff0000;" x="150.088091" xlink:href="#m4333f0a864" y="372.969716"/>
     <use style="fill:#ff0000;stroke:#ff0000;" x="186.752636" xlink:href="#m4333f0a864" y="390.673225"/>
     <use style="fill:#ff0000;stroke:#ff0000;" x="223.417182" xlink:href="#m4333f0a864" y="398.313816"/>
     <use style="fill:#ff0000;stroke:#ff0000;" x="260.081727" xlink:href="#m4333f0a864" y="402.811703"/>
     <use style="fill:#ff0000;stroke:#ff0000;" x="296.746273" xlink:href="#m4333f0a864" y="405.857337"/>
     <use style="fill:#ff0000;stroke:#ff0000;" x="333.410818" xlink:href="#m4333f0a864" y="408.093254"/>
     <use style="fill:#ff0000;stroke:#ff0000;" x="370.075364" xlink:href="#m4333f0a864" y="409.823698"/>
     <use style="fill:#ff0000;stroke:#ff0000;" x="406.739909" xlink:href="#m4333f0a864" y="411.212643"/>
     <use style="fill:#ff0000;stroke:#ff0000;" x="443.404455" xlink:href="#m4333f0a864" y="412.353517"/>
     <use style="fill:#ff0000;stroke:#ff0000;" x="480.069" xlink:href="#m4333f0a864" y="413.295521"/>
     <use style="fill:#ff0000;stroke:#ff0000;" x="516.733545" xlink:href="#m4333f0a864" y="414.053083"/>
     <use style="fill:#ff0000;stroke:#ff0000;" x="553.398091" xlink:href="#m4333f0a864" y="414.609032"/>
     <use style="fill:#ff0000;stroke:#ff0000;" x="590.062636" xlink:href="#m4333f0a864" y="414.9144"/>
     <use style="fill:#ff0000;stroke:#ff0000;" x="626.727182" xlink:href="#m4333f0a864" y="414.882002"/>
     <use style="fill:#ff0000;stroke:#ff0000;" x="663.391727" xlink:href="#m4333f0a864" y="414.365913"/>
     <use style="fill:#ff0000;stroke:#ff0000;" x="700.056273" xlink:href="#m4333f0a864" y="413.109839"/>
     <use style="fill:#ff0000;stroke:#ff0000;" x="736.720818" xlink:href="#m4333f0a864" y="410.61775"/>
     <use style="fill:#ff0000;stroke:#ff0000;" x="773.385364" xlink:href="#m4333f0a864" y="405.784605"/>
     <use style="fill:#ff0000;stroke:#ff0000;" x="810.049909" xlink:href="#m4333f0a864" y="395.572345"/>
    </g>
   </g>
   <g id="line2d_36">
    <path clip-path="url(#pef95e9bbbb)" d="M 150.088091 261.912458 
L 186.752636 311.946283 
L 223.417182 333.676056 
L 260.081727 345.972896 
L 296.746273 353.526753 
L 333.410818 358.156742 
L 370.075364 360.722222 
L 406.739909 361.656263 
L 443.404455 361.157548 
L 480.069 359.265289 
L 516.733545 355.880576 
L 553.398091 350.751403 
L 590.062636 343.417166 
L 626.727182 333.086088 
L 663.391727 318.373817 
L 700.056273 296.706354 
L 736.720818 262.76592 
L 773.385364 203.509807 
L 810.049909 75.2184 
" style="fill:none;stroke:#0000ff;stroke-linecap:square;stroke-width:1.5;"/>
    <defs>
     <path d="M -3 3 
L 3 -3 
M -3 -3 
L 3 3 
" id="m3b9d592f2b" style="stroke:#0000ff;"/>
    </defs>
    <g clip-path="url(#pef95e9bbbb)">
     <use style="fill:#0000ff;stroke:#0000ff;" x="150.088091" xlink:href="#m3b9d592f2b" y="261.912458"/>
     <use style="fill:#0000ff;stroke:#0000ff;" x="186.752636" xlink:href="#m3b9d592f2b" y="311.946283"/>
     <use style="fill:#0000ff;stroke:#0000ff;" x="223.417182" xlink:href="#m3b9d592f2b" y="333.676056"/>
     <use style="fill:#0000ff;stroke:#0000ff;" x="260.081727" xlink:href="#m3b9d592f2b" y="345.972896"/>
     <use style="fill:#0000ff;stroke:#0000ff;" x="296.746273" xlink:href="#m3b9d592f2b" y="353.526753"/>
     <use style="fill:#0000ff;stroke:#0000ff;" x="333.410818" xlink:href="#m3b9d592f2b" y="358.156742"/>
     <use style="fill:#0000ff;stroke:#0000ff;" x="370.075364" xlink:href="#m3b9d592f2b" y="360.722222"/>
     <use style="fill:#0000ff;stroke:#0000ff;" x="406.739909" xlink:href="#m3b9d592f2b" y="361.656263"/>
     <use style="fill:#0000ff;stroke:#0000ff;" x="443.404455" xlink:href="#m3b9d592f2b" y="361.157548"/>
     <use style="fill:#0000ff;stroke:#0000ff;" x="480.069" xlink:href="#m3b9d592f2b" y="359.265289"/>
     <use style="fill:#0000ff;stroke:#0000ff;" x="516.733545" xlink:href="#m3b9d592f2b" y="355.880576"/>
     <use style="fill:#0000ff;stroke:#0000ff;" x="553.398091" xlink:href="#m3b9d592f2b" y="350.751403"/>
     <use style="fill:#0000ff;stroke:#0000ff;" x="590.062636" xlink:href="#m3b9d592f2b" y="343.417166"/>
     <use style="fill:#0000ff;stroke:#0000ff;" x="626.727182" xlink:href="#m3b9d592f2b" y="333.086088"/>
     <use style="fill:#0000ff;stroke:#0000ff;" x="663.391727" xlink:href="#m3b9d592f2b" y="318.373817"/>
     <use style="fill:#0000ff;stroke:#0000ff;" x="700.056273" xlink:href="#m3b9d592f2b" y="296.706354"/>
     <use style="fill:#0000ff;stroke:#0000ff;" x="736.720818" xlink:href="#m3b9d592f2b" y="262.76592"/>
     <use style="fill:#0000ff;stroke:#0000ff;" x="773.385364" xlink:href="#m3b9d592f2b" y="203.509807"/>
     <use style="fill:#0000ff;stroke:#0000ff;" x="810.049909" xlink:href="#m3b9d592f2b" y="75.2184"/>
    </g>
   </g>
   <g id="line2d_37">
    <path clip-path="url(#pef95e9bbbb)" d="M 150.088091 261.911477 
L 186.752636 311.736308 
L 223.417182 332.473357 
L 260.081727 343.171951 
L 296.746273 348.955011 
L 333.410818 351.907098 
L 370.075364 353.0177 
L 406.739909 352.783857 
L 443.404455 351.447322 
L 480.069 349.106878 
L 516.733545 345.781621 
L 553.398091 341.451163 
L 590.062636 336.084257 
L 626.727182 329.662221 
L 663.391727 322.199017 
L 700.056273 313.755442 
L 736.720818 304.442949 
L 773.385364 294.414927 
L 810.049909 283.848334 
" style="fill:none;stroke:#008000;stroke-linecap:square;stroke-width:1.5;"/>
    <defs>
     <path d="M 0 3 
C 0.795609 3 1.55874 2.683901 2.12132 2.12132 
C 2.683901 1.55874 3 0.795609 3 0 
C 3 -0.795609 2.683901 -1.55874 2.12132 -2.12132 
C 1.55874 -2.683901 0.795609 -3 0 -3 
C -0.795609 -3 -1.55874 -2.683901 -2.12132 -2.12132 
C -2.683901 -1.55874 -3 -0.795609 -3 0 
C -3 0.795609 -2.683901 1.55874 -2.12132 2.12132 
C -1.55874 2.683901 -0.795609 3 0 3 
z
" id="m8687659ec9" style="stroke:#008000;"/>
    </defs>
    <g clip-path="url(#pef95e9bbbb)">
     <use style="fill:#008000;stroke:#008000;" x="150.088091" xlink:href="#m8687659ec9" y="261.911477"/>
     <use style="fill:#008000;stroke:#008000;" x="186.752636" xlink:href="#m8687659ec9" y="311.736308"/>
     <use style="fill:#008000;stroke:#008000;" x="223.417182" xlink:href="#m8687659ec9" y="332.473357"/>
     <use style="fill:#008000;stroke:#008000;" x="260.081727" xlink:href="#m8687659ec9" y="343.171951"/>
     <use style="fill:#008000;stroke:#008000;" x="296.746273" xlink:href="#m8687659ec9" y="348.955011"/>
     <use style="fill:#008000;stroke:#008000;" x="333.410818" xlink:href="#m8687659ec9" y="351.907098"/>
     <use style="fill:#008000;stroke:#008000;" x="370.075364" xlink:href="#m8687659ec9" y="353.0177"/>
     <use style="fill:#008000;stroke:#008000;" x="406.739909" xlink:href="#m8687659ec9" y="352.783857"/>
     <use style="fill:#008000;stroke:#008000;" x="443.404455" xlink:href="#m8687659ec9" y="351.447322"/>
     <use style="fill:#008000;stroke:#008000;" x="480.069" xlink:href="#m8687659ec9" y="349.106878"/>
     <use style="fill:#008000;stroke:#008000;" x="516.733545" xlink:href="#m8687659ec9" y="345.781621"/>
     <use style="fill:#008000;stroke:#008000;" x="553.398091" xlink:href="#m8687659ec9" y="341.451163"/>
     <use style="fill:#008000;stroke:#008000;" x="590.062636" xlink:href="#m8687659ec9" y="336.084257"/>
     <use style="fill:#008000;stroke:#008000;" x="626.727182" xlink:href="#m8687659ec9" y="329.662221"/>
     <use style="fill:#008000;stroke:#008000;" x="663.391727" xlink:href="#m8687659ec9" y="322.199017"/>
     <use style="fill:#008000;stroke:#008000;" x="700.056273" xlink:href="#m8687659ec9" y="313.755442"/>
     <use style="fill:#008000;stroke:#008000;" x="736.720818" xlink:href="#m8687659ec9" y="304.442949"/>
     <use style="fill:#008000;stroke:#008000;" x="773.385364" xlink:href="#m8687659ec9" y="294.414927"/>
     <use style="fill:#008000;stroke:#008000;" x="810.049909" xlink:href="#m8687659ec9" y="283.848334"/>
    </g>
   </g>
   <g id="line2d_38">
    <path clip-path="url(#pef95e9bbbb)" d="M 150.088091 372.969716 
L 186.752636 390.673225 
L 223.417182 398.313816 
L 260.081727 402.811703 
L 296.746273 405.857333 
L 333.410818 408.093116 
L 370.075364 409.821862 
L 406.739909 411.200546 
L 443.404455 412.304542 
L 480.069 413.156051 
L 516.733545 413.747801 
L 553.398091 414.064196 
L 590.062636 414.093225 
L 626.727182 413.829807 
L 663.391727 413.277783 
L 700.056273 412.454115 
L 736.720818 411.391886 
L 773.385364 410.137801 
L 810.049909 408.744648 
" style="fill:none;stroke:#000000;stroke-linecap:square;stroke-width:1.5;"/>
    <defs>
     <path d="M 0 3 
C 0.795609 3 1.55874 2.683901 2.12132 2.12132 
C 2.683901 1.55874 3 0.795609 3 0 
C 3 -0.795609 2.683901 -1.55874 2.12132 -2.12132 
C 1.55874 -2.683901 0.795609 -3 0 -3 
C -0.795609 -3 -1.55874 -2.683901 -2.12132 -2.12132 
C -2.683901 -1.55874 -3 -0.795609 -3 0 
C -3 0.795609 -2.683901 1.55874 -2.12132 2.12132 
C -1.55874 2.683901 -0.795609 3 0 3 
z
" id="me6c36580ee" style="stroke:#000000;"/>
    </defs>
    <g clip-path="url(#pef95e9bbbb)">
     <use style="stroke:#000000;" x="150.088091" xlink:href="#me6c36580ee" y="372.969716"/>
     <use style="stroke:#000000;" x="186.752636" xlink:href="#me6c36580ee" y="390.673225"/>
     <use style="stroke:#000000;" x="223.417182" xlink:href="#me6c36580ee" y="398.313816"/>
     <use style="stroke:#000000;" x="260.081727" xlink:href="#me6c36580ee" y="402.811703"/>
     <use style="stroke:#000000;" x="296.746273" xlink:href="#me6c36580ee" y="405.857333"/>
     <use style="stroke:#000000;" x="333.410818" xlink:href="#me6c36580ee" y="408.093116"/>
     <use style="stroke:#000000;" x="370.075364" xlink:href="#me6c36580ee" y="409.821862"/>
     <use style="stroke:#000000;" x="406.739909" xlink:href="#me6c36580ee" y="411.200546"/>
     <use style="stroke:#000000;" x="443.404455" xlink:href="#me6c36580ee" y="412.304542"/>
     <use style="stroke:#000000;" x="480.069" xlink:href="#me6c36580ee" y="413.156051"/>
     <use style="stroke:#000000;" x="516.733545" xlink:href="#me6c36580ee" y="413.747801"/>
     <use style="stroke:#000000;" x="553.398091" xlink:href="#me6c36580ee" y="414.064196"/>
     <use style="stroke:#000000;" x="590.062636" xlink:href="#me6c36580ee" y="414.093225"/>
     <use style="stroke:#000000;" x="626.727182" xlink:href="#me6c36580ee" y="413.829807"/>
     <use style="stroke:#000000;" x="663.391727" xlink:href="#me6c36580ee" y="413.277783"/>
     <use style="stroke:#000000;" x="700.056273" xlink:href="#me6c36580ee" y="412.454115"/>
     <use style="stroke:#000000;" x="736.720818" xlink:href="#me6c36580ee" y="411.391886"/>
     <use style="stroke:#000000;" x="773.385364" xlink:href="#me6c36580ee" y="410.137801"/>
     <use style="stroke:#000000;" x="810.049909" xlink:href="#me6c36580ee" y="408.744648"/>
    </g>
   </g>
   <g id="line2d_39">
    <path clip-path="url(#pef95e9bbbb)" d="M 150.088091 372.969716 
L 186.752636 390.673225 
L 223.417182 398.313816 
L 260.081727 402.811703 
L 296.746273 405.857337 
L 333.410818 408.093254 
L 370.075364 409.823698 
L 406.739909 411.212643 
L 443.404455 412.353517 
L 480.069 413.295521 
L 516.733545 414.053083 
L 553.398091 414.609032 
L 590.062636 414.9144 
L 626.727182 414.882005 
L 663.391727 414.365957 
L 700.056273 413.110274 
L 736.720818 410.620952 
L 773.385364 405.804754 
L 810.049909 395.695926 
" style="fill:none;stroke:#ffff00;stroke-linecap:square;stroke-width:1.5;"/>
    <defs>
     <path d="M -0 3 
L 3 -3 
L -3 -3 
z
" id="mdb8116f8bc" style="stroke:#ffff00;stroke-linejoin:miter;"/>
    </defs>
    <g clip-path="url(#pef95e9bbbb)">
     <use style="fill:#ffff00;stroke:#ffff00;stroke-linejoin:miter;" x="150.088091" xlink:href="#mdb8116f8bc" y="372.969716"/>
     <use style="fill:#ffff00;stroke:#ffff00;stroke-linejoin:miter;" x="186.752636" xlink:href="#mdb8116f8bc" y="390.673225"/>
     <use style="fill:#ffff00;stroke:#ffff00;stroke-linejoin:miter;" x="223.417182" xlink:href="#mdb8116f8bc" y="398.313816"/>
     <use style="fill:#ffff00;stroke:#ffff00;stroke-linejoin:miter;" x="260.081727" xlink:href="#mdb8116f8bc" y="402.811703"/>
     <use style="fill:#ffff00;stroke:#ffff00;stroke-linejoin:miter;" x="296.746273" xlink:href="#mdb8116f8bc" y="405.857337"/>
     <use style="fill:#ffff00;stroke:#ffff00;stroke-linejoin:miter;" x="333.410818" xlink:href="#mdb8116f8bc" y="408.093254"/>
     <use style="fill:#ffff00;stroke:#ffff00;stroke-linejoin:miter;" x="370.075364" xlink:href="#mdb8116f8bc" y="409.823698"/>
     <use style="fill:#ffff00;stroke:#ffff00;stroke-linejoin:miter;" x="406.739909" xlink:href="#mdb8116f8bc" y="411.212643"/>
     <use style="fill:#ffff00;stroke:#ffff00;stroke-linejoin:miter;" x="443.404455" xlink:href="#mdb8116f8bc" y="412.353517"/>
     <use style="fill:#ffff00;stroke:#ffff00;stroke-linejoin:miter;" x="480.069" xlink:href="#mdb8116f8bc" y="413.295521"/>
     <use style="fill:#ffff00;stroke:#ffff00;stroke-linejoin:miter;" x="516.733545" xlink:href="#mdb8116f8bc" y="414.053083"/>
     <use style="fill:#ffff00;stroke:#ffff00;stroke-linejoin:miter;" x="553.398091" xlink:href="#mdb8116f8bc" y="414.609032"/>
     <use style="fill:#ffff00;stroke:#ffff00;stroke-linejoin:miter;" x="590.062636" xlink:href="#mdb8116f8bc" y="414.9144"/>
     <use style="fill:#ffff00;stroke:#ffff00;stroke-linejoin:miter;" x="626.727182" xlink:href="#mdb8116f8bc" y="414.882005"/>
     <use style="fill:#ffff00;stroke:#ffff00;stroke-linejoin:miter;" x="663.391727" xlink:href="#mdb8116f8bc" y="414.365957"/>
     <use style="fill:#ffff00;stroke:#ffff00;stroke-linejoin:miter;" x="700.056273" xlink:href="#mdb8116f8bc" y="413.110274"/>
     <use style="fill:#ffff00;stroke:#ffff00;stroke-linejoin:miter;" x="736.720818" xlink:href="#mdb8116f8bc" y="410.620952"/>
     <use style="fill:#ffff00;stroke:#ffff00;stroke-linejoin:miter;" x="773.385364" xlink:href="#mdb8116f8bc" y="405.804754"/>
     <use style="fill:#ffff00;stroke:#ffff00;stroke-linejoin:miter;" x="810.049909" xlink:href="#mdb8116f8bc" y="395.695926"/>
    </g>
   </g>
   <g id="line2d_40">
    <path clip-path="url(#pef95e9bbbb)" d="M 150.088091 261.912458 
L 186.752636 311.946282 
L 223.417182 333.675735 
L 260.081727 345.967531 
L 296.746273 353.499758 
L 333.410818 358.083419 
L 370.075364 360.585434 
L 406.739909 361.462854 
L 443.404455 360.950668 
L 480.069 359.134442 
L 516.733545 355.973325 
L 553.398091 351.291766 
L 590.062636 344.739283 
L 626.727182 335.701955 
L 663.391727 323.121052 
L 700.056273 305.102033 
L 736.720818 277.976659 
L 773.385364 233.661037 
L 810.049909 150.108775 
" style="fill:none;stroke:#ffc0cb;stroke-linecap:square;stroke-width:1.5;"/>
    <defs>
     <path d="M -0 3 
L 3 -3 
L -3 -3 
z
" id="mb1b629228c" style="stroke:#ffc0cb;stroke-linejoin:miter;"/>
    </defs>
    <g clip-path="url(#pef95e9bbbb)">
     <use style="fill:#ffc0cb;stroke:#ffc0cb;stroke-linejoin:miter;" x="150.088091" xlink:href="#mb1b629228c" y="261.912458"/>
     <use style="fill:#ffc0cb;stroke:#ffc0cb;stroke-linejoin:miter;" x="186.752636" xlink:href="#mb1b629228c" y="311.946282"/>
     <use style="fill:#ffc0cb;stroke:#ffc0cb;stroke-linejoin:miter;" x="223.417182" xlink:href="#mb1b629228c" y="333.675735"/>
     <use style="fill:#ffc0cb;stroke:#ffc0cb;stroke-linejoin:miter;" x="260.081727" xlink:href="#mb1b629228c" y="345.967531"/>
     <use style="fill:#ffc0cb;stroke:#ffc0cb;stroke-linejoin:miter;" x="296.746273" xlink:href="#mb1b629228c" y="353.499758"/>
     <use style="fill:#ffc0cb;stroke:#ffc0cb;stroke-linejoin:miter;" x="333.410818" xlink:href="#mb1b629228c" y="358.083419"/>
     <use style="fill:#ffc0cb;stroke:#ffc0cb;stroke-linejoin:miter;" x="370.075364" xlink:href="#mb1b629228c" y="360.585434"/>
     <use style="fill:#ffc0cb;stroke:#ffc0cb;stroke-linejoin:miter;" x="406.739909" xlink:href="#mb1b629228c" y="361.462854"/>
     <use style="fill:#ffc0cb;stroke:#ffc0cb;stroke-linejoin:miter;" x="443.404455" xlink:href="#mb1b629228c" y="360.950668"/>
     <use style="fill:#ffc0cb;stroke:#ffc0cb;stroke-linejoin:miter;" x="480.069" xlink:href="#mb1b629228c" y="359.134442"/>
     <use style="fill:#ffc0cb;stroke:#ffc0cb;stroke-linejoin:miter;" x="516.733545" xlink:href="#mb1b629228c" y="355.973325"/>
     <use style="fill:#ffc0cb;stroke:#ffc0cb;stroke-linejoin:miter;" x="553.398091" xlink:href="#mb1b629228c" y="351.291766"/>
     <use style="fill:#ffc0cb;stroke:#ffc0cb;stroke-linejoin:miter;" x="590.062636" xlink:href="#mb1b629228c" y="344.739283"/>
     <use style="fill:#ffc0cb;stroke:#ffc0cb;stroke-linejoin:miter;" x="626.727182" xlink:href="#mb1b629228c" y="335.701955"/>
     <use style="fill:#ffc0cb;stroke:#ffc0cb;stroke-linejoin:miter;" x="663.391727" xlink:href="#mb1b629228c" y="323.121052"/>
     <use style="fill:#ffc0cb;stroke:#ffc0cb;stroke-linejoin:miter;" x="700.056273" xlink:href="#mb1b629228c" y="305.102033"/>
     <use style="fill:#ffc0cb;stroke:#ffc0cb;stroke-linejoin:miter;" x="736.720818" xlink:href="#mb1b629228c" y="277.976659"/>
     <use style="fill:#ffc0cb;stroke:#ffc0cb;stroke-linejoin:miter;" x="773.385364" xlink:href="#mb1b629228c" y="233.661037"/>
     <use style="fill:#ffc0cb;stroke:#ffc0cb;stroke-linejoin:miter;" x="810.049909" xlink:href="#mb1b629228c" y="150.108775"/>
    </g>
   </g>
   <g id="patch_3">
    <path d="M 117.09 431.8992 
L 117.09 58.2336 
" style="fill:none;stroke:#000000;stroke-linecap:square;stroke-linejoin:miter;stroke-width:0.8;"/>
   </g>
   <g id="patch_4">
    <path d="M 843.048 431.8992 
L 843.048 58.2336 
" style="fill:none;stroke:#000000;stroke-linecap:square;stroke-linejoin:miter;stroke-width:0.8;"/>
   </g>
   <g id="patch_5">
    <path d="M 117.09 431.8992 
L 843.048 431.8992 
" style="fill:none;stroke:#000000;stroke-linecap:square;stroke-linejoin:miter;stroke-width:0.8;"/>
   </g>
   <g id="patch_6">
    <path d="M 117.09 58.2336 
L 843.048 58.2336 
" style="fill:none;stroke:#000000;stroke-linecap:square;stroke-linejoin:miter;stroke-width:0.8;"/>
   </g>
   <g id="legend_1">
    <g id="patch_7">
     <path d="M 128.29 211.9436 
L 342.58 211.9436 
Q 345.78 211.9436 345.78 208.7436 
L 345.78 69.4336 
Q 345.78 66.2336 342.58 66.2336 
L 128.29 66.2336 
Q 125.09 66.2336 125.09 69.4336 
L 125.09 208.7436 
Q 125.09 211.9436 128.29 211.9436 
z
" style="fill:#ffffff;opacity:0.8;stroke:#cccccc;stroke-linejoin:miter;"/>
    </g>
    <g id="line2d_41">
     <path d="M 131.49 79.1911 
L 163.49 79.1911 
" style="fill:none;stroke:#ff0000;stroke-linecap:square;stroke-width:1.5;"/>
    </g>
    <g id="line2d_42">
     <defs>
      <path d="M -6 6 
L 6 -6 
M -6 -6 
L 6 6 
" id="md28c3db37d" style="stroke:#ff0000;"/>
     </defs>
     <g>
      <use style="fill:#ff0000;stroke:#ff0000;" x="147.49" xlink:href="#md28c3db37d" y="79.1911"/>
     </g>
    </g>
    <g id="text_20">
     <!-- K=500,alpha=0.02 -->
     <defs>
      <path d="M 9.8125 72.90625 
L 19.671875 72.90625 
L 19.671875 42.09375 
L 52.390625 72.90625 
L 65.09375 72.90625 
L 28.90625 38.921875 
L 67.671875 0 
L 54.6875 0 
L 19.671875 35.109375 
L 19.671875 0 
L 9.8125 0 
z
" id="DejaVuSans-4b"/>
      <path d="M 10.59375 45.40625 
L 73.1875 45.40625 
L 73.1875 37.203125 
L 10.59375 37.203125 
z
M 10.59375 25.484375 
L 73.1875 25.484375 
L 73.1875 17.1875 
L 10.59375 17.1875 
z
" id="DejaVuSans-3d"/>
      <path d="M 11.71875 12.40625 
L 22.015625 12.40625 
L 22.015625 4 
L 14.015625 -11.625 
L 7.71875 -11.625 
L 11.71875 4 
z
" id="DejaVuSans-2c"/>
      <path d="M 18.109375 8.203125 
L 18.109375 -20.796875 
L 9.078125 -20.796875 
L 9.078125 54.6875 
L 18.109375 54.6875 
L 18.109375 46.390625 
Q 20.953125 51.265625 25.265625 53.625 
Q 29.59375 56 35.59375 56 
Q 45.5625 56 51.78125 48.09375 
Q 58.015625 40.1875 58.015625 27.296875 
Q 58.015625 14.40625 51.78125 6.484375 
Q 45.5625 -1.421875 35.59375 -1.421875 
Q 29.59375 -1.421875 25.265625 0.953125 
Q 20.953125 3.328125 18.109375 8.203125 
M 48.6875 27.296875 
Q 48.6875 37.203125 44.609375 42.84375 
Q 40.53125 48.484375 33.40625 48.484375 
Q 26.265625 48.484375 22.1875 42.84375 
Q 18.109375 37.203125 18.109375 27.296875 
Q 18.109375 17.390625 22.1875 11.75 
Q 26.265625 6.109375 33.40625 6.109375 
Q 40.53125 6.109375 44.609375 11.75 
Q 48.6875 17.390625 48.6875 27.296875 
" id="DejaVuSans-70"/>
      <path d="M 54.890625 33.015625 
L 54.890625 0 
L 45.90625 0 
L 45.90625 32.71875 
Q 45.90625 40.484375 42.875 44.328125 
Q 39.84375 48.1875 33.796875 48.1875 
Q 26.515625 48.1875 22.3125 43.546875 
Q 18.109375 38.921875 18.109375 30.90625 
L 18.109375 0 
L 9.078125 0 
L 9.078125 75.984375 
L 18.109375 75.984375 
L 18.109375 46.1875 
Q 21.34375 51.125 25.703125 53.5625 
Q 30.078125 56 35.796875 56 
Q 45.21875 56 50.046875 50.171875 
Q 54.890625 44.34375 54.890625 33.015625 
" id="DejaVuSans-68"/>
      <path d="M 10.6875 12.40625 
L 21 12.40625 
L 21 0 
L 10.6875 0 
z
" id="DejaVuSans-2e"/>
     </defs>
     <g transform="translate(176.29 84.7911)scale(0.16 -0.16)">
      <use xlink:href="#DejaVuSans-4b"/>
      <use x="65.576172" xlink:href="#DejaVuSans-3d"/>
      <use x="149.365234" xlink:href="#DejaVuSans-35"/>
      <use x="212.988281" xlink:href="#DejaVuSans-30"/>
      <use x="276.611328" xlink:href="#DejaVuSans-30"/>
      <use x="340.234375" xlink:href="#DejaVuSans-2c"/>
      <use x="372.021484" xlink:href="#DejaVuSans-61"/>
      <use x="433.300781" xlink:href="#DejaVuSans-6c"/>
      <use x="461.083984" xlink:href="#DejaVuSans-70"/>
      <use x="524.560547" xlink:href="#DejaVuSans-68"/>
      <use x="587.939453" xlink:href="#DejaVuSans-61"/>
      <use x="649.21875" xlink:href="#DejaVuSans-3d"/>
      <use x="733.007812" xlink:href="#DejaVuSans-30"/>
      <use x="796.630859" xlink:href="#DejaVuSans-2e"/>
      <use x="828.417969" xlink:href="#DejaVuSans-30"/>
      <use x="892.041016" xlink:href="#DejaVuSans-32"/>
     </g>
    </g>
    <g id="line2d_43">
     <path d="M 131.49 102.6761 
L 163.49 102.6761 
" style="fill:none;stroke:#0000ff;stroke-linecap:square;stroke-width:1.5;"/>
    </g>
    <g id="line2d_44">
     <defs>
      <path d="M -6 6 
L 6 -6 
M -6 -6 
L 6 6 
" id="m332a24d800" style="stroke:#0000ff;"/>
     </defs>
     <g>
      <use style="fill:#0000ff;stroke:#0000ff;" x="147.49" xlink:href="#m332a24d800" y="102.6761"/>
     </g>
    </g>
    <g id="text_21">
     <!-- K=500,alpha=0.002 -->
     <g transform="translate(176.29 108.2761)scale(0.16 -0.16)">
      <use xlink:href="#DejaVuSans-4b"/>
      <use x="65.576172" xlink:href="#DejaVuSans-3d"/>
      <use x="149.365234" xlink:href="#DejaVuSans-35"/>
      <use x="212.988281" xlink:href="#DejaVuSans-30"/>
      <use x="276.611328" xlink:href="#DejaVuSans-30"/>
      <use x="340.234375" xlink:href="#DejaVuSans-2c"/>
      <use x="372.021484" xlink:href="#DejaVuSans-61"/>
      <use x="433.300781" xlink:href="#DejaVuSans-6c"/>
      <use x="461.083984" xlink:href="#DejaVuSans-70"/>
      <use x="524.560547" xlink:href="#DejaVuSans-68"/>
      <use x="587.939453" xlink:href="#DejaVuSans-61"/>
      <use x="649.21875" xlink:href="#DejaVuSans-3d"/>
      <use x="733.007812" xlink:href="#DejaVuSans-30"/>
      <use x="796.630859" xlink:href="#DejaVuSans-2e"/>
      <use x="828.417969" xlink:href="#DejaVuSans-30"/>
      <use x="892.041016" xlink:href="#DejaVuSans-30"/>
      <use x="955.664062" xlink:href="#DejaVuSans-32"/>
     </g>
    </g>
    <g id="line2d_45">
     <path d="M 131.49 126.1611 
L 163.49 126.1611 
" style="fill:none;stroke:#008000;stroke-linecap:square;stroke-width:1.5;"/>
    </g>
    <g id="line2d_46">
     <defs>
      <path d="M 0 6 
C 1.591219 6 3.117479 5.367802 4.242641 4.242641 
C 5.367802 3.117479 6 1.591219 6 0 
C 6 -1.591219 5.367802 -3.117479 4.242641 -4.242641 
C 3.117479 -5.367802 1.591219 -6 0 -6 
C -1.591219 -6 -3.117479 -5.367802 -4.242641 -4.242641 
C -5.367802 -3.117479 -6 -1.591219 -6 0 
C -6 1.591219 -5.367802 3.117479 -4.242641 4.242641 
C -3.117479 5.367802 -1.591219 6 0 6 
z
" id="md0b03b87bc" style="stroke:#008000;"/>
     </defs>
     <g>
      <use style="fill:#008000;stroke:#008000;" x="147.49" xlink:href="#md0b03b87bc" y="126.1611"/>
     </g>
    </g>
    <g id="text_22">
     <!-- K=100,alpha=0.002 -->
     <g transform="translate(176.29 131.7611)scale(0.16 -0.16)">
      <use xlink:href="#DejaVuSans-4b"/>
      <use x="65.576172" xlink:href="#DejaVuSans-3d"/>
      <use x="149.365234" xlink:href="#DejaVuSans-31"/>
      <use x="212.988281" xlink:href="#DejaVuSans-30"/>
      <use x="276.611328" xlink:href="#DejaVuSans-30"/>
      <use x="340.234375" xlink:href="#DejaVuSans-2c"/>
      <use x="372.021484" xlink:href="#DejaVuSans-61"/>
      <use x="433.300781" xlink:href="#DejaVuSans-6c"/>
      <use x="461.083984" xlink:href="#DejaVuSans-70"/>
      <use x="524.560547" xlink:href="#DejaVuSans-68"/>
      <use x="587.939453" xlink:href="#DejaVuSans-61"/>
      <use x="649.21875" xlink:href="#DejaVuSans-3d"/>
      <use x="733.007812" xlink:href="#DejaVuSans-30"/>
      <use x="796.630859" xlink:href="#DejaVuSans-2e"/>
      <use x="828.417969" xlink:href="#DejaVuSans-30"/>
      <use x="892.041016" xlink:href="#DejaVuSans-30"/>
      <use x="955.664062" xlink:href="#DejaVuSans-32"/>
     </g>
    </g>
    <g id="line2d_47">
     <path d="M 131.49 149.6461 
L 163.49 149.6461 
" style="fill:none;stroke:#000000;stroke-linecap:square;stroke-width:1.5;"/>
    </g>
    <g id="line2d_48">
     <defs>
      <path d="M 0 6 
C 1.591219 6 3.117479 5.367802 4.242641 4.242641 
C 5.367802 3.117479 6 1.591219 6 0 
C 6 -1.591219 5.367802 -3.117479 4.242641 -4.242641 
C 3.117479 -5.367802 1.591219 -6 0 -6 
C -1.591219 -6 -3.117479 -5.367802 -4.242641 -4.242641 
C -5.367802 -3.117479 -6 -1.591219 -6 0 
C -6 1.591219 -5.367802 3.117479 -4.242641 4.242641 
C -3.117479 5.367802 -1.591219 6 0 6 
z
" id="mdb3a21aeba" style="stroke:#000000;"/>
     </defs>
     <g>
      <use style="stroke:#000000;" x="147.49" xlink:href="#mdb3a21aeba" y="149.6461"/>
     </g>
    </g>
    <g id="text_23">
     <!-- K=100,alpha=0.02 -->
     <g transform="translate(176.29 155.2461)scale(0.16 -0.16)">
      <use xlink:href="#DejaVuSans-4b"/>
      <use x="65.576172" xlink:href="#DejaVuSans-3d"/>
      <use x="149.365234" xlink:href="#DejaVuSans-31"/>
      <use x="212.988281" xlink:href="#DejaVuSans-30"/>
      <use x="276.611328" xlink:href="#DejaVuSans-30"/>
      <use x="340.234375" xlink:href="#DejaVuSans-2c"/>
      <use x="372.021484" xlink:href="#DejaVuSans-61"/>
      <use x="433.300781" xlink:href="#DejaVuSans-6c"/>
      <use x="461.083984" xlink:href="#DejaVuSans-70"/>
      <use x="524.560547" xlink:href="#DejaVuSans-68"/>
      <use x="587.939453" xlink:href="#DejaVuSans-61"/>
      <use x="649.21875" xlink:href="#DejaVuSans-3d"/>
      <use x="733.007812" xlink:href="#DejaVuSans-30"/>
      <use x="796.630859" xlink:href="#DejaVuSans-2e"/>
      <use x="828.417969" xlink:href="#DejaVuSans-30"/>
      <use x="892.041016" xlink:href="#DejaVuSans-32"/>
     </g>
    </g>
    <g id="line2d_49">
     <path d="M 131.49 173.1311 
L 163.49 173.1311 
" style="fill:none;stroke:#ffff00;stroke-linecap:square;stroke-width:1.5;"/>
    </g>
    <g id="line2d_50">
     <defs>
      <path d="M -0 6 
L 6 -6 
L -6 -6 
z
" id="mfdd2d61b19" style="stroke:#ffff00;stroke-linejoin:miter;"/>
     </defs>
     <g>
      <use style="fill:#ffff00;stroke:#ffff00;stroke-linejoin:miter;" x="147.49" xlink:href="#mfdd2d61b19" y="173.1311"/>
     </g>
    </g>
    <g id="text_24">
     <!-- K=200,alpha=0.02 -->
     <g transform="translate(176.29 178.7311)scale(0.16 -0.16)">
      <use xlink:href="#DejaVuSans-4b"/>
      <use x="65.576172" xlink:href="#DejaVuSans-3d"/>
      <use x="149.365234" xlink:href="#DejaVuSans-32"/>
      <use x="212.988281" xlink:href="#DejaVuSans-30"/>
      <use x="276.611328" xlink:href="#DejaVuSans-30"/>
      <use x="340.234375" xlink:href="#DejaVuSans-2c"/>
      <use x="372.021484" xlink:href="#DejaVuSans-61"/>
      <use x="433.300781" xlink:href="#DejaVuSans-6c"/>
      <use x="461.083984" xlink:href="#DejaVuSans-70"/>
      <use x="524.560547" xlink:href="#DejaVuSans-68"/>
      <use x="587.939453" xlink:href="#DejaVuSans-61"/>
      <use x="649.21875" xlink:href="#DejaVuSans-3d"/>
      <use x="733.007812" xlink:href="#DejaVuSans-30"/>
      <use x="796.630859" xlink:href="#DejaVuSans-2e"/>
      <use x="828.417969" xlink:href="#DejaVuSans-30"/>
      <use x="892.041016" xlink:href="#DejaVuSans-32"/>
     </g>
    </g>
    <g id="line2d_51">
     <path d="M 131.49 196.6161 
L 163.49 196.6161 
" style="fill:none;stroke:#ffc0cb;stroke-linecap:square;stroke-width:1.5;"/>
    </g>
    <g id="line2d_52">
     <defs>
      <path d="M -0 6 
L 6 -6 
L -6 -6 
z
" id="m21cc81c005" style="stroke:#ffc0cb;stroke-linejoin:miter;"/>
     </defs>
     <g>
      <use style="fill:#ffc0cb;stroke:#ffc0cb;stroke-linejoin:miter;" x="147.49" xlink:href="#m21cc81c005" y="196.6161"/>
     </g>
    </g>
    <g id="text_25">
     <!-- K=200,alpha=0.002 -->
     <g transform="translate(176.29 202.2161)scale(0.16 -0.16)">
      <use xlink:href="#DejaVuSans-4b"/>
      <use x="65.576172" xlink:href="#DejaVuSans-3d"/>
      <use x="149.365234" xlink:href="#DejaVuSans-32"/>
      <use x="212.988281" xlink:href="#DejaVuSans-30"/>
      <use x="276.611328" xlink:href="#DejaVuSans-30"/>
      <use x="340.234375" xlink:href="#DejaVuSans-2c"/>
      <use x="372.021484" xlink:href="#DejaVuSans-61"/>
      <use x="433.300781" xlink:href="#DejaVuSans-6c"/>
      <use x="461.083984" xlink:href="#DejaVuSans-70"/>
      <use x="524.560547" xlink:href="#DejaVuSans-68"/>
      <use x="587.939453" xlink:href="#DejaVuSans-61"/>
      <use x="649.21875" xlink:href="#DejaVuSans-3d"/>
      <use x="733.007812" xlink:href="#DejaVuSans-30"/>
      <use x="796.630859" xlink:href="#DejaVuSans-2e"/>
      <use x="828.417969" xlink:href="#DejaVuSans-30"/>
      <use x="892.041016" xlink:href="#DejaVuSans-30"/>
      <use x="955.664062" xlink:href="#DejaVuSans-32"/>
     </g>
    </g>
   </g>
  </g>
 </g>
 <defs>
  <clipPath id="pef95e9bbbb">
   <rect height="373.6656" width="725.958" x="117.09" y="58.2336"/>
  </clipPath>
 </defs>
</svg>
