<?xml version="1.0" encoding="utf-8" standalone="no"?>
<!DOCTYPE svg PUBLIC "-//W3C//DTD SVG 1.1//EN"
  "http://www.w3.org/Graphics/SVG/1.1/DTD/svg11.dtd">
<!-- Created with matplotlib (http://matplotlib.org/) -->
<svg height="485pt" version="1.1" viewBox="0 0 936 485" width="936pt" xmlns="http://www.w3.org/2000/svg" xmlns:xlink="http://www.w3.org/1999/xlink">
 <defs>
  <style type="text/css">
*{stroke-linecap:butt;stroke-linejoin:round;}
  </style>
 </defs>
 <g id="figure_1">
  <g id="patch_1">
   <path d="M 0 485.28 
L 936.72 485.28 
L 936.72 0 
L 0 0 
z
" style="fill:#ffffff;"/>
  </g>
  <g id="axes_1">
   <g id="patch_2">
    <path d="M 117.09 431.8992 
L 843.048 431.8992 
L 843.048 58.2336 
L 117.09 58.2336 
z
" style="fill:#ffffff;"/>
   </g>
   <g id="matplotlib.axis_1">
    <g id="xtick_1">
     <g id="line2d_1">
      <path clip-path="url(#p084e7b481b)" d="M 150.088091 431.8992 
L 150.088091 58.2336 
" style="fill:none;stroke:#b0b0b0;stroke-linecap:square;stroke-width:0.8;"/>
     </g>
     <g id="line2d_2">
      <defs>
       <path d="M 0 0 
L 0 3.5 
" id="m86ea159f51" style="stroke:#000000;stroke-width:0.8;"/>
      </defs>
      <g>
       <use style="stroke:#000000;stroke-width:0.8;" x="150.088091" xlink:href="#m86ea159f51" y="431.8992"/>
      </g>
     </g>
     <g id="text_1">
      <!-- 1 -->
      <defs>
       <path d="M 12.40625 8.296875 
L 28.515625 8.296875 
L 28.515625 63.921875 
L 10.984375 60.40625 
L 10.984375 69.390625 
L 28.421875 72.90625 
L 38.28125 72.90625 
L 38.28125 8.296875 
L 54.390625 8.296875 
L 54.390625 0 
L 12.40625 0 
z
" id="DejaVuSans-31"/>
      </defs>
      <g transform="translate(146.906841 446.497638)scale(0.1 -0.1)">
       <use xlink:href="#DejaVuSans-31"/>
      </g>
     </g>
    </g>
    <g id="xtick_2">
     <g id="line2d_3">
      <path clip-path="url(#p084e7b481b)" d="M 219.557756 431.8992 
L 219.557756 58.2336 
" style="fill:none;stroke:#b0b0b0;stroke-linecap:square;stroke-width:0.8;"/>
     </g>
     <g id="line2d_4">
      <g>
       <use style="stroke:#000000;stroke-width:0.8;" x="219.557756" xlink:href="#m86ea159f51" y="431.8992"/>
      </g>
     </g>
     <g id="text_2">
      <!-- 3 -->
      <defs>
       <path d="M 40.578125 39.3125 
Q 47.65625 37.796875 51.625 33 
Q 55.609375 28.21875 55.609375 21.1875 
Q 55.609375 10.40625 48.1875 4.484375 
Q 40.765625 -1.421875 27.09375 -1.421875 
Q 22.515625 -1.421875 17.65625 -0.515625 
Q 12.796875 0.390625 7.625 2.203125 
L 7.625 11.71875 
Q 11.71875 9.328125 16.59375 8.109375 
Q 21.484375 6.890625 26.8125 6.890625 
Q 36.078125 6.890625 40.9375 10.546875 
Q 45.796875 14.203125 45.796875 21.1875 
Q 45.796875 27.640625 41.28125 31.265625 
Q 36.765625 34.90625 28.71875 34.90625 
L 20.21875 34.90625 
L 20.21875 43.015625 
L 29.109375 43.015625 
Q 36.375 43.015625 40.234375 45.921875 
Q 44.09375 48.828125 44.09375 54.296875 
Q 44.09375 59.90625 40.109375 62.90625 
Q 36.140625 65.921875 28.71875 65.921875 
Q 24.65625 65.921875 20.015625 65.03125 
Q 15.375 64.15625 9.8125 62.3125 
L 9.8125 71.09375 
Q 15.4375 72.65625 20.34375 73.4375 
Q 25.25 74.21875 29.59375 74.21875 
Q 40.828125 74.21875 47.359375 69.109375 
Q 53.90625 64.015625 53.90625 55.328125 
Q 53.90625 49.265625 50.4375 45.09375 
Q 46.96875 40.921875 40.578125 39.3125 
" id="DejaVuSans-33"/>
      </defs>
      <g transform="translate(216.376506 446.497638)scale(0.1 -0.1)">
       <use xlink:href="#DejaVuSans-33"/>
      </g>
     </g>
    </g>
    <g id="xtick_3">
     <g id="line2d_5">
      <path clip-path="url(#p084e7b481b)" d="M 289.027421 431.8992 
L 289.027421 58.2336 
" style="fill:none;stroke:#b0b0b0;stroke-linecap:square;stroke-width:0.8;"/>
     </g>
     <g id="line2d_6">
      <g>
       <use style="stroke:#000000;stroke-width:0.8;" x="289.027421" xlink:href="#m86ea159f51" y="431.8992"/>
      </g>
     </g>
     <g id="text_3">
      <!-- 5 -->
      <defs>
       <path d="M 10.796875 72.90625 
L 49.515625 72.90625 
L 49.515625 64.59375 
L 19.828125 64.59375 
L 19.828125 46.734375 
Q 21.96875 47.46875 24.109375 47.828125 
Q 26.265625 48.1875 28.421875 48.1875 
Q 40.625 48.1875 47.75 41.5 
Q 54.890625 34.8125 54.890625 23.390625 
Q 54.890625 11.625 47.5625 5.09375 
Q 40.234375 -1.421875 26.90625 -1.421875 
Q 22.3125 -1.421875 17.546875 -0.640625 
Q 12.796875 0.140625 7.71875 1.703125 
L 7.71875 11.625 
Q 12.109375 9.234375 16.796875 8.0625 
Q 21.484375 6.890625 26.703125 6.890625 
Q 35.15625 6.890625 40.078125 11.328125 
Q 45.015625 15.765625 45.015625 23.390625 
Q 45.015625 31 40.078125 35.4375 
Q 35.15625 39.890625 26.703125 39.890625 
Q 22.75 39.890625 18.8125 39.015625 
Q 14.890625 38.140625 10.796875 36.28125 
z
" id="DejaVuSans-35"/>
      </defs>
      <g transform="translate(285.846171 446.497638)scale(0.1 -0.1)">
       <use xlink:href="#DejaVuSans-35"/>
      </g>
     </g>
    </g>
    <g id="xtick_4">
     <g id="line2d_7">
      <path clip-path="url(#p084e7b481b)" d="M 358.497086 431.8992 
L 358.497086 58.2336 
" style="fill:none;stroke:#b0b0b0;stroke-linecap:square;stroke-width:0.8;"/>
     </g>
     <g id="line2d_8">
      <g>
       <use style="stroke:#000000;stroke-width:0.8;" x="358.497086" xlink:href="#m86ea159f51" y="431.8992"/>
      </g>
     </g>
     <g id="text_4">
      <!-- 7 -->
      <defs>
       <path d="M 8.203125 72.90625 
L 55.078125 72.90625 
L 55.078125 68.703125 
L 28.609375 0 
L 18.3125 0 
L 43.21875 64.59375 
L 8.203125 64.59375 
z
" id="DejaVuSans-37"/>
      </defs>
      <g transform="translate(355.315836 446.497638)scale(0.1 -0.1)">
       <use xlink:href="#DejaVuSans-37"/>
      </g>
     </g>
    </g>
    <g id="xtick_5">
     <g id="line2d_9">
      <path clip-path="url(#p084e7b481b)" d="M 427.966751 431.8992 
L 427.966751 58.2336 
" style="fill:none;stroke:#b0b0b0;stroke-linecap:square;stroke-width:0.8;"/>
     </g>
     <g id="line2d_10">
      <g>
       <use style="stroke:#000000;stroke-width:0.8;" x="427.966751" xlink:href="#m86ea159f51" y="431.8992"/>
      </g>
     </g>
     <g id="text_5">
      <!-- 9 -->
      <defs>
       <path d="M 10.984375 1.515625 
L 10.984375 10.5 
Q 14.703125 8.734375 18.5 7.8125 
Q 22.3125 6.890625 25.984375 6.890625 
Q 35.75 6.890625 40.890625 13.453125 
Q 46.046875 20.015625 46.78125 33.40625 
Q 43.953125 29.203125 39.59375 26.953125 
Q 35.25 24.703125 29.984375 24.703125 
Q 19.046875 24.703125 12.671875 31.3125 
Q 6.296875 37.9375 6.296875 49.421875 
Q 6.296875 60.640625 12.9375 67.421875 
Q 19.578125 74.21875 30.609375 74.21875 
Q 43.265625 74.21875 49.921875 64.515625 
Q 56.59375 54.828125 56.59375 36.375 
Q 56.59375 19.140625 48.40625 8.859375 
Q 40.234375 -1.421875 26.421875 -1.421875 
Q 22.703125 -1.421875 18.890625 -0.6875 
Q 15.09375 0.046875 10.984375 1.515625 
M 30.609375 32.421875 
Q 37.25 32.421875 41.125 36.953125 
Q 45.015625 41.5 45.015625 49.421875 
Q 45.015625 57.28125 41.125 61.84375 
Q 37.25 66.40625 30.609375 66.40625 
Q 23.96875 66.40625 20.09375 61.84375 
Q 16.21875 57.28125 16.21875 49.421875 
Q 16.21875 41.5 20.09375 36.953125 
Q 23.96875 32.421875 30.609375 32.421875 
" id="DejaVuSans-39"/>
      </defs>
      <g transform="translate(424.785501 446.497638)scale(0.1 -0.1)">
       <use xlink:href="#DejaVuSans-39"/>
      </g>
     </g>
    </g>
    <g id="xtick_6">
     <g id="line2d_11">
      <path clip-path="url(#p084e7b481b)" d="M 497.436416 431.8992 
L 497.436416 58.2336 
" style="fill:none;stroke:#b0b0b0;stroke-linecap:square;stroke-width:0.8;"/>
     </g>
     <g id="line2d_12">
      <g>
       <use style="stroke:#000000;stroke-width:0.8;" x="497.436416" xlink:href="#m86ea159f51" y="431.8992"/>
      </g>
     </g>
     <g id="text_6">
      <!-- 11 -->
      <g transform="translate(491.073916 446.497638)scale(0.1 -0.1)">
       <use xlink:href="#DejaVuSans-31"/>
       <use x="63.623047" xlink:href="#DejaVuSans-31"/>
      </g>
     </g>
    </g>
    <g id="xtick_7">
     <g id="line2d_13">
      <path clip-path="url(#p084e7b481b)" d="M 566.906081 431.8992 
L 566.906081 58.2336 
" style="fill:none;stroke:#b0b0b0;stroke-linecap:square;stroke-width:0.8;"/>
     </g>
     <g id="line2d_14">
      <g>
       <use style="stroke:#000000;stroke-width:0.8;" x="566.906081" xlink:href="#m86ea159f51" y="431.8992"/>
      </g>
     </g>
     <g id="text_7">
      <!-- 13 -->
      <g transform="translate(560.543581 446.497638)scale(0.1 -0.1)">
       <use xlink:href="#DejaVuSans-31"/>
       <use x="63.623047" xlink:href="#DejaVuSans-33"/>
      </g>
     </g>
    </g>
    <g id="xtick_8">
     <g id="line2d_15">
      <path clip-path="url(#p084e7b481b)" d="M 636.375746 431.8992 
L 636.375746 58.2336 
" style="fill:none;stroke:#b0b0b0;stroke-linecap:square;stroke-width:0.8;"/>
     </g>
     <g id="line2d_16">
      <g>
       <use style="stroke:#000000;stroke-width:0.8;" x="636.375746" xlink:href="#m86ea159f51" y="431.8992"/>
      </g>
     </g>
     <g id="text_8">
      <!-- 15 -->
      <g transform="translate(630.013246 446.497638)scale(0.1 -0.1)">
       <use xlink:href="#DejaVuSans-31"/>
       <use x="63.623047" xlink:href="#DejaVuSans-35"/>
      </g>
     </g>
    </g>
    <g id="xtick_9">
     <g id="line2d_17">
      <path clip-path="url(#p084e7b481b)" d="M 705.845411 431.8992 
L 705.845411 58.2336 
" style="fill:none;stroke:#b0b0b0;stroke-linecap:square;stroke-width:0.8;"/>
     </g>
     <g id="line2d_18">
      <g>
       <use style="stroke:#000000;stroke-width:0.8;" x="705.845411" xlink:href="#m86ea159f51" y="431.8992"/>
      </g>
     </g>
     <g id="text_9">
      <!-- 17 -->
      <g transform="translate(699.482911 446.497638)scale(0.1 -0.1)">
       <use xlink:href="#DejaVuSans-31"/>
       <use x="63.623047" xlink:href="#DejaVuSans-37"/>
      </g>
     </g>
    </g>
    <g id="xtick_10">
     <g id="line2d_19">
      <path clip-path="url(#p084e7b481b)" d="M 775.315077 431.8992 
L 775.315077 58.2336 
" style="fill:none;stroke:#b0b0b0;stroke-linecap:square;stroke-width:0.8;"/>
     </g>
     <g id="line2d_20">
      <g>
       <use style="stroke:#000000;stroke-width:0.8;" x="775.315077" xlink:href="#m86ea159f51" y="431.8992"/>
      </g>
     </g>
     <g id="text_10">
      <!-- 19 -->
      <g transform="translate(768.952577 446.497638)scale(0.1 -0.1)">
       <use xlink:href="#DejaVuSans-31"/>
       <use x="63.623047" xlink:href="#DejaVuSans-39"/>
      </g>
     </g>
    </g>
    <g id="text_11">
     <!-- Arrival rate $(\lambda)$ -->
     <defs>
      <path d="M 34.1875 63.1875 
L 20.796875 26.90625 
L 47.609375 26.90625 
z
M 28.609375 72.90625 
L 39.796875 72.90625 
L 67.578125 0 
L 57.328125 0 
L 50.6875 18.703125 
L 17.828125 18.703125 
L 11.1875 0 
L 0.78125 0 
z
" id="DejaVuSans-41"/>
      <path d="M 41.109375 46.296875 
Q 39.59375 47.171875 37.8125 47.578125 
Q 36.03125 48 33.890625 48 
Q 26.265625 48 22.1875 43.046875 
Q 18.109375 38.09375 18.109375 28.8125 
L 18.109375 0 
L 9.078125 0 
L 9.078125 54.6875 
L 18.109375 54.6875 
L 18.109375 46.1875 
Q 20.953125 51.171875 25.484375 53.578125 
Q 30.03125 56 36.53125 56 
Q 37.453125 56 38.578125 55.875 
Q 39.703125 55.765625 41.0625 55.515625 
z
" id="DejaVuSans-72"/>
      <path d="M 9.421875 54.6875 
L 18.40625 54.6875 
L 18.40625 0 
L 9.421875 0 
z
M 9.421875 75.984375 
L 18.40625 75.984375 
L 18.40625 64.59375 
L 9.421875 64.59375 
z
" id="DejaVuSans-69"/>
      <path d="M 2.984375 54.6875 
L 12.5 54.6875 
L 29.59375 8.796875 
L 46.6875 54.6875 
L 56.203125 54.6875 
L 35.6875 0 
L 23.484375 0 
z
" id="DejaVuSans-76"/>
      <path d="M 34.28125 27.484375 
Q 23.390625 27.484375 19.1875 25 
Q 14.984375 22.515625 14.984375 16.5 
Q 14.984375 11.71875 18.140625 8.90625 
Q 21.296875 6.109375 26.703125 6.109375 
Q 34.1875 6.109375 38.703125 11.40625 
Q 43.21875 16.703125 43.21875 25.484375 
L 43.21875 27.484375 
z
M 52.203125 31.203125 
L 52.203125 0 
L 43.21875 0 
L 43.21875 8.296875 
Q 40.140625 3.328125 35.546875 0.953125 
Q 30.953125 -1.421875 24.3125 -1.421875 
Q 15.921875 -1.421875 10.953125 3.296875 
Q 6 8.015625 6 15.921875 
Q 6 25.140625 12.171875 29.828125 
Q 18.359375 34.515625 30.609375 34.515625 
L 43.21875 34.515625 
L 43.21875 35.40625 
Q 43.21875 41.609375 39.140625 45 
Q 35.0625 48.390625 27.6875 48.390625 
Q 23 48.390625 18.546875 47.265625 
Q 14.109375 46.140625 10.015625 43.890625 
L 10.015625 52.203125 
Q 14.9375 54.109375 19.578125 55.046875 
Q 24.21875 56 28.609375 56 
Q 40.484375 56 46.34375 49.84375 
Q 52.203125 43.703125 52.203125 31.203125 
" id="DejaVuSans-61"/>
      <path d="M 9.421875 75.984375 
L 18.40625 75.984375 
L 18.40625 0 
L 9.421875 0 
z
" id="DejaVuSans-6c"/>
      <path id="DejaVuSans-20"/>
      <path d="M 18.3125 70.21875 
L 18.3125 54.6875 
L 36.8125 54.6875 
L 36.8125 47.703125 
L 18.3125 47.703125 
L 18.3125 18.015625 
Q 18.3125 11.328125 20.140625 9.421875 
Q 21.96875 7.515625 27.59375 7.515625 
L 36.8125 7.515625 
L 36.8125 0 
L 27.59375 0 
Q 17.1875 0 13.234375 3.875 
Q 9.28125 7.765625 9.28125 18.015625 
L 9.28125 47.703125 
L 2.6875 47.703125 
L 2.6875 54.6875 
L 9.28125 54.6875 
L 9.28125 70.21875 
z
" id="DejaVuSans-74"/>
      <path d="M 56.203125 29.59375 
L 56.203125 25.203125 
L 14.890625 25.203125 
Q 15.484375 15.921875 20.484375 11.0625 
Q 25.484375 6.203125 34.421875 6.203125 
Q 39.59375 6.203125 44.453125 7.46875 
Q 49.3125 8.734375 54.109375 11.28125 
L 54.109375 2.78125 
Q 49.265625 0.734375 44.1875 -0.34375 
Q 39.109375 -1.421875 33.890625 -1.421875 
Q 20.796875 -1.421875 13.15625 6.1875 
Q 5.515625 13.8125 5.515625 26.8125 
Q 5.515625 40.234375 12.765625 48.109375 
Q 20.015625 56 32.328125 56 
Q 43.359375 56 49.78125 48.890625 
Q 56.203125 41.796875 56.203125 29.59375 
M 47.21875 32.234375 
Q 47.125 39.59375 43.09375 43.984375 
Q 39.0625 48.390625 32.421875 48.390625 
Q 24.90625 48.390625 20.390625 44.140625 
Q 15.875 39.890625 15.1875 32.171875 
z
" id="DejaVuSans-65"/>
      <path d="M 31 75.875 
Q 24.46875 64.65625 21.28125 53.65625 
Q 18.109375 42.671875 18.109375 31.390625 
Q 18.109375 20.125 21.3125 9.0625 
Q 24.515625 -2 31 -13.1875 
L 23.1875 -13.1875 
Q 15.875 -1.703125 12.234375 9.375 
Q 8.59375 20.453125 8.59375 31.390625 
Q 8.59375 42.28125 12.203125 53.3125 
Q 15.828125 64.359375 23.1875 75.875 
z
" id="DejaVuSans-28"/>
      <path d="M 36.71875 67.4375 
L 48.828125 0 
L 39.3125 0 
L 31.84375 40.4375 
L 5.125 0 
L -4.390625 0 
L 29.734375 52.4375 
L 28.03125 62.109375 
Q 26.953125 68.265625 21.734375 68.265625 
L 17.046875 68.265625 
L 18.5 75.984375 
L 24.21875 75.875 
Q 35.203125 75.734375 36.71875 67.4375 
" id="DejaVuSans-Oblique-3bb"/>
      <path d="M 8.015625 75.875 
L 15.828125 75.875 
Q 23.140625 64.359375 26.78125 53.3125 
Q 30.421875 42.28125 30.421875 31.390625 
Q 30.421875 20.453125 26.78125 9.375 
Q 23.140625 -1.703125 15.828125 -13.1875 
L 8.015625 -13.1875 
Q 14.5 -2 17.703125 9.0625 
Q 20.90625 20.125 20.90625 31.390625 
Q 20.90625 42.671875 17.703125 53.65625 
Q 14.5 64.65625 8.015625 75.875 
" id="DejaVuSans-29"/>
     </defs>
     <g transform="translate(443.519 460.175763)scale(0.1 -0.1)">
      <use transform="translate(0 0.015625)" xlink:href="#DejaVuSans-41"/>
      <use transform="translate(68.408203 0.015625)" xlink:href="#DejaVuSans-72"/>
      <use transform="translate(109.521484 0.015625)" xlink:href="#DejaVuSans-72"/>
      <use transform="translate(150.634766 0.015625)" xlink:href="#DejaVuSans-69"/>
      <use transform="translate(178.417969 0.015625)" xlink:href="#DejaVuSans-76"/>
      <use transform="translate(237.597656 0.015625)" xlink:href="#DejaVuSans-61"/>
      <use transform="translate(298.876953 0.015625)" xlink:href="#DejaVuSans-6c"/>
      <use transform="translate(326.660156 0.015625)" xlink:href="#DejaVuSans-20"/>
      <use transform="translate(358.447266 0.015625)" xlink:href="#DejaVuSans-72"/>
      <use transform="translate(399.560547 0.015625)" xlink:href="#DejaVuSans-61"/>
      <use transform="translate(460.839844 0.015625)" xlink:href="#DejaVuSans-74"/>
      <use transform="translate(500.048828 0.015625)" xlink:href="#DejaVuSans-65"/>
      <use transform="translate(561.572266 0.015625)" xlink:href="#DejaVuSans-20"/>
      <use transform="translate(593.359375 0.015625)" xlink:href="#DejaVuSans-28"/>
      <use transform="translate(632.373047 0.015625)" xlink:href="#DejaVuSans-Oblique-3bb"/>
      <use transform="translate(691.552734 0.015625)" xlink:href="#DejaVuSans-29"/>
     </g>
    </g>
   </g>
   <g id="matplotlib.axis_2">
    <g id="ytick_1">
     <g id="line2d_21">
      <path clip-path="url(#p084e7b481b)" d="M 117.09 432.097213 
L 843.048 432.097213 
" style="fill:none;stroke:#b0b0b0;stroke-linecap:square;stroke-width:0.8;"/>
     </g>
     <g id="line2d_22">
      <defs>
       <path d="M 0 0 
L -3.5 0 
" id="m36320fe614" style="stroke:#000000;stroke-width:0.8;"/>
      </defs>
      <g>
       <use style="stroke:#000000;stroke-width:0.8;" x="117.09" xlink:href="#m36320fe614" y="432.097213"/>
      </g>
     </g>
     <g id="text_12">
      <!-- 0 -->
      <defs>
       <path d="M 31.78125 66.40625 
Q 24.171875 66.40625 20.328125 58.90625 
Q 16.5 51.421875 16.5 36.375 
Q 16.5 21.390625 20.328125 13.890625 
Q 24.171875 6.390625 31.78125 6.390625 
Q 39.453125 6.390625 43.28125 13.890625 
Q 47.125 21.390625 47.125 36.375 
Q 47.125 51.421875 43.28125 58.90625 
Q 39.453125 66.40625 31.78125 66.40625 
M 31.78125 74.21875 
Q 44.046875 74.21875 50.515625 64.515625 
Q 56.984375 54.828125 56.984375 36.375 
Q 56.984375 17.96875 50.515625 8.265625 
Q 44.046875 -1.421875 31.78125 -1.421875 
Q 19.53125 -1.421875 13.0625 8.265625 
Q 6.59375 17.96875 6.59375 36.375 
Q 6.59375 54.828125 13.0625 64.515625 
Q 19.53125 74.21875 31.78125 74.21875 
" id="DejaVuSans-30"/>
      </defs>
      <g transform="translate(103.7275 435.896432)scale(0.1 -0.1)">
       <use xlink:href="#DejaVuSans-30"/>
      </g>
     </g>
    </g>
    <g id="ytick_2">
     <g id="line2d_23">
      <path clip-path="url(#p084e7b481b)" d="M 117.09 363.14094 
L 843.048 363.14094 
" style="fill:none;stroke:#b0b0b0;stroke-linecap:square;stroke-width:0.8;"/>
     </g>
     <g id="line2d_24">
      <g>
       <use style="stroke:#000000;stroke-width:0.8;" x="117.09" xlink:href="#m36320fe614" y="363.14094"/>
      </g>
     </g>
     <g id="text_13">
      <!-- 5 -->
      <g transform="translate(103.7275 366.940159)scale(0.1 -0.1)">
       <use xlink:href="#DejaVuSans-35"/>
      </g>
     </g>
    </g>
    <g id="ytick_3">
     <g id="line2d_25">
      <path clip-path="url(#p084e7b481b)" d="M 117.09 294.184667 
L 843.048 294.184667 
" style="fill:none;stroke:#b0b0b0;stroke-linecap:square;stroke-width:0.8;"/>
     </g>
     <g id="line2d_26">
      <g>
       <use style="stroke:#000000;stroke-width:0.8;" x="117.09" xlink:href="#m36320fe614" y="294.184667"/>
      </g>
     </g>
     <g id="text_14">
      <!-- 10 -->
      <g transform="translate(97.365 297.983886)scale(0.1 -0.1)">
       <use xlink:href="#DejaVuSans-31"/>
       <use x="63.623047" xlink:href="#DejaVuSans-30"/>
      </g>
     </g>
    </g>
    <g id="ytick_4">
     <g id="line2d_27">
      <path clip-path="url(#p084e7b481b)" d="M 117.09 225.228394 
L 843.048 225.228394 
" style="fill:none;stroke:#b0b0b0;stroke-linecap:square;stroke-width:0.8;"/>
     </g>
     <g id="line2d_28">
      <g>
       <use style="stroke:#000000;stroke-width:0.8;" x="117.09" xlink:href="#m36320fe614" y="225.228394"/>
      </g>
     </g>
     <g id="text_15">
      <!-- 15 -->
      <g transform="translate(97.365 229.027613)scale(0.1 -0.1)">
       <use xlink:href="#DejaVuSans-31"/>
       <use x="63.623047" xlink:href="#DejaVuSans-35"/>
      </g>
     </g>
    </g>
    <g id="ytick_5">
     <g id="line2d_29">
      <path clip-path="url(#p084e7b481b)" d="M 117.09 156.272121 
L 843.048 156.272121 
" style="fill:none;stroke:#b0b0b0;stroke-linecap:square;stroke-width:0.8;"/>
     </g>
     <g id="line2d_30">
      <g>
       <use style="stroke:#000000;stroke-width:0.8;" x="117.09" xlink:href="#m36320fe614" y="156.272121"/>
      </g>
     </g>
     <g id="text_16">
      <!-- 20 -->
      <defs>
       <path d="M 19.1875 8.296875 
L 53.609375 8.296875 
L 53.609375 0 
L 7.328125 0 
L 7.328125 8.296875 
Q 12.9375 14.109375 22.625 23.890625 
Q 32.328125 33.6875 34.8125 36.53125 
Q 39.546875 41.84375 41.421875 45.53125 
Q 43.3125 49.21875 43.3125 52.78125 
Q 43.3125 58.59375 39.234375 62.25 
Q 35.15625 65.921875 28.609375 65.921875 
Q 23.96875 65.921875 18.8125 64.3125 
Q 13.671875 62.703125 7.8125 59.421875 
L 7.8125 69.390625 
Q 13.765625 71.78125 18.9375 73 
Q 24.125 74.21875 28.421875 74.21875 
Q 39.75 74.21875 46.484375 68.546875 
Q 53.21875 62.890625 53.21875 53.421875 
Q 53.21875 48.921875 51.53125 44.890625 
Q 49.859375 40.875 45.40625 35.40625 
Q 44.1875 33.984375 37.640625 27.21875 
Q 31.109375 20.453125 19.1875 8.296875 
" id="DejaVuSans-32"/>
      </defs>
      <g transform="translate(97.365 160.07134)scale(0.1 -0.1)">
       <use xlink:href="#DejaVuSans-32"/>
       <use x="63.623047" xlink:href="#DejaVuSans-30"/>
      </g>
     </g>
    </g>
    <g id="ytick_6">
     <g id="line2d_31">
      <path clip-path="url(#p084e7b481b)" d="M 117.09 87.315848 
L 843.048 87.315848 
" style="fill:none;stroke:#b0b0b0;stroke-linecap:square;stroke-width:0.8;"/>
     </g>
     <g id="line2d_32">
      <g>
       <use style="stroke:#000000;stroke-width:0.8;" x="117.09" xlink:href="#m36320fe614" y="87.315848"/>
      </g>
     </g>
     <g id="text_17">
      <!-- 25 -->
      <g transform="translate(97.365 91.115067)scale(0.1 -0.1)">
       <use xlink:href="#DejaVuSans-32"/>
       <use x="63.623047" xlink:href="#DejaVuSans-35"/>
      </g>
     </g>
    </g>
    <g id="text_18">
     <!-- Mean Waiting Time -->
     <defs>
      <path d="M 9.8125 72.90625 
L 24.515625 72.90625 
L 43.109375 23.296875 
L 61.8125 72.90625 
L 76.515625 72.90625 
L 76.515625 0 
L 66.890625 0 
L 66.890625 64.015625 
L 48.09375 14.015625 
L 38.1875 14.015625 
L 19.390625 64.015625 
L 19.390625 0 
L 9.8125 0 
z
" id="DejaVuSans-4d"/>
      <path d="M 54.890625 33.015625 
L 54.890625 0 
L 45.90625 0 
L 45.90625 32.71875 
Q 45.90625 40.484375 42.875 44.328125 
Q 39.84375 48.1875 33.796875 48.1875 
Q 26.515625 48.1875 22.3125 43.546875 
Q 18.109375 38.921875 18.109375 30.90625 
L 18.109375 0 
L 9.078125 0 
L 9.078125 54.6875 
L 18.109375 54.6875 
L 18.109375 46.1875 
Q 21.34375 51.125 25.703125 53.5625 
Q 30.078125 56 35.796875 56 
Q 45.21875 56 50.046875 50.171875 
Q 54.890625 44.34375 54.890625 33.015625 
" id="DejaVuSans-6e"/>
      <path d="M 3.328125 72.90625 
L 13.28125 72.90625 
L 28.609375 11.28125 
L 43.890625 72.90625 
L 54.984375 72.90625 
L 70.3125 11.28125 
L 85.59375 72.90625 
L 95.609375 72.90625 
L 77.296875 0 
L 64.890625 0 
L 49.515625 63.28125 
L 33.984375 0 
L 21.578125 0 
z
" id="DejaVuSans-57"/>
      <path d="M 45.40625 27.984375 
Q 45.40625 37.75 41.375 43.109375 
Q 37.359375 48.484375 30.078125 48.484375 
Q 22.859375 48.484375 18.828125 43.109375 
Q 14.796875 37.75 14.796875 27.984375 
Q 14.796875 18.265625 18.828125 12.890625 
Q 22.859375 7.515625 30.078125 7.515625 
Q 37.359375 7.515625 41.375 12.890625 
Q 45.40625 18.265625 45.40625 27.984375 
M 54.390625 6.78125 
Q 54.390625 -7.171875 48.1875 -13.984375 
Q 42 -20.796875 29.203125 -20.796875 
Q 24.46875 -20.796875 20.265625 -20.09375 
Q 16.0625 -19.390625 12.109375 -17.921875 
L 12.109375 -9.1875 
Q 16.0625 -11.328125 19.921875 -12.34375 
Q 23.78125 -13.375 27.78125 -13.375 
Q 36.625 -13.375 41.015625 -8.765625 
Q 45.40625 -4.15625 45.40625 5.171875 
L 45.40625 9.625 
Q 42.625 4.78125 38.28125 2.390625 
Q 33.9375 0 27.875 0 
Q 17.828125 0 11.671875 7.65625 
Q 5.515625 15.328125 5.515625 27.984375 
Q 5.515625 40.671875 11.671875 48.328125 
Q 17.828125 56 27.875 56 
Q 33.9375 56 38.28125 53.609375 
Q 42.625 51.21875 45.40625 46.390625 
L 45.40625 54.6875 
L 54.390625 54.6875 
z
" id="DejaVuSans-67"/>
      <path d="M -0.296875 72.90625 
L 61.375 72.90625 
L 61.375 64.59375 
L 35.5 64.59375 
L 35.5 0 
L 25.59375 0 
L 25.59375 64.59375 
L -0.296875 64.59375 
z
" id="DejaVuSans-54"/>
      <path d="M 52 44.1875 
Q 55.375 50.25 60.0625 53.125 
Q 64.75 56 71.09375 56 
Q 79.640625 56 84.28125 50.015625 
Q 88.921875 44.046875 88.921875 33.015625 
L 88.921875 0 
L 79.890625 0 
L 79.890625 32.71875 
Q 79.890625 40.578125 77.09375 44.375 
Q 74.3125 48.1875 68.609375 48.1875 
Q 61.625 48.1875 57.5625 43.546875 
Q 53.515625 38.921875 53.515625 30.90625 
L 53.515625 0 
L 44.484375 0 
L 44.484375 32.71875 
Q 44.484375 40.625 41.703125 44.40625 
Q 38.921875 48.1875 33.109375 48.1875 
Q 26.21875 48.1875 22.15625 43.53125 
Q 18.109375 38.875 18.109375 30.90625 
L 18.109375 0 
L 9.078125 0 
L 9.078125 54.6875 
L 18.109375 54.6875 
L 18.109375 46.1875 
Q 21.1875 51.21875 25.484375 53.609375 
Q 29.78125 56 35.6875 56 
Q 41.65625 56 45.828125 52.96875 
Q 50 49.953125 52 44.1875 
" id="DejaVuSans-6d"/>
     </defs>
     <g transform="translate(91.285313 293.339838)rotate(-90)scale(0.1 -0.1)">
      <use xlink:href="#DejaVuSans-4d"/>
      <use x="86.279297" xlink:href="#DejaVuSans-65"/>
      <use x="147.802734" xlink:href="#DejaVuSans-61"/>
      <use x="209.082031" xlink:href="#DejaVuSans-6e"/>
      <use x="272.460938" xlink:href="#DejaVuSans-20"/>
      <use x="304.248047" xlink:href="#DejaVuSans-57"/>
      <use x="403.03125" xlink:href="#DejaVuSans-61"/>
      <use x="464.310547" xlink:href="#DejaVuSans-69"/>
      <use x="492.09375" xlink:href="#DejaVuSans-74"/>
      <use x="531.302734" xlink:href="#DejaVuSans-69"/>
      <use x="559.085938" xlink:href="#DejaVuSans-6e"/>
      <use x="622.464844" xlink:href="#DejaVuSans-67"/>
      <use x="685.941406" xlink:href="#DejaVuSans-20"/>
      <use x="717.728516" xlink:href="#DejaVuSans-54"/>
      <use x="778.765625" xlink:href="#DejaVuSans-69"/>
      <use x="806.548828" xlink:href="#DejaVuSans-6d"/>
      <use x="903.960938" xlink:href="#DejaVuSans-65"/>
     </g>
    </g>
   </g>
   <g id="line2d_33">
    <path clip-path="url(#p084e7b481b)" d="M 150.088091 293.402471 
L 184.822923 329.266308 
L 219.557756 347.011921 
L 254.292589 352.494804 
L 289.027421 354.952059 
L 323.762254 357.875843 
L 358.497086 361.377385 
L 393.231919 366.358338 
L 427.966751 371.933502 
L 462.701584 377.372748 
L 497.436416 383.188349 
L 532.171249 388.592463 
L 566.906081 393.498856 
L 601.640914 397.940356 
L 636.375746 402.121563 
L 671.110579 405.557813 
L 705.845411 408.602725 
L 740.580244 411.181264 
L 775.315077 413.107227 
L 810.049909 414.9144 
" style="fill:none;stroke:#ff0000;stroke-linecap:square;stroke-width:1.5;"/>
    <defs>
     <path d="M 0 2.5 
C 0.663008 2.5 1.29895 2.236584 1.767767 1.767767 
C 2.236584 1.29895 2.5 0.663008 2.5 0 
C 2.5 -0.663008 2.236584 -1.29895 1.767767 -1.767767 
C 1.29895 -2.236584 0.663008 -2.5 0 -2.5 
C -0.663008 -2.5 -1.29895 -2.236584 -1.767767 -1.767767 
C -2.236584 -1.29895 -2.5 -0.663008 -2.5 0 
C -2.5 0.663008 -2.236584 1.29895 -1.767767 1.767767 
C -1.29895 2.236584 -0.663008 2.5 0 2.5 
z
" id="me957744f4c" style="stroke:#ff0000;"/>
    </defs>
    <g clip-path="url(#p084e7b481b)">
     <use style="fill:#ff0000;stroke:#ff0000;" x="150.088091" xlink:href="#me957744f4c" y="293.402471"/>
     <use style="fill:#ff0000;stroke:#ff0000;" x="184.822923" xlink:href="#me957744f4c" y="329.266308"/>
     <use style="fill:#ff0000;stroke:#ff0000;" x="219.557756" xlink:href="#me957744f4c" y="347.011921"/>
     <use style="fill:#ff0000;stroke:#ff0000;" x="254.292589" xlink:href="#me957744f4c" y="352.494804"/>
     <use style="fill:#ff0000;stroke:#ff0000;" x="289.027421" xlink:href="#me957744f4c" y="354.952059"/>
     <use style="fill:#ff0000;stroke:#ff0000;" x="323.762254" xlink:href="#me957744f4c" y="357.875843"/>
     <use style="fill:#ff0000;stroke:#ff0000;" x="358.497086" xlink:href="#me957744f4c" y="361.377385"/>
     <use style="fill:#ff0000;stroke:#ff0000;" x="393.231919" xlink:href="#me957744f4c" y="366.358338"/>
     <use style="fill:#ff0000;stroke:#ff0000;" x="427.966751" xlink:href="#me957744f4c" y="371.933502"/>
     <use style="fill:#ff0000;stroke:#ff0000;" x="462.701584" xlink:href="#me957744f4c" y="377.372748"/>
     <use style="fill:#ff0000;stroke:#ff0000;" x="497.436416" xlink:href="#me957744f4c" y="383.188349"/>
     <use style="fill:#ff0000;stroke:#ff0000;" x="532.171249" xlink:href="#me957744f4c" y="388.592463"/>
     <use style="fill:#ff0000;stroke:#ff0000;" x="566.906081" xlink:href="#me957744f4c" y="393.498856"/>
     <use style="fill:#ff0000;stroke:#ff0000;" x="601.640914" xlink:href="#me957744f4c" y="397.940356"/>
     <use style="fill:#ff0000;stroke:#ff0000;" x="636.375746" xlink:href="#me957744f4c" y="402.121563"/>
     <use style="fill:#ff0000;stroke:#ff0000;" x="671.110579" xlink:href="#me957744f4c" y="405.557813"/>
     <use style="fill:#ff0000;stroke:#ff0000;" x="705.845411" xlink:href="#me957744f4c" y="408.602725"/>
     <use style="fill:#ff0000;stroke:#ff0000;" x="740.580244" xlink:href="#me957744f4c" y="411.181264"/>
     <use style="fill:#ff0000;stroke:#ff0000;" x="775.315077" xlink:href="#me957744f4c" y="413.107227"/>
     <use style="fill:#ff0000;stroke:#ff0000;" x="810.049909" xlink:href="#me957744f4c" y="414.9144"/>
    </g>
   </g>
   <g id="line2d_34">
    <path clip-path="url(#p084e7b481b)" d="M 150.088091 293.289603 
L 184.822923 329.912155 
L 219.557756 346.989059 
L 254.292589 351.950188 
L 289.027421 352.989871 
L 323.762254 352.56079 
L 358.497086 352.777092 
L 393.231919 351.749697 
L 427.966751 350.420828 
L 462.701584 350.603408 
L 497.436416 352.02452 
L 532.171249 353.422 
L 566.906081 354.352004 
L 601.640914 354.238745 
L 636.375746 355.258507 
L 671.110579 357.802186 
L 705.845411 360.43774 
L 740.580244 364.246961 
L 775.315077 368.392602 
L 810.049909 372.427664 
" style="fill:none;stroke:#ff0000;stroke-linecap:square;stroke-width:1.5;"/>
    <defs>
     <path d="M -0 2.5 
L 2.5 -2.5 
L -2.5 -2.5 
z
" id="me4bd453aad" style="stroke:#ff0000;stroke-linejoin:miter;"/>
    </defs>
    <g clip-path="url(#p084e7b481b)">
     <use style="fill:#ff0000;stroke:#ff0000;stroke-linejoin:miter;" x="150.088091" xlink:href="#me4bd453aad" y="293.289603"/>
     <use style="fill:#ff0000;stroke:#ff0000;stroke-linejoin:miter;" x="184.822923" xlink:href="#me4bd453aad" y="329.912155"/>
     <use style="fill:#ff0000;stroke:#ff0000;stroke-linejoin:miter;" x="219.557756" xlink:href="#me4bd453aad" y="346.989059"/>
     <use style="fill:#ff0000;stroke:#ff0000;stroke-linejoin:miter;" x="254.292589" xlink:href="#me4bd453aad" y="351.950188"/>
     <use style="fill:#ff0000;stroke:#ff0000;stroke-linejoin:miter;" x="289.027421" xlink:href="#me4bd453aad" y="352.989871"/>
     <use style="fill:#ff0000;stroke:#ff0000;stroke-linejoin:miter;" x="323.762254" xlink:href="#me4bd453aad" y="352.56079"/>
     <use style="fill:#ff0000;stroke:#ff0000;stroke-linejoin:miter;" x="358.497086" xlink:href="#me4bd453aad" y="352.777092"/>
     <use style="fill:#ff0000;stroke:#ff0000;stroke-linejoin:miter;" x="393.231919" xlink:href="#me4bd453aad" y="351.749697"/>
     <use style="fill:#ff0000;stroke:#ff0000;stroke-linejoin:miter;" x="427.966751" xlink:href="#me4bd453aad" y="350.420828"/>
     <use style="fill:#ff0000;stroke:#ff0000;stroke-linejoin:miter;" x="462.701584" xlink:href="#me4bd453aad" y="350.603408"/>
     <use style="fill:#ff0000;stroke:#ff0000;stroke-linejoin:miter;" x="497.436416" xlink:href="#me4bd453aad" y="352.02452"/>
     <use style="fill:#ff0000;stroke:#ff0000;stroke-linejoin:miter;" x="532.171249" xlink:href="#me4bd453aad" y="353.422"/>
     <use style="fill:#ff0000;stroke:#ff0000;stroke-linejoin:miter;" x="566.906081" xlink:href="#me4bd453aad" y="354.352004"/>
     <use style="fill:#ff0000;stroke:#ff0000;stroke-linejoin:miter;" x="601.640914" xlink:href="#me4bd453aad" y="354.238745"/>
     <use style="fill:#ff0000;stroke:#ff0000;stroke-linejoin:miter;" x="636.375746" xlink:href="#me4bd453aad" y="355.258507"/>
     <use style="fill:#ff0000;stroke:#ff0000;stroke-linejoin:miter;" x="671.110579" xlink:href="#me4bd453aad" y="357.802186"/>
     <use style="fill:#ff0000;stroke:#ff0000;stroke-linejoin:miter;" x="705.845411" xlink:href="#me4bd453aad" y="360.43774"/>
     <use style="fill:#ff0000;stroke:#ff0000;stroke-linejoin:miter;" x="740.580244" xlink:href="#me4bd453aad" y="364.246961"/>
     <use style="fill:#ff0000;stroke:#ff0000;stroke-linejoin:miter;" x="775.315077" xlink:href="#me4bd453aad" y="368.392602"/>
     <use style="fill:#ff0000;stroke:#ff0000;stroke-linejoin:miter;" x="810.049909" xlink:href="#me4bd453aad" y="372.427664"/>
    </g>
   </g>
   <g id="line2d_35">
    <path clip-path="url(#p084e7b481b)" d="M 150.088091 293.64182 
L 184.822923 329.53805 
L 219.557756 346.977928 
L 254.292589 352.794955 
L 289.027421 353.052153 
L 323.762254 353.646804 
L 358.497086 352.399805 
L 393.231919 351.039577 
L 427.966751 350.902715 
L 462.701584 350.275327 
L 497.436416 350.767372 
L 532.171249 351.500679 
L 566.906081 350.308618 
L 601.640914 347.221977 
L 636.375746 346.14111 
L 671.110579 345.504807 
L 705.845411 345.705183 
L 740.580244 347.339561 
L 775.315077 348.655313 
L 810.049909 350.239512 
" style="fill:none;stroke:#ff0000;stroke-linecap:square;stroke-width:1.5;"/>
    <defs>
     <path d="M -2.5 2.5 
L 2.5 -2.5 
M -2.5 -2.5 
L 2.5 2.5 
" id="m27437f8dc6" style="stroke:#ff0000;"/>
    </defs>
    <g clip-path="url(#p084e7b481b)">
     <use style="fill:#ff0000;stroke:#ff0000;" x="150.088091" xlink:href="#m27437f8dc6" y="293.64182"/>
     <use style="fill:#ff0000;stroke:#ff0000;" x="184.822923" xlink:href="#m27437f8dc6" y="329.53805"/>
     <use style="fill:#ff0000;stroke:#ff0000;" x="219.557756" xlink:href="#m27437f8dc6" y="346.977928"/>
     <use style="fill:#ff0000;stroke:#ff0000;" x="254.292589" xlink:href="#m27437f8dc6" y="352.794955"/>
     <use style="fill:#ff0000;stroke:#ff0000;" x="289.027421" xlink:href="#m27437f8dc6" y="353.052153"/>
     <use style="fill:#ff0000;stroke:#ff0000;" x="323.762254" xlink:href="#m27437f8dc6" y="353.646804"/>
     <use style="fill:#ff0000;stroke:#ff0000;" x="358.497086" xlink:href="#m27437f8dc6" y="352.399805"/>
     <use style="fill:#ff0000;stroke:#ff0000;" x="393.231919" xlink:href="#m27437f8dc6" y="351.039577"/>
     <use style="fill:#ff0000;stroke:#ff0000;" x="427.966751" xlink:href="#m27437f8dc6" y="350.902715"/>
     <use style="fill:#ff0000;stroke:#ff0000;" x="462.701584" xlink:href="#m27437f8dc6" y="350.275327"/>
     <use style="fill:#ff0000;stroke:#ff0000;" x="497.436416" xlink:href="#m27437f8dc6" y="350.767372"/>
     <use style="fill:#ff0000;stroke:#ff0000;" x="532.171249" xlink:href="#m27437f8dc6" y="351.500679"/>
     <use style="fill:#ff0000;stroke:#ff0000;" x="566.906081" xlink:href="#m27437f8dc6" y="350.308618"/>
     <use style="fill:#ff0000;stroke:#ff0000;" x="601.640914" xlink:href="#m27437f8dc6" y="347.221977"/>
     <use style="fill:#ff0000;stroke:#ff0000;" x="636.375746" xlink:href="#m27437f8dc6" y="346.14111"/>
     <use style="fill:#ff0000;stroke:#ff0000;" x="671.110579" xlink:href="#m27437f8dc6" y="345.504807"/>
     <use style="fill:#ff0000;stroke:#ff0000;" x="705.845411" xlink:href="#m27437f8dc6" y="345.705183"/>
     <use style="fill:#ff0000;stroke:#ff0000;" x="740.580244" xlink:href="#m27437f8dc6" y="347.339561"/>
     <use style="fill:#ff0000;stroke:#ff0000;" x="775.315077" xlink:href="#m27437f8dc6" y="348.655313"/>
     <use style="fill:#ff0000;stroke:#ff0000;" x="810.049909" xlink:href="#m27437f8dc6" y="350.239512"/>
    </g>
   </g>
   <g id="line2d_36">
    <path clip-path="url(#p084e7b481b)" d="M 150.088091 78.353783 
L 184.822923 171.338001 
L 219.557756 218.102723 
L 254.292589 252.193876 
L 289.027421 277.016547 
L 323.762254 300.495815 
L 358.497086 319.290323 
L 393.231919 335.306495 
L 427.966751 348.826039 
L 462.701584 360.712015 
L 497.436416 370.254697 
L 532.171249 378.934251 
L 566.906081 386.179123 
L 601.640914 392.073522 
L 636.375746 396.964913 
L 671.110579 401.218061 
L 705.845411 404.744636 
L 740.580244 407.566635 
L 775.315077 410.042125 
L 810.049909 412.059476 
" style="fill:none;stroke:#0000ff;stroke-linecap:square;stroke-width:1.5;"/>
    <defs>
     <path d="M 0 2.5 
C 0.663008 2.5 1.29895 2.236584 1.767767 1.767767 
C 2.236584 1.29895 2.5 0.663008 2.5 0 
C 2.5 -0.663008 2.236584 -1.29895 1.767767 -1.767767 
C 1.29895 -2.236584 0.663008 -2.5 0 -2.5 
C -0.663008 -2.5 -1.29895 -2.236584 -1.767767 -1.767767 
C -2.236584 -1.29895 -2.5 -0.663008 -2.5 0 
C -2.5 0.663008 -2.236584 1.29895 -1.767767 1.767767 
C -1.29895 2.236584 -0.663008 2.5 0 2.5 
z
" id="maa89b9432f" style="stroke:#0000ff;"/>
    </defs>
    <g clip-path="url(#p084e7b481b)">
     <use style="fill:#0000ff;stroke:#0000ff;" x="150.088091" xlink:href="#maa89b9432f" y="78.353783"/>
     <use style="fill:#0000ff;stroke:#0000ff;" x="184.822923" xlink:href="#maa89b9432f" y="171.338001"/>
     <use style="fill:#0000ff;stroke:#0000ff;" x="219.557756" xlink:href="#maa89b9432f" y="218.102723"/>
     <use style="fill:#0000ff;stroke:#0000ff;" x="254.292589" xlink:href="#maa89b9432f" y="252.193876"/>
     <use style="fill:#0000ff;stroke:#0000ff;" x="289.027421" xlink:href="#maa89b9432f" y="277.016547"/>
     <use style="fill:#0000ff;stroke:#0000ff;" x="323.762254" xlink:href="#maa89b9432f" y="300.495815"/>
     <use style="fill:#0000ff;stroke:#0000ff;" x="358.497086" xlink:href="#maa89b9432f" y="319.290323"/>
     <use style="fill:#0000ff;stroke:#0000ff;" x="393.231919" xlink:href="#maa89b9432f" y="335.306495"/>
     <use style="fill:#0000ff;stroke:#0000ff;" x="427.966751" xlink:href="#maa89b9432f" y="348.826039"/>
     <use style="fill:#0000ff;stroke:#0000ff;" x="462.701584" xlink:href="#maa89b9432f" y="360.712015"/>
     <use style="fill:#0000ff;stroke:#0000ff;" x="497.436416" xlink:href="#maa89b9432f" y="370.254697"/>
     <use style="fill:#0000ff;stroke:#0000ff;" x="532.171249" xlink:href="#maa89b9432f" y="378.934251"/>
     <use style="fill:#0000ff;stroke:#0000ff;" x="566.906081" xlink:href="#maa89b9432f" y="386.179123"/>
     <use style="fill:#0000ff;stroke:#0000ff;" x="601.640914" xlink:href="#maa89b9432f" y="392.073522"/>
     <use style="fill:#0000ff;stroke:#0000ff;" x="636.375746" xlink:href="#maa89b9432f" y="396.964913"/>
     <use style="fill:#0000ff;stroke:#0000ff;" x="671.110579" xlink:href="#maa89b9432f" y="401.218061"/>
     <use style="fill:#0000ff;stroke:#0000ff;" x="705.845411" xlink:href="#maa89b9432f" y="404.744636"/>
     <use style="fill:#0000ff;stroke:#0000ff;" x="740.580244" xlink:href="#maa89b9432f" y="407.566635"/>
     <use style="fill:#0000ff;stroke:#0000ff;" x="775.315077" xlink:href="#maa89b9432f" y="410.042125"/>
     <use style="fill:#0000ff;stroke:#0000ff;" x="810.049909" xlink:href="#maa89b9432f" y="412.059476"/>
    </g>
   </g>
   <g id="line2d_37">
    <path clip-path="url(#p084e7b481b)" d="M 150.088091 78.026257 
L 184.822923 171.907155 
L 219.557756 215.051276 
L 254.292589 245.694259 
L 289.027421 263.836698 
L 323.762254 279.42085 
L 358.497086 291.203995 
L 393.231919 301.21929 
L 427.966751 308.647114 
L 462.701584 315.561776 
L 497.436416 322.865214 
L 532.171249 329.388051 
L 566.906081 335.039496 
L 601.640914 340.880349 
L 636.375746 346.886661 
L 671.110579 352.59168 
L 705.845411 357.250409 
L 740.580244 362.940155 
L 775.315077 367.550809 
L 810.049909 372.777274 
" style="fill:none;stroke:#0000ff;stroke-linecap:square;stroke-width:1.5;"/>
    <defs>
     <path d="M -0 2.5 
L 2.5 -2.5 
L -2.5 -2.5 
z
" id="m99d80f45a7" style="stroke:#0000ff;stroke-linejoin:miter;"/>
    </defs>
    <g clip-path="url(#p084e7b481b)">
     <use style="fill:#0000ff;stroke:#0000ff;stroke-linejoin:miter;" x="150.088091" xlink:href="#m99d80f45a7" y="78.026257"/>
     <use style="fill:#0000ff;stroke:#0000ff;stroke-linejoin:miter;" x="184.822923" xlink:href="#m99d80f45a7" y="171.907155"/>
     <use style="fill:#0000ff;stroke:#0000ff;stroke-linejoin:miter;" x="219.557756" xlink:href="#m99d80f45a7" y="215.051276"/>
     <use style="fill:#0000ff;stroke:#0000ff;stroke-linejoin:miter;" x="254.292589" xlink:href="#m99d80f45a7" y="245.694259"/>
     <use style="fill:#0000ff;stroke:#0000ff;stroke-linejoin:miter;" x="289.027421" xlink:href="#m99d80f45a7" y="263.836698"/>
     <use style="fill:#0000ff;stroke:#0000ff;stroke-linejoin:miter;" x="323.762254" xlink:href="#m99d80f45a7" y="279.42085"/>
     <use style="fill:#0000ff;stroke:#0000ff;stroke-linejoin:miter;" x="358.497086" xlink:href="#m99d80f45a7" y="291.203995"/>
     <use style="fill:#0000ff;stroke:#0000ff;stroke-linejoin:miter;" x="393.231919" xlink:href="#m99d80f45a7" y="301.21929"/>
     <use style="fill:#0000ff;stroke:#0000ff;stroke-linejoin:miter;" x="427.966751" xlink:href="#m99d80f45a7" y="308.647114"/>
     <use style="fill:#0000ff;stroke:#0000ff;stroke-linejoin:miter;" x="462.701584" xlink:href="#m99d80f45a7" y="315.561776"/>
     <use style="fill:#0000ff;stroke:#0000ff;stroke-linejoin:miter;" x="497.436416" xlink:href="#m99d80f45a7" y="322.865214"/>
     <use style="fill:#0000ff;stroke:#0000ff;stroke-linejoin:miter;" x="532.171249" xlink:href="#m99d80f45a7" y="329.388051"/>
     <use style="fill:#0000ff;stroke:#0000ff;stroke-linejoin:miter;" x="566.906081" xlink:href="#m99d80f45a7" y="335.039496"/>
     <use style="fill:#0000ff;stroke:#0000ff;stroke-linejoin:miter;" x="601.640914" xlink:href="#m99d80f45a7" y="340.880349"/>
     <use style="fill:#0000ff;stroke:#0000ff;stroke-linejoin:miter;" x="636.375746" xlink:href="#m99d80f45a7" y="346.886661"/>
     <use style="fill:#0000ff;stroke:#0000ff;stroke-linejoin:miter;" x="671.110579" xlink:href="#m99d80f45a7" y="352.59168"/>
     <use style="fill:#0000ff;stroke:#0000ff;stroke-linejoin:miter;" x="705.845411" xlink:href="#m99d80f45a7" y="357.250409"/>
     <use style="fill:#0000ff;stroke:#0000ff;stroke-linejoin:miter;" x="740.580244" xlink:href="#m99d80f45a7" y="362.940155"/>
     <use style="fill:#0000ff;stroke:#0000ff;stroke-linejoin:miter;" x="775.315077" xlink:href="#m99d80f45a7" y="367.550809"/>
     <use style="fill:#0000ff;stroke:#0000ff;stroke-linejoin:miter;" x="810.049909" xlink:href="#m99d80f45a7" y="372.777274"/>
    </g>
   </g>
   <g id="line2d_38">
    <path clip-path="url(#p084e7b481b)" d="M 150.088091 75.2184 
L 184.822923 168.473135 
L 219.557756 218.137104 
L 254.292589 244.232707 
L 289.027421 265.192957 
L 323.762254 279.828126 
L 358.497086 291.585784 
L 393.231919 300.294587 
L 427.966751 307.866308 
L 462.701584 314.130126 
L 497.436416 318.959469 
L 532.171249 324.225409 
L 566.906081 328.37264 
L 601.640914 331.875613 
L 636.375746 336.040473 
L 671.110579 339.281696 
L 705.845411 341.429846 
L 740.580244 344.634939 
L 775.315077 348.425768 
L 810.049909 351.599637 
" style="fill:none;stroke:#0000ff;stroke-linecap:square;stroke-width:1.5;"/>
    <defs>
     <path d="M -2.5 2.5 
L 2.5 -2.5 
M -2.5 -2.5 
L 2.5 2.5 
" id="m7175bf0ddc" style="stroke:#0000ff;"/>
    </defs>
    <g clip-path="url(#p084e7b481b)">
     <use style="fill:#0000ff;stroke:#0000ff;" x="150.088091" xlink:href="#m7175bf0ddc" y="75.2184"/>
     <use style="fill:#0000ff;stroke:#0000ff;" x="184.822923" xlink:href="#m7175bf0ddc" y="168.473135"/>
     <use style="fill:#0000ff;stroke:#0000ff;" x="219.557756" xlink:href="#m7175bf0ddc" y="218.137104"/>
     <use style="fill:#0000ff;stroke:#0000ff;" x="254.292589" xlink:href="#m7175bf0ddc" y="244.232707"/>
     <use style="fill:#0000ff;stroke:#0000ff;" x="289.027421" xlink:href="#m7175bf0ddc" y="265.192957"/>
     <use style="fill:#0000ff;stroke:#0000ff;" x="323.762254" xlink:href="#m7175bf0ddc" y="279.828126"/>
     <use style="fill:#0000ff;stroke:#0000ff;" x="358.497086" xlink:href="#m7175bf0ddc" y="291.585784"/>
     <use style="fill:#0000ff;stroke:#0000ff;" x="393.231919" xlink:href="#m7175bf0ddc" y="300.294587"/>
     <use style="fill:#0000ff;stroke:#0000ff;" x="427.966751" xlink:href="#m7175bf0ddc" y="307.866308"/>
     <use style="fill:#0000ff;stroke:#0000ff;" x="462.701584" xlink:href="#m7175bf0ddc" y="314.130126"/>
     <use style="fill:#0000ff;stroke:#0000ff;" x="497.436416" xlink:href="#m7175bf0ddc" y="318.959469"/>
     <use style="fill:#0000ff;stroke:#0000ff;" x="532.171249" xlink:href="#m7175bf0ddc" y="324.225409"/>
     <use style="fill:#0000ff;stroke:#0000ff;" x="566.906081" xlink:href="#m7175bf0ddc" y="328.37264"/>
     <use style="fill:#0000ff;stroke:#0000ff;" x="601.640914" xlink:href="#m7175bf0ddc" y="331.875613"/>
     <use style="fill:#0000ff;stroke:#0000ff;" x="636.375746" xlink:href="#m7175bf0ddc" y="336.040473"/>
     <use style="fill:#0000ff;stroke:#0000ff;" x="671.110579" xlink:href="#m7175bf0ddc" y="339.281696"/>
     <use style="fill:#0000ff;stroke:#0000ff;" x="705.845411" xlink:href="#m7175bf0ddc" y="341.429846"/>
     <use style="fill:#0000ff;stroke:#0000ff;" x="740.580244" xlink:href="#m7175bf0ddc" y="344.634939"/>
     <use style="fill:#0000ff;stroke:#0000ff;" x="775.315077" xlink:href="#m7175bf0ddc" y="348.425768"/>
     <use style="fill:#0000ff;stroke:#0000ff;" x="810.049909" xlink:href="#m7175bf0ddc" y="351.599637"/>
    </g>
   </g>
   <g id="patch_3">
    <path d="M 117.09 431.8992 
L 117.09 58.2336 
" style="fill:none;stroke:#000000;stroke-linecap:square;stroke-linejoin:miter;stroke-width:0.8;"/>
   </g>
   <g id="patch_4">
    <path d="M 843.048 431.8992 
L 843.048 58.2336 
" style="fill:none;stroke:#000000;stroke-linecap:square;stroke-linejoin:miter;stroke-width:0.8;"/>
   </g>
   <g id="patch_5">
    <path d="M 117.09 431.8992 
L 843.048 431.8992 
" style="fill:none;stroke:#000000;stroke-linecap:square;stroke-linejoin:miter;stroke-width:0.8;"/>
   </g>
   <g id="patch_6">
    <path d="M 117.09 58.2336 
L 843.048 58.2336 
" style="fill:none;stroke:#000000;stroke-linecap:square;stroke-linejoin:miter;stroke-width:0.8;"/>
   </g>
   <g id="legend_1">
    <g id="patch_7">
     <path d="M 614.5605 211.9436 
L 831.848 211.9436 
Q 835.048 211.9436 835.048 208.7436 
L 835.048 69.4336 
Q 835.048 66.2336 831.848 66.2336 
L 614.5605 66.2336 
Q 611.3605 66.2336 611.3605 69.4336 
L 611.3605 208.7436 
Q 611.3605 211.9436 614.5605 211.9436 
z
" style="fill:#ffffff;opacity:0.8;stroke:#cccccc;stroke-linejoin:miter;"/>
    </g>
    <g id="line2d_39">
     <path d="M 617.7605 79.1911 
L 649.7605 79.1911 
" style="fill:none;stroke:#ff0000;stroke-linecap:square;stroke-width:1.5;"/>
    </g>
    <g id="line2d_40">
     <defs>
      <path d="M 0 5 
C 1.326016 5 2.597899 4.473168 3.535534 3.535534 
C 4.473168 2.597899 5 1.326016 5 0 
C 5 -1.326016 4.473168 -2.597899 3.535534 -3.535534 
C 2.597899 -4.473168 1.326016 -5 0 -5 
C -1.326016 -5 -2.597899 -4.473168 -3.535534 -3.535534 
C -4.473168 -2.597899 -5 -1.326016 -5 0 
C -5 1.326016 -4.473168 2.597899 -3.535534 3.535534 
C -2.597899 4.473168 -1.326016 5 0 5 
z
" id="mc1392e4c06" style="stroke:#ff0000;"/>
     </defs>
     <g>
      <use style="fill:#ff0000;stroke:#ff0000;" x="633.7605" xlink:href="#mc1392e4c06" y="79.1911"/>
     </g>
    </g>
    <g id="text_19">
     <!-- With middle, K =100 -->
     <defs>
      <path d="M 54.890625 33.015625 
L 54.890625 0 
L 45.90625 0 
L 45.90625 32.71875 
Q 45.90625 40.484375 42.875 44.328125 
Q 39.84375 48.1875 33.796875 48.1875 
Q 26.515625 48.1875 22.3125 43.546875 
Q 18.109375 38.921875 18.109375 30.90625 
L 18.109375 0 
L 9.078125 0 
L 9.078125 75.984375 
L 18.109375 75.984375 
L 18.109375 46.1875 
Q 21.34375 51.125 25.703125 53.5625 
Q 30.078125 56 35.796875 56 
Q 45.21875 56 50.046875 50.171875 
Q 54.890625 44.34375 54.890625 33.015625 
" id="DejaVuSans-68"/>
      <path d="M 45.40625 46.390625 
L 45.40625 75.984375 
L 54.390625 75.984375 
L 54.390625 0 
L 45.40625 0 
L 45.40625 8.203125 
Q 42.578125 3.328125 38.25 0.953125 
Q 33.9375 -1.421875 27.875 -1.421875 
Q 17.96875 -1.421875 11.734375 6.484375 
Q 5.515625 14.40625 5.515625 27.296875 
Q 5.515625 40.1875 11.734375 48.09375 
Q 17.96875 56 27.875 56 
Q 33.9375 56 38.25 53.625 
Q 42.578125 51.265625 45.40625 46.390625 
M 14.796875 27.296875 
Q 14.796875 17.390625 18.875 11.75 
Q 22.953125 6.109375 30.078125 6.109375 
Q 37.203125 6.109375 41.296875 11.75 
Q 45.40625 17.390625 45.40625 27.296875 
Q 45.40625 37.203125 41.296875 42.84375 
Q 37.203125 48.484375 30.078125 48.484375 
Q 22.953125 48.484375 18.875 42.84375 
Q 14.796875 37.203125 14.796875 27.296875 
" id="DejaVuSans-64"/>
      <path d="M 11.71875 12.40625 
L 22.015625 12.40625 
L 22.015625 4 
L 14.015625 -11.625 
L 7.71875 -11.625 
L 11.71875 4 
z
" id="DejaVuSans-2c"/>
      <path d="M 9.8125 72.90625 
L 19.671875 72.90625 
L 19.671875 42.09375 
L 52.390625 72.90625 
L 65.09375 72.90625 
L 28.90625 38.921875 
L 67.671875 0 
L 54.6875 0 
L 19.671875 35.109375 
L 19.671875 0 
L 9.8125 0 
z
" id="DejaVuSans-4b"/>
      <path d="M 10.59375 45.40625 
L 73.1875 45.40625 
L 73.1875 37.203125 
L 10.59375 37.203125 
z
M 10.59375 25.484375 
L 73.1875 25.484375 
L 73.1875 17.1875 
L 10.59375 17.1875 
z
" id="DejaVuSans-3d"/>
     </defs>
     <g transform="translate(662.5605 84.7911)scale(0.16 -0.16)">
      <use xlink:href="#DejaVuSans-57"/>
      <use x="98.845703" xlink:href="#DejaVuSans-69"/>
      <use x="126.628906" xlink:href="#DejaVuSans-74"/>
      <use x="165.837891" xlink:href="#DejaVuSans-68"/>
      <use x="229.216797" xlink:href="#DejaVuSans-20"/>
      <use x="261.003906" xlink:href="#DejaVuSans-6d"/>
      <use x="358.416016" xlink:href="#DejaVuSans-69"/>
      <use x="386.199219" xlink:href="#DejaVuSans-64"/>
      <use x="449.675781" xlink:href="#DejaVuSans-64"/>
      <use x="513.152344" xlink:href="#DejaVuSans-6c"/>
      <use x="540.935547" xlink:href="#DejaVuSans-65"/>
      <use x="602.458984" xlink:href="#DejaVuSans-2c"/>
      <use x="634.246094" xlink:href="#DejaVuSans-20"/>
      <use x="666.033203" xlink:href="#DejaVuSans-4b"/>
      <use x="731.609375" xlink:href="#DejaVuSans-20"/>
      <use x="763.396484" xlink:href="#DejaVuSans-3d"/>
      <use x="847.185547" xlink:href="#DejaVuSans-31"/>
      <use x="910.808594" xlink:href="#DejaVuSans-30"/>
      <use x="974.431641" xlink:href="#DejaVuSans-30"/>
     </g>
    </g>
    <g id="line2d_41">
     <path d="M 617.7605 102.6761 
L 649.7605 102.6761 
" style="fill:none;stroke:#ff0000;stroke-linecap:square;stroke-width:1.5;"/>
    </g>
    <g id="line2d_42">
     <defs>
      <path d="M -0 5 
L 5 -5 
L -5 -5 
z
" id="mb94d1f4cb1" style="stroke:#ff0000;stroke-linejoin:miter;"/>
     </defs>
     <g>
      <use style="fill:#ff0000;stroke:#ff0000;stroke-linejoin:miter;" x="633.7605" xlink:href="#mb94d1f4cb1" y="102.6761"/>
     </g>
    </g>
    <g id="text_20">
     <!-- With middle, K =200 -->
     <g transform="translate(662.5605 108.2761)scale(0.16 -0.16)">
      <use xlink:href="#DejaVuSans-57"/>
      <use x="98.845703" xlink:href="#DejaVuSans-69"/>
      <use x="126.628906" xlink:href="#DejaVuSans-74"/>
      <use x="165.837891" xlink:href="#DejaVuSans-68"/>
      <use x="229.216797" xlink:href="#DejaVuSans-20"/>
      <use x="261.003906" xlink:href="#DejaVuSans-6d"/>
      <use x="358.416016" xlink:href="#DejaVuSans-69"/>
      <use x="386.199219" xlink:href="#DejaVuSans-64"/>
      <use x="449.675781" xlink:href="#DejaVuSans-64"/>
      <use x="513.152344" xlink:href="#DejaVuSans-6c"/>
      <use x="540.935547" xlink:href="#DejaVuSans-65"/>
      <use x="602.458984" xlink:href="#DejaVuSans-2c"/>
      <use x="634.246094" xlink:href="#DejaVuSans-20"/>
      <use x="666.033203" xlink:href="#DejaVuSans-4b"/>
      <use x="731.609375" xlink:href="#DejaVuSans-20"/>
      <use x="763.396484" xlink:href="#DejaVuSans-3d"/>
      <use x="847.185547" xlink:href="#DejaVuSans-32"/>
      <use x="910.808594" xlink:href="#DejaVuSans-30"/>
      <use x="974.431641" xlink:href="#DejaVuSans-30"/>
     </g>
    </g>
    <g id="line2d_43">
     <path d="M 617.7605 126.1611 
L 649.7605 126.1611 
" style="fill:none;stroke:#ff0000;stroke-linecap:square;stroke-width:1.5;"/>
    </g>
    <g id="line2d_44">
     <defs>
      <path d="M -5 5 
L 5 -5 
M -5 -5 
L 5 5 
" id="m6746571bf8" style="stroke:#ff0000;"/>
     </defs>
     <g>
      <use style="fill:#ff0000;stroke:#ff0000;" x="633.7605" xlink:href="#m6746571bf8" y="126.1611"/>
     </g>
    </g>
    <g id="text_21">
     <!-- With middle, K =500 -->
     <g transform="translate(662.5605 131.7611)scale(0.16 -0.16)">
      <use xlink:href="#DejaVuSans-57"/>
      <use x="98.845703" xlink:href="#DejaVuSans-69"/>
      <use x="126.628906" xlink:href="#DejaVuSans-74"/>
      <use x="165.837891" xlink:href="#DejaVuSans-68"/>
      <use x="229.216797" xlink:href="#DejaVuSans-20"/>
      <use x="261.003906" xlink:href="#DejaVuSans-6d"/>
      <use x="358.416016" xlink:href="#DejaVuSans-69"/>
      <use x="386.199219" xlink:href="#DejaVuSans-64"/>
      <use x="449.675781" xlink:href="#DejaVuSans-64"/>
      <use x="513.152344" xlink:href="#DejaVuSans-6c"/>
      <use x="540.935547" xlink:href="#DejaVuSans-65"/>
      <use x="602.458984" xlink:href="#DejaVuSans-2c"/>
      <use x="634.246094" xlink:href="#DejaVuSans-20"/>
      <use x="666.033203" xlink:href="#DejaVuSans-4b"/>
      <use x="731.609375" xlink:href="#DejaVuSans-20"/>
      <use x="763.396484" xlink:href="#DejaVuSans-3d"/>
      <use x="847.185547" xlink:href="#DejaVuSans-35"/>
      <use x="910.808594" xlink:href="#DejaVuSans-30"/>
      <use x="974.431641" xlink:href="#DejaVuSans-30"/>
     </g>
    </g>
    <g id="line2d_45">
     <path d="M 617.7605 149.6461 
L 649.7605 149.6461 
" style="fill:none;stroke:#0000ff;stroke-linecap:square;stroke-width:1.5;"/>
    </g>
    <g id="line2d_46">
     <defs>
      <path d="M 0 5 
C 1.326016 5 2.597899 4.473168 3.535534 3.535534 
C 4.473168 2.597899 5 1.326016 5 0 
C 5 -1.326016 4.473168 -2.597899 3.535534 -3.535534 
C 2.597899 -4.473168 1.326016 -5 0 -5 
C -1.326016 -5 -2.597899 -4.473168 -3.535534 -3.535534 
C -4.473168 -2.597899 -5 -1.326016 -5 0 
C -5 1.326016 -4.473168 2.597899 -3.535534 3.535534 
C -2.597899 4.473168 -1.326016 5 0 5 
z
" id="me1540c03e9" style="stroke:#0000ff;"/>
     </defs>
     <g>
      <use style="fill:#0000ff;stroke:#0000ff;" x="633.7605" xlink:href="#me1540c03e9" y="149.6461"/>
     </g>
    </g>
    <g id="text_22">
     <!-- No middle, K =100 -->
     <defs>
      <path d="M 9.8125 72.90625 
L 23.09375 72.90625 
L 55.421875 11.921875 
L 55.421875 72.90625 
L 64.984375 72.90625 
L 64.984375 0 
L 51.703125 0 
L 19.390625 60.984375 
L 19.390625 0 
L 9.8125 0 
z
" id="DejaVuSans-4e"/>
      <path d="M 30.609375 48.390625 
Q 23.390625 48.390625 19.1875 42.75 
Q 14.984375 37.109375 14.984375 27.296875 
Q 14.984375 17.484375 19.15625 11.84375 
Q 23.34375 6.203125 30.609375 6.203125 
Q 37.796875 6.203125 41.984375 11.859375 
Q 46.1875 17.53125 46.1875 27.296875 
Q 46.1875 37.015625 41.984375 42.703125 
Q 37.796875 48.390625 30.609375 48.390625 
M 30.609375 56 
Q 42.328125 56 49.015625 48.375 
Q 55.71875 40.765625 55.71875 27.296875 
Q 55.71875 13.875 49.015625 6.21875 
Q 42.328125 -1.421875 30.609375 -1.421875 
Q 18.84375 -1.421875 12.171875 6.21875 
Q 5.515625 13.875 5.515625 27.296875 
Q 5.515625 40.765625 12.171875 48.375 
Q 18.84375 56 30.609375 56 
" id="DejaVuSans-6f"/>
     </defs>
     <g transform="translate(662.5605 155.2461)scale(0.16 -0.16)">
      <use xlink:href="#DejaVuSans-4e"/>
      <use x="74.804688" xlink:href="#DejaVuSans-6f"/>
      <use x="135.986328" xlink:href="#DejaVuSans-20"/>
      <use x="167.773438" xlink:href="#DejaVuSans-6d"/>
      <use x="265.185547" xlink:href="#DejaVuSans-69"/>
      <use x="292.96875" xlink:href="#DejaVuSans-64"/>
      <use x="356.445312" xlink:href="#DejaVuSans-64"/>
      <use x="419.921875" xlink:href="#DejaVuSans-6c"/>
      <use x="447.705078" xlink:href="#DejaVuSans-65"/>
      <use x="509.228516" xlink:href="#DejaVuSans-2c"/>
      <use x="541.015625" xlink:href="#DejaVuSans-20"/>
      <use x="572.802734" xlink:href="#DejaVuSans-4b"/>
      <use x="638.378906" xlink:href="#DejaVuSans-20"/>
      <use x="670.166016" xlink:href="#DejaVuSans-3d"/>
      <use x="753.955078" xlink:href="#DejaVuSans-31"/>
      <use x="817.578125" xlink:href="#DejaVuSans-30"/>
      <use x="881.201172" xlink:href="#DejaVuSans-30"/>
     </g>
    </g>
    <g id="line2d_47">
     <path d="M 617.7605 173.1311 
L 649.7605 173.1311 
" style="fill:none;stroke:#0000ff;stroke-linecap:square;stroke-width:1.5;"/>
    </g>
    <g id="line2d_48">
     <defs>
      <path d="M -0 5 
L 5 -5 
L -5 -5 
z
" id="mf6c36defba" style="stroke:#0000ff;stroke-linejoin:miter;"/>
     </defs>
     <g>
      <use style="fill:#0000ff;stroke:#0000ff;stroke-linejoin:miter;" x="633.7605" xlink:href="#mf6c36defba" y="173.1311"/>
     </g>
    </g>
    <g id="text_23">
     <!-- No middle, K =200 -->
     <g transform="translate(662.5605 178.7311)scale(0.16 -0.16)">
      <use xlink:href="#DejaVuSans-4e"/>
      <use x="74.804688" xlink:href="#DejaVuSans-6f"/>
      <use x="135.986328" xlink:href="#DejaVuSans-20"/>
      <use x="167.773438" xlink:href="#DejaVuSans-6d"/>
      <use x="265.185547" xlink:href="#DejaVuSans-69"/>
      <use x="292.96875" xlink:href="#DejaVuSans-64"/>
      <use x="356.445312" xlink:href="#DejaVuSans-64"/>
      <use x="419.921875" xlink:href="#DejaVuSans-6c"/>
      <use x="447.705078" xlink:href="#DejaVuSans-65"/>
      <use x="509.228516" xlink:href="#DejaVuSans-2c"/>
      <use x="541.015625" xlink:href="#DejaVuSans-20"/>
      <use x="572.802734" xlink:href="#DejaVuSans-4b"/>
      <use x="638.378906" xlink:href="#DejaVuSans-20"/>
      <use x="670.166016" xlink:href="#DejaVuSans-3d"/>
      <use x="753.955078" xlink:href="#DejaVuSans-32"/>
      <use x="817.578125" xlink:href="#DejaVuSans-30"/>
      <use x="881.201172" xlink:href="#DejaVuSans-30"/>
     </g>
    </g>
    <g id="line2d_49">
     <path d="M 617.7605 196.6161 
L 649.7605 196.6161 
" style="fill:none;stroke:#0000ff;stroke-linecap:square;stroke-width:1.5;"/>
    </g>
    <g id="line2d_50">
     <defs>
      <path d="M -5 5 
L 5 -5 
M -5 -5 
L 5 5 
" id="mb0060c969d" style="stroke:#0000ff;"/>
     </defs>
     <g>
      <use style="fill:#0000ff;stroke:#0000ff;" x="633.7605" xlink:href="#mb0060c969d" y="196.6161"/>
     </g>
    </g>
    <g id="text_24">
     <!-- No middle, K =500 -->
     <g transform="translate(662.5605 202.2161)scale(0.16 -0.16)">
      <use xlink:href="#DejaVuSans-4e"/>
      <use x="74.804688" xlink:href="#DejaVuSans-6f"/>
      <use x="135.986328" xlink:href="#DejaVuSans-20"/>
      <use x="167.773438" xlink:href="#DejaVuSans-6d"/>
      <use x="265.185547" xlink:href="#DejaVuSans-69"/>
      <use x="292.96875" xlink:href="#DejaVuSans-64"/>
      <use x="356.445312" xlink:href="#DejaVuSans-64"/>
      <use x="419.921875" xlink:href="#DejaVuSans-6c"/>
      <use x="447.705078" xlink:href="#DejaVuSans-65"/>
      <use x="509.228516" xlink:href="#DejaVuSans-2c"/>
      <use x="541.015625" xlink:href="#DejaVuSans-20"/>
      <use x="572.802734" xlink:href="#DejaVuSans-4b"/>
      <use x="638.378906" xlink:href="#DejaVuSans-20"/>
      <use x="670.166016" xlink:href="#DejaVuSans-3d"/>
      <use x="753.955078" xlink:href="#DejaVuSans-35"/>
      <use x="817.578125" xlink:href="#DejaVuSans-30"/>
      <use x="881.201172" xlink:href="#DejaVuSans-30"/>
     </g>
    </g>
   </g>
  </g>
 </g>
 <defs>
  <clipPath id="p084e7b481b">
   <rect height="373.6656" width="725.958" x="117.09" y="58.2336"/>
  </clipPath>
 </defs>
</svg>
